<svg width="579" height="800" viewBox="0 0 579 800" fill="none" xmlns="http://www.w3.org/2000/svg">
<rect width="579" height="800" fill="#F5F5F5"/>
<path d="M551.723 0H27.5859C12.3453 0 0 12.3453 0 27.5859V772.414C0 787.655 12.3453 800 27.5859 800H551.723C566.964 800 579.309 787.655 579.309 772.414V27.5859C579.309 12.3453 566.966 0 551.723 0Z" fill="#E6EEF4"/>
<path d="M44.1375 157.241C39.5672 163.334 40.8015 171.98 46.8968 176.551C52.9906 181.122 61.6359 179.887 66.2078 173.792L148.967 63.4468C153.537 57.353 152.303 48.7077 146.208 44.1358C140.114 39.5655 131.469 40.7999 126.897 46.8952L44.1375 157.241Z" fill="#D71E00"/>
<path d="M124.138 220.689C124.138 228.306 130.313 234.483 137.931 234.483C145.55 234.483 151.725 228.308 151.725 220.689V55.1717C151.725 47.5545 145.55 41.3779 137.931 41.3779C130.313 41.3779 124.138 47.5529 124.138 55.1717V220.689Z" fill="#D71E00"/>
<path d="M55.1719 151.723C47.5547 151.723 41.3781 157.898 41.3781 165.517C41.3781 173.134 47.5531 179.311 55.1719 179.311H165.517C173.134 179.311 179.311 173.136 179.311 165.517C179.311 157.9 173.136 151.723 165.517 151.723H55.1719Z" fill="#D71E00"/>
<path d="M165.517 234.483C173.134 234.483 179.311 228.308 179.311 220.689C179.311 213.07 173.136 206.895 165.517 206.895H110.345C102.728 206.895 96.5516 213.07 96.5516 220.689C96.5516 228.308 102.727 234.483 110.345 234.483H165.517Z" fill="#D71E00"/>
<path d="M290.437 371.967C305.292 334.133 336.726 303.002 376.188 303.002C409.403 303.002 439.002 318.616 458.948 344.381C483.968 376.713 501.651 448.684 446.893 503.444C419.113 531.222 290.437 661.622 290.437 661.622C290.437 661.622 161.76 531.222 133.982 503.442C79.2228 448.683 96.9056 376.711 121.928 344.38C141.873 318.614 171.473 303 204.687 303C244.148 303.002 275.582 334.133 290.437 371.967Z" fill="#D71E00"/>
</svg>
