<svg width="579" height="800" viewBox="0 0 579 800" fill="none" xmlns="http://www.w3.org/2000/svg">
<rect width="579" height="800" fill="#F5F5F5"/>
<path d="M551.723 0H27.5859C12.3453 0 0 12.3453 0 27.5859V772.414C0 787.655 12.3453 800 27.5859 800H551.723C566.964 800 579.309 787.655 579.309 772.414V27.5859C579.309 12.3453 566.966 0 551.723 0Z" fill="#E6EEF4"/>
<path d="M124.137 68.9657C131.755 68.9657 137.931 62.7907 137.931 55.1719C137.931 47.5532 131.756 41.3782 124.137 41.3782H55.1719C47.5547 41.3782 41.3781 47.5532 41.3781 55.1719C41.3781 62.7907 47.5531 68.9657 55.1719 68.9657H124.137Z" fill="#D71E00"/>
<path d="M41.3781 124.138C41.3781 131.755 47.5531 137.931 55.1719 137.931C62.7891 137.931 68.9656 131.756 68.9656 124.138V55.1719C68.9656 47.5547 62.7906 41.3782 55.1719 41.3782C47.5547 41.3782 41.3781 47.5532 41.3781 55.1719V124.138Z" fill="#D71E00"/>
<path d="M87.3656 209.963C118.68 209.963 144.069 184.574 144.069 153.26C144.069 121.945 118.68 96.5564 87.3656 96.5564C70.889 96.5564 55.514 103.639 44.8297 115.749C39.789 121.461 40.3344 130.177 46.0469 135.217C51.7594 140.258 60.475 139.713 65.5156 134C71.014 127.769 78.8844 124.144 87.3656 124.144C103.444 124.144 116.483 137.183 116.483 153.261C116.483 169.339 103.444 182.378 87.3656 182.378C78.8844 182.378 71.0234 178.75 65.5156 172.508C60.475 166.795 51.7594 166.252 46.0469 171.291C40.3344 176.331 39.7906 185.047 44.8297 190.76C55.5187 202.874 70.8828 209.963 87.3656 209.963Z" fill="#D71E00"/>
<path d="M290.437 371.967C305.292 334.133 336.726 303.002 376.188 303.002C409.403 303.002 439.002 318.616 458.948 344.381C483.968 376.713 501.651 448.684 446.893 503.444C419.113 531.222 290.437 661.622 290.437 661.622C290.437 661.622 161.76 531.222 133.982 503.442C79.2228 448.683 96.9056 376.711 121.928 344.38C141.873 318.614 171.473 303 204.687 303C244.148 303.002 275.582 334.133 290.437 371.967Z" fill="#D71E00"/>
</svg>
