<svg width="579" height="800" viewBox="0 0 579 800" fill="none" xmlns="http://www.w3.org/2000/svg">
<rect width="579" height="800" fill="#F5F5F5"/>
<path d="M551.723 0H27.5859C12.3453 0 0 12.3453 0 27.5859V772.414C0 787.655 12.3453 800 27.5859 800H551.723C566.964 800 579.309 787.655 579.309 772.414V27.5859C579.309 12.3453 566.966 0 551.723 0Z" fill="#E6EEF4"/>
<path d="M17.6785 19.4996H28.7978V24.0686C25.8576 24.1881 23.6878 24.6929 22.3154 25.5961C20.9314 26.5059 20.2472 27.8805 20.2472 29.6935C20.2472 32.0045 21.4162 33.6181 23.7581 34.5345C26.0962 35.451 30.4867 35.896 36.9222 35.896H99.4154V28.0067H105.159V56.6489H99.4154V49.8022H36.5468C28.8954 49.8022 23.3124 48.348 19.7858 45.4326C16.267 42.5239 14.4999 37.855 14.4999 31.4532C14.4999 29.4676 14.7658 27.4953 15.2936 25.5229C15.8292 23.5373 16.6268 21.5384 17.6785 19.4996ZM33.3174 91.3213C33.3174 82.3296 36.5663 75.2835 43.0526 70.1766C49.539 65.0698 58.4842 62.5128 69.8852 62.5128C81.2861 62.5128 90.2353 65.0765 96.7412 70.1766C103.247 75.2768 106.5 82.3296 106.5 91.3213C106.5 100.359 103.255 107.432 96.7646 112.539C90.2822 117.653 81.3174 120.203 69.8852 120.203C58.4842 120.203 49.5351 117.633 43.0526 112.499C36.5624 107.366 33.3174 100.306 33.3174 91.3213ZM39.0609 91.3213C39.0609 95.9101 41.5942 99.3168 46.6574 101.528C51.7283 103.74 59.4695 104.849 69.8852 104.849C80.3321 104.849 88.0888 103.74 93.1598 101.528C98.223 99.3168 100.757 95.9101 100.757 91.3213C100.757 86.7789 98.1996 83.412 93.0817 81.194C87.9716 78.9759 80.2383 77.8735 69.8813 77.8735C59.5556 77.8735 51.8379 78.9759 46.7278 81.194C41.6177 83.4054 39.0609 86.7789 39.0609 91.3213ZM34.6624 126.817H40.4057V133.664H99.4193V126.817H105.163V154.211H99.4193V147.364H73.709L99.4193 170.023V164.318H105.163V184.227H99.4193V177.082L77.6694 157.896L40.4057 184.055V189.281H34.6624L34.6624 171.158L68.8961 147.357H40.4057V154.204H34.6624V126.817ZM34.6624 190.569H40.4057V197.416H99.4193L99.4193 190.569H105.163L105.163 238.509H88.5464V233.529H98.6882V211.116H76.0861L76.0861 225.022H85.0042V230.003H60.6896V225.022H69.6076L69.6076 211.116H41.1407V234.153H51.2826V239.134H34.6663L34.6624 190.569ZM69.0408 282.126C68.6342 284.204 67.7114 285.971 66.2687 287.432C64.826 288.893 62.7422 290.155 60.0131 291.217L40.4019 298.96V304.499H34.6585V286.914L55.9548 278.327C60.3533 276.641 63.1526 275.22 64.3608 274.057C65.5689 272.895 66.1787 271.295 66.1787 269.243V267.012H40.3979V273.858H34.6546V246.465H40.3979V253.312H99.4116V246.465H105.155V276.999C105.155 283.228 103.505 288.03 100.213 291.41C96.921 294.79 92.2489 296.483 86.2005 296.483C81.282 296.483 77.3958 295.275 74.5495 292.891C71.6993 290.493 69.8658 286.914 69.0408 282.126ZM71.8049 267.018V271.713C71.8049 275.1 73.0051 277.716 75.4018 279.589C77.7907 281.442 81.2116 282.378 85.657 282.378C90.1024 282.378 93.5117 281.449 95.8732 279.589C98.2347 277.73 99.4154 275.1 99.4154 271.713V267.018H71.8049Z" fill="#FF0000"/>
<path d="M564.821 784L553.702 784V779.431C556.642 779.312 558.812 778.807 560.184 777.904C561.569 776.994 562.253 775.619 562.253 773.806C562.253 771.495 561.084 769.882 558.742 768.965C556.404 768.049 552.013 767.604 545.578 767.604L483.084 767.604V775.493H477.341V746.851H483.084V753.697L545.953 753.697C553.605 753.697 559.187 755.152 562.714 758.067C566.233 760.976 568 765.645 568 772.046C568 774.032 567.734 776.004 567.206 777.977C566.671 779.962 565.873 781.961 564.821 784ZM549.182 712.178C549.182 721.17 545.934 728.216 539.447 733.323C532.961 738.43 524.016 740.987 512.615 740.987C501.214 740.987 492.265 738.423 485.759 733.323C479.253 728.223 476 721.17 476 712.178C476 703.14 479.245 696.067 485.735 690.961C492.218 685.847 501.183 683.297 512.615 683.297C524.016 683.297 532.965 685.867 539.447 691C545.938 696.134 549.182 703.193 549.182 712.178ZM543.439 712.178C543.439 707.59 540.906 704.183 535.843 701.972C530.772 699.76 523.03 698.651 512.615 698.651C502.168 698.651 494.411 699.76 489.34 701.972C484.277 704.183 481.743 707.59 481.743 712.178C481.743 716.721 484.3 720.088 489.418 722.306C494.528 724.524 502.262 725.626 512.619 725.626C522.944 725.626 530.662 724.524 535.772 722.306C540.882 720.094 543.439 716.721 543.439 712.178ZM547.838 676.683H542.094V669.836L483.081 669.836V676.683L477.337 676.683V649.289H483.081V656.136L508.791 656.136L483.081 633.477V639.182H477.337V619.272H483.081V626.418L504.83 645.603L542.094 619.445V614.219H547.838V632.341L513.604 656.143H542.094V649.296H547.838V676.683ZM547.838 612.93H542.094V606.084H483.081V612.93H477.337L477.337 564.99H493.953L493.953 569.971H483.812V592.384H506.414V578.478H497.496V573.497H521.81V578.478H512.892V592.384H541.359V569.347H531.217V564.366H547.834L547.838 612.93ZM513.459 521.373C513.866 519.294 514.788 517.528 516.231 516.067C517.674 514.606 519.758 513.344 522.487 512.282L542.098 504.538V499H547.841V516.585L526.545 525.172C522.147 526.858 519.347 528.279 518.139 529.442C516.931 530.604 516.321 532.204 516.321 534.256V536.488H542.102V529.641H547.845V557.034H542.102V550.188H483.088V557.034H477.345V526.5C477.345 520.271 478.995 515.469 482.287 512.089C485.579 508.709 490.251 507.016 496.299 507.016C501.218 507.016 505.104 508.224 507.95 510.608C510.801 513.006 512.634 516.585 513.459 521.373ZM510.695 536.481V531.786C510.695 528.399 509.495 525.782 507.098 523.91C504.709 522.057 501.288 521.121 496.843 521.121C492.397 521.121 488.988 522.05 486.627 523.91C484.265 525.769 483.084 528.399 483.084 531.786V536.481H510.695Z" fill="#FF0000"/>
<path d="M347.925 647.576L345.571 652.149L348 668.042L354.33 666.941L366.878 658.403L352.931 645.054L347.925 647.576ZM466.947 216.587C460.811 206.724 457.763 200.783 458.405 196.893C458.99 193.352 463.21 188.839 454.392 181.821C449.161 177.657 426.876 183.897 442.167 202.415C456.403 204.202 454.504 201.136 451.416 216.367C430.037 238.346 418.019 231.35 398.173 226.293C373.761 222.169 368.432 237.218 357.688 227.77C348.293 195.792 363.514 208.089 368.373 210.053C379.354 205.369 376.655 208.728 379.499 195.657C373.814 186.551 376.675 188.737 367.603 186.248C360.117 189.736 362.803 187.286 355.93 197.651C339.662 204.752 330.666 207.485 332.361 236.628C340.518 253.945 339.333 249.66 339.188 256.454C326.226 276.669 329.794 268.316 322.996 292.447C314.059 300.185 315.936 296.423 315.396 308.387C312.746 315.04 296.896 305.097 297.551 324.56C272.304 309.382 265.836 315.999 230.917 332.199C212.54 337.114 219.067 336.379 202.283 335.964C199.949 337.134 195.778 335.881 213.962 353.571C220.756 353.153 217.283 353.858 229.709 350.143C231.941 351.597 243.627 354.587 230.371 367.859C223.672 368.017 216.378 365.357 202.628 389.746C200.647 393.257 200.123 397.819 198.54 402.853C228.801 397.279 221.042 399.989 234.229 391.335C246.145 365.021 254.134 377.983 256.8 387.131C250.467 398.063 254.562 395.479 239.288 397.648C225.976 410.904 230.328 403.486 220.68 431.538C227.049 437.581 247.626 429.586 261.873 419.683C263.515 411.013 265.036 398.917 281.916 406.506C284.809 414.398 285.185 410.976 280.043 420.903C262.528 426.128 264.647 422.538 254.437 454.901C254.437 470.402 252.225 467.867 262.975 466.196C283.921 456.204 283.512 457.763 295.02 444.936C288.335 416.103 310.327 425.564 310.659 425.666C314.909 432.5 319.218 434.485 298.878 445.269C299.392 481.031 298.523 473.426 301.742 483.134C306.597 484.45 309.267 489.609 333.681 458.112C333.477 439.763 331.95 435.135 346.565 434.304C360.341 442.595 348.083 450.853 341.387 456.115C342.075 466.631 341.479 481.143 350.199 486.236C372.537 467.234 367.53 472.73 373.775 461.432C369.95 448.895 365.032 442.074 379.831 437.294C390.569 446.017 390.121 443.254 383.242 459.662C389.328 480.527 385.937 473.656 397.452 490.117C398.594 490.09 407.317 493.595 413.087 461.323C405.76 449.264 406.504 450.382 411.438 442.496C418.861 442.364 416.583 440.976 420.912 448.588C416.62 462.622 414.236 472.862 447.453 488.458C451.245 485.336 451.568 495.141 425.316 429.547C422.67 405.085 423.825 413.406 420.356 392.779C409.407 375.069 415.49 381.263 392.498 365.98C392.755 342.6 392.142 349.506 394.917 334.859C420.514 317.417 417.153 317.552 432.914 329.212C438.644 344.06 438.921 342.234 430.708 342.392C422.867 346.82 424.961 343.79 422.123 355.355C430.685 370.332 434.461 366.55 442.272 363.214C448.223 347.835 439.609 351.929 447.891 340.183C455.646 315.57 436.123 308.878 444.514 288.699C452.565 278.328 457.062 272.862 461.219 267.983C473.76 239.341 469.218 228.976 466.947 216.587ZM400.832 305.832C374.838 322.464 384.292 318.788 359.4 323.179L343.593 319.909L336.16 309.28C336.753 285.63 334.583 294.178 344.64 271.797L355.268 256.016L372.501 246.389C372.501 246.389 377.751 245.806 379.841 245.489L389.976 244.817L397.175 250.583C395.362 260.835 395.513 258.205 396.254 262.688C406.837 263.677 402.689 262.517 414.493 268.253L415.958 277.566C410.734 295.157 414.006 288.669 400.832 305.832Z" fill="#E6180A"/>
<path d="M396.596 225.59L397.87 227.094L376.388 246.389L375.118 244.883L396.596 225.59ZM192.21 346.885L201.947 349.091L208.8 360.811L201.256 397.348L181.653 434.023L151.62 465.048H125.158L120.905 459.253L154.635 428.646L181.653 384.25L192.21 346.885ZM364.673 487.265L368.906 484.07L381.069 481.057L384.95 484.601L391.471 509.422L393.765 522.889L392.001 548.059L381.951 589.014L374.545 607.089L362.556 622.689L347.921 632.79L348.978 625.702L361.322 605.316L368.551 583.867L375.068 554.972L377.363 534.411L374.189 511.367L365.022 494.88L364.673 487.265ZM272.353 153.251L284.671 154.333L291.449 169.801L286.261 181.062L269.223 178.959L266.484 162.99L272.353 153.251ZM310.712 137.714L320.834 132.752L324.873 134.163L326.328 139.418V144.34L323.461 152.638L313.487 161.654L295.981 165.676L294.724 160.82L300.955 158.865L309.491 150.462L310.712 137.714Z" fill="#E6180A"/>
<path d="M190.166 144.673C190.166 148.58 187.2 151.745 183.54 151.745C179.879 151.745 176.917 148.58 176.917 144.673C176.917 140.767 179.879 137.602 183.54 137.602C187.2 137.602 190.166 140.767 190.166 144.673Z" fill="#FF009C"/>
<path d="M205.647 180.522C205.647 184.148 202.559 187.085 198.751 187.085C194.942 187.085 191.854 184.145 191.854 180.522C191.854 176.899 194.942 173.961 198.751 173.961C202.559 173.961 205.647 176.895 205.647 180.522Z" fill="#00FF0A"/>
<path d="M240.243 234.116C240.243 237.894 236.892 240.96 232.764 240.96C228.63 240.96 225.285 237.894 225.285 234.116C225.285 230.338 228.633 227.275 232.764 227.275C236.892 227.275 240.243 230.334 240.243 234.116Z" fill="#FF9E00"/>
<path d="M267.979 252.528C267.979 256.691 264.697 260.064 260.651 260.064C256.606 260.064 253.321 256.691 253.321 252.528C253.321 248.364 256.603 244.991 260.651 244.991C264.697 244.991 267.979 248.364 267.979 252.528Z" fill="#0072FF"/>
<path d="M297.239 261.811C297.239 266.403 293.911 270.122 289.813 270.122C285.711 270.122 282.387 266.4 282.387 261.811C282.387 257.222 285.711 253.5 289.813 253.5C293.914 253.504 297.239 257.222 297.239 261.811Z" fill="#FFFF00"/>
<path d="M220.512 211.477C221.585 213.248 220.594 215.809 218.297 217.207C216.003 218.605 213.267 218.301 212.194 216.534C211.121 214.764 212.112 212.203 214.406 210.805C216.704 209.407 219.436 209.71 220.512 211.477ZM238.307 199.583C238.307 201.235 237.152 202.57 235.73 202.57C234.308 202.57 233.149 201.235 233.149 199.583C233.149 197.931 234.308 196.593 235.73 196.593C237.152 196.593 238.307 197.931 238.307 199.583ZM201.71 228.211C202.019 228.564 201.776 229.279 201.081 230.071C200.387 230.862 199.35 231.6 198.382 231.996C197.418 232.391 196.68 232.375 196.466 231.953C196.157 231.6 196.397 230.885 197.095 230.094C197.789 229.302 198.826 228.561 199.791 228.168C200.755 227.776 201.493 227.793 201.71 228.211ZM146.909 264.287L159.053 252.943L164.721 258.683L152.581 270.023L146.909 264.287ZM121.968 282.969L139.664 268.615L144.711 274.47L127.014 288.827L121.968 282.969ZM116.389 292.632C116.981 293.298 117.024 294.353 116.504 295.378C115.984 296.403 114.986 297.227 113.903 297.521C112.824 297.817 111.836 297.541 111.336 296.796C110.747 296.13 110.704 295.075 111.224 294.049C111.741 293.024 112.741 292.2 113.821 291.907C114.901 291.613 115.888 291.887 116.389 292.632ZM114.575 478.618L119.249 476.93L126 480.546L132.103 486.269L132.169 492.342L119.131 499.159L112.597 494.801L113.245 481.756L114.575 478.618ZM185.001 283.289C179.955 350.317 177.736 337.503 189.465 351.181C178.372 393.992 183.174 386.192 169.3 392.508C137.604 380.505 143.209 385.344 141.6 371.719C153.977 310.912 148.631 330.873 163.937 287.268C167.259 281.858 180.041 275.753 185.001 283.289ZM307.186 527.976L348.461 518.468L359.163 513.859L366.948 513.114L368.982 516.886L369.166 535.518L365.878 538.64L307.601 543.246L301.63 542.178L301.215 534.21L307.186 527.976Z" fill="#E6180A"/>
<path d="M388.87 277.741L398.433 282.893L406.083 288.636C405.605 279.824 396.751 275.403 388.87 277.741ZM383.771 284.796H380.582C381.187 293.212 392.343 298.441 399.71 299.538C399.697 295.365 399.516 288.138 396.343 285.063C393.245 282.066 384.792 278.525 383.771 284.796ZM384.976 285.251C385.5 284.298 388.436 281.004 391.751 284.133C390.645 284.423 386.879 285.679 386.221 291.208C384.436 290.832 384.124 287.051 384.976 285.251ZM397.534 296.782C397.047 297.274 391.951 296.845 387.613 292.424C393.778 291.181 393.765 286.53 393.759 285.893C396.83 288.148 398.811 295.497 397.534 296.782Z" fill="black"/>
<path d="M396.52 262.358C396.994 258.627 399.15 253.909 397.798 250.181C393.11 237.248 370.131 245.681 362.734 250.045C344.791 260.634 332.753 283.233 335.696 304.032C336.101 306.903 335.317 309.501 336.423 312.363C341.377 325.19 358.751 323.931 369.749 322.727C394.17 320.054 422.426 292.609 415.01 266.849C407.288 261.702 402.149 262.358 396.52 262.358ZM362.481 257.674C363.705 256.438 364.396 256.424 367.754 258.399C366.339 258.195 362.757 260.321 362.602 262.774C362.602 262.774 361.822 261.076 361.71 260.193C361.556 258.976 361.128 259.032 362.481 257.674ZM368.86 259.731C373.008 264.485 375.019 281.756 363.142 264.429C364.953 265.035 368.725 263.15 368.86 259.731ZM406.254 296.331C385.391 324.461 337.25 334.632 337.23 301.46C337.22 289.029 340.374 280.497 346.98 270.053C364.196 242.829 354.732 269.229 370.381 273.9L363.366 280.952C370.006 279.805 378.613 275.862 381.494 269.413C384.446 262.797 378.35 251.466 371.016 250.823C372.688 256.87 384.818 268.131 373.564 271.975C373.564 264.05 372.29 255.544 362.728 255.31C365.522 245.977 389.496 242.634 395.408 250.401C398.403 254.334 392.462 260.15 396.162 263.235C401.471 267.666 411.814 262.078 414.641 271.975C417.094 280.536 411.017 289.909 406.254 296.331Z" fill="black"/>
<path d="M374.844 302.1C368.646 301.16 362.306 294.481 358.271 289.922C356.812 288.274 355.081 283.925 352.533 283.925C345.341 283.925 346.634 298.474 349.663 301.961C354.979 308.083 367.836 306.616 374.844 305.311L370.384 312.363C381.744 310.579 377.396 300.221 374.209 293.133C371.019 296.186 373.923 298.652 374.844 302.1ZM352.533 286.718L367.194 303.382C359.1 303.382 345.63 296.97 352.533 286.718ZM300.896 145.056L303.444 149.543C307.614 146.981 305.356 142.929 300.896 145.056ZM343.606 289.279L351.256 279.026C345.94 279.382 342.316 283.942 343.606 289.279ZM372.932 291.204C372.613 287.027 368.873 285.435 365.282 284.149C364.647 288.422 369.107 290.786 372.932 291.204ZM311.732 339.277C315.557 355.816 334.656 364.397 349.347 367.968C355.094 369.366 364.864 370.434 369.11 365.558C356.088 362.169 344.202 362.317 332.138 354.913C325.762 351 319.056 339.92 311.732 339.277ZM354.024 340.727C356.598 337.892 342.21 333.593 340.252 335.453C338.747 336.88 341.331 338.769 342.332 339.356C345.025 340.932 351.263 343.77 354.024 340.727Z" fill="black"/>
<path d="M466.861 213.65C465.041 208.972 460.959 205.296 459.244 200.862C458.375 198.62 460.696 196.088 460.837 193.781C461.338 185.615 456.443 177.864 447.519 178.646C438.279 179.457 431.959 190.758 437.147 198.907C440.527 204.225 446.742 205.758 452.618 204.676C452.466 222.683 432.377 232.431 416.281 230.038C407.041 228.663 399.921 223.5 390.144 223.929C379.871 224.381 365.572 231.231 361.75 229.032C353.136 224.071 356.858 213.795 357.629 206.595C380.526 222.765 388.423 189.861 371.658 185.743C366.78 184.543 361.029 186.498 358.043 190.6C356.664 192.495 356.585 195.528 354.748 197.021C351.121 199.969 345.186 200.321 341.183 203.513C332.671 210.297 329.866 223.906 330.959 234.159C332.552 249.119 339.718 250.51 337.73 255.844C335.202 262.616 329.373 268.625 326.268 275.291C323.869 280.437 324.224 286.906 321.647 291.725C319.069 296.552 311.663 295.038 314.273 309.152C305.346 307.042 294.108 313.467 296.422 323.255C292.565 320.568 287.64 316.787 283.035 315.643C258.95 309.676 232.632 336.356 210.996 335.426C207.806 335.288 203.165 333.6 200.337 335.446C195.475 338.614 202.694 343.015 203.981 345.405C207.177 351.329 186.357 340.853 184.218 336.508C182.016 332.04 188.642 280.939 187.983 272.601C187.796 270.261 186.41 267.946 187.529 265.658C189.149 262.352 192.375 259.78 194.188 256.467C196.687 251.915 197.539 246.729 201.229 242.872C205.275 238.639 213.126 234.808 215.897 229.487C217.138 227.1 214.864 224.905 215.831 222.736C216.895 220.362 216.592 222.943 239.038 205.135C240.927 203.635 243.781 199.108 246.375 201.686C251.412 206.684 248.248 225.287 241.408 227.733C237.774 229.036 234.209 223.856 229.485 225.811C226.138 227.196 224.416 230.651 224.387 234.145C224.284 246.561 244.469 244.497 240.96 232.22C256.076 228.066 252.936 208.524 256.392 196.969C256.497 196.616 266.303 177.591 271.076 184.293C273.499 187.698 270.727 198.891 270.922 203.377C271.405 214.448 274.783 224.542 270.54 235.428C269.588 237.864 268.716 241.837 266.326 243.188C264.631 245.001 259.252 243.956 255.865 245.542C249.545 250.052 250.99 264.488 263.558 260.028C270.332 257.624 266.685 253.019 269.924 248.74C273.298 244.279 278.687 241.523 281.761 236.717C288.717 225.841 285.175 213.007 283.038 201.462C282.413 198.076 280.912 184.929 286.837 184.929C289.082 184.929 290.043 188.256 290.655 189.924C297.374 208.204 303.503 234.221 292.374 250.177C289.688 254.028 283.812 252.132 281.758 257.242C279.539 262.757 282.179 268.995 288.137 270.353C294.517 271.803 299.224 266.532 298.947 260.443C298.845 258.185 297.051 255.475 298.164 253.391C299.955 250.042 303.361 247.893 305.106 244.415C310.768 233.156 311.666 217.148 307.453 205.316C304.115 195.95 288.749 184.804 291.896 174.548C294.503 166.049 304.431 167.556 311.077 164.038C326.134 156.07 329.666 145.109 324.484 130.432C324.122 127.867 327.259 125.365 325.722 122.727C324.346 120.36 321.272 120.706 319.85 122.727C316.986 126.795 322.197 129.657 317.032 133.649C313.809 136.142 309.626 135.222 305.988 136.54C304.296 137.154 303.095 139.023 301.36 139.366C298.625 139.91 296.202 137.846 293.575 139.939C289.454 143.226 290.698 152.622 283.038 153.4C265.461 155.187 276.643 134.19 247.336 127.264C236.915 124.801 225.17 127.656 218.629 136.834C214.834 142.165 213.086 155.177 204.623 154.887C201.318 154.771 192.97 152.134 191.644 148.771C190.001 144.614 192.753 140.546 187.983 137.375C183.513 134.404 176.785 136.435 175.547 141.868C174.382 146.981 176.578 152.635 182.312 153.265C184.626 153.518 187.078 152.081 189.218 153.182C194.995 156.159 199.33 161.516 206.542 160.148C215.933 158.368 218.646 145.695 225.667 140.124C237.099 131.048 266.32 144.255 267.534 151.474C268.245 155.697 259.45 152.988 257.544 152.76C246.915 151.488 234.594 154.494 229.008 164.308C224.966 171.403 227.971 179.048 218.017 182.054C203.102 186.561 209.699 174.874 202.065 172.412C194.537 169.982 188.26 175.85 190.502 182.892C193.816 193.313 201.97 185.608 208.448 186.442C214.712 187.25 220.555 189.106 226.273 184.547C233.465 178.817 232.027 170.055 242.237 166.445C246.457 164.951 259.647 161.368 261.586 167.516C263.117 172.375 259.236 171.897 235.223 192.258C233.215 193.962 223.646 201.452 220.989 203.513C213.372 209.424 205.087 220.108 196.098 223.583C192.533 224.961 186.262 214.936 182.967 223.256C177.67 221.73 173.658 224.123 173.404 229.665C167.469 229.685 159.984 234.218 156.663 239.305C153.331 244.405 159.013 250.042 154.912 254.71C139.967 271.714 107.712 286.84 109.348 296.321C111.428 308.354 133.9 282.659 149.816 272.875C151.472 271.856 155.425 267.455 157.384 267.874C159.563 268.342 163.98 279.389 164.411 281.585C165.162 285.425 160.642 291.415 159.382 295.045C155.102 307.352 150.405 319.668 147.002 332.222C143.417 345.445 143.315 360.451 138.469 373.246C136.017 379.724 130.81 384.926 127.738 391.19C114.627 417.929 111.8 441.342 113.472 460.417C113.65 462.428 116.026 463.779 115.99 465.546C115.951 467.468 112.402 467.956 111.846 470.073C111.125 472.809 113.245 475.163 113.199 477.724C113.028 487.575 108.712 499.206 114.746 508.492C119.084 515.175 136.962 506.353 139.612 501.114C141.037 498.299 139.016 495.526 137.907 493.107C134.519 485.722 128.657 481.756 122.396 476.936C120.609 475.558 119.312 469.156 120.951 467.221C122.376 465.536 125.125 466.819 126.863 467.181C131.402 468.128 161.64 468.899 186.789 459.349C191.176 457.684 199.047 455.709 201.45 451.45C187.812 452.089 175.643 461.429 161.288 459.141C161.508 459.18 171.538 448.994 171.538 448.994C176.051 443.277 190.824 425.805 194.162 419.399C196.506 414.903 198.81 407.258 202.572 403.76C204.778 401.709 210.64 402.553 213.563 401.963C246.56 395.317 232.349 380.782 245.44 377.518C254.368 375.293 260.454 389.67 248.63 395.053C245.098 396.662 241.461 394.806 237.79 397.015C224.568 404.97 217.635 431.419 220.578 435.032C222.991 437.993 234.762 434.116 237.79 433.077C245.549 430.417 255.888 427.176 261.652 420.975C263.63 418.846 263.288 415.615 264.21 412.994C270.016 396.507 290.287 407.482 279.803 418.763C270.902 428.33 262.988 409.865 253.518 457.222C253.038 459.619 251.82 466.347 254.117 468.121C257.537 470.765 275.132 462.273 280.135 459.21C285.902 455.679 290.201 451.453 295.172 446.966C287.522 461.511 281.136 476.861 274.332 491.834C271.916 497.148 269.812 506.824 265.526 510.803C259.822 516.101 243.301 495.922 238.436 503.58C234.607 509.603 247.975 517.934 251.184 521.323C240.397 520.855 213.738 515.788 208.471 521.194C205.94 523.789 208.125 526.271 211.019 526.911C218.84 528.645 227.912 530.138 235.881 530.936C235.881 533.504 222.491 531.335 215.482 532.598C205.15 534.454 206.7 540.764 214.205 541.713C222.695 542.781 231.816 542.468 240.345 542.468C240.345 545.653 242.261 541.495 215.479 548.089C212.931 548.715 207.095 550.578 210.13 554.29C215.101 560.376 235.052 552.955 246.079 552.724C241.981 558.147 233.689 559.535 228.867 564.902C220.647 574.053 235.364 570.427 239.703 568.106C235.996 579.078 227.398 593.385 227.909 596.952C228.218 599.118 230.14 598.235 231.079 596.952C233.126 593.639 234.439 589.581 235.878 586.05H236.516C237.313 580.7 241.375 568.419 246.076 565.535C236.161 588.328 237.435 586.05 236.516 586.05L235.239 592.462C238.781 591.882 241.655 586.165 243.748 580.66C243.07 582.777 242.853 584.606 243.883 585.295C245.454 586.343 246.724 583.208 247.168 582.206C249.315 577.353 251.813 572.474 253.726 567.457H254.364C258.614 558.048 258.4 558.051 255 567.457C254.107 567.457 255.019 565.386 249.897 581.56C257.235 579.371 257.847 565.113 262.649 559.762L263.285 557.84C263.285 560.145 263.499 559.762 262.649 559.762L256.273 577.077C261.372 576.658 263.739 567.457 265.197 562.977C266.102 562.977 266.303 561.368 262.649 573.872C267.264 573.117 269.147 566.389 270.299 562.334H270.935C275.191 553.766 274.97 553.792 271.57 562.327C270.665 562.337 271.211 561.127 269.022 570.668C273.166 570.028 274.23 565.261 275.398 561.688H276.034C278.134 557.465 279.329 554.982 279.714 554.244L279.78 554.227C279.506 554.929 278.46 557.376 276.675 561.688H276.034C273.657 569.382 278.588 566.415 280.5 561.051C281.392 561.051 280.751 561.829 283.687 555.915C281.485 561.819 282.028 561.041 281.139 561.051V564.899C285.162 564.259 286.241 560.046 287.515 556.565C288.368 556.565 287.946 556.983 289.428 553.996C288.667 557.076 289.006 556.565 288.154 556.565L287.515 562.334C291.034 561.724 291.87 558.49 292.617 555.282C293.49 555.282 292.923 556.067 295.659 549.856C293.608 556.073 294.128 555.276 293.256 555.282L292.621 559.769C296.712 559.439 297.97 555.668 298.997 552.074C299.846 552.074 299.322 552.701 301.544 548.224C300.057 552.727 300.481 552.074 299.632 552.074L298.997 557.847C302.101 557.29 302.986 554.148 304.099 551.438C304.889 551.438 304.596 551.847 305.748 548.896L305.866 548.966C305.31 551.88 305.524 551.425 304.734 551.435V555.279C308.559 554.646 309.649 551.082 310.472 547.588H311.107C309.622 556.133 314.181 549.131 316.966 547.973C319.514 546.915 323.596 547.301 326.407 546.945C326.407 573.599 324.28 598.551 332.658 624.503C333.714 627.78 335.653 630.776 336.483 634.119C337.668 638.886 334.61 645.75 341.697 646.297C341.246 656.968 340.848 667.294 347.809 676.422C352.721 682.857 366.546 675.334 369.525 670.013C375.002 660.225 364.558 651.394 356.997 646.079C354.317 644.197 347.273 639.957 348.919 635.537C350.634 630.915 357.359 631.864 374.179 615.991C398.295 593.227 422.666 543.684 422.666 502.08C422.666 485.195 423.061 479.745 420.237 480.286C417.232 480.859 420.408 485.228 417.492 505.927C410.178 557.88 399.318 561.714 391.435 582.846C388.831 582.846 405.234 550.044 395.135 500.158C392.83 488.775 385.793 474.876 383.014 473.874C381.168 473.208 378.949 474.032 355.091 484.123C355.091 484.97 355.473 484.756 353.178 484.756L355.091 484.123C360.805 479.188 374.973 469.674 374.795 461.06C374.69 455.927 369.775 452.083 370.519 446.31C371.016 442.463 375.269 438.596 379.308 438.945C380.865 439.077 382.103 439.967 383.314 440.884C391.902 447.398 382.698 452.749 382.682 459.767C382.665 466.202 386.369 475.163 389.479 480.728C391.451 484.252 396.027 494.257 401.336 492.091C404.18 490.928 405.711 486.711 406.935 484.15C410.316 477.081 414.865 468.556 413.545 460.407C412.65 454.868 403.499 448.291 412.857 443.742C415.991 442.219 419.181 445.196 419.684 448.226C420.905 455.554 406.84 462.527 432.492 482.673C434.78 484.473 448.454 493.436 450.192 487.179C451.525 482.392 429.773 448.565 424.862 420.662C421.995 404.363 426.6 385.73 404.792 371.419C401.478 369.244 396.81 367.783 394.229 364.651C392.323 362.337 394.364 359.162 394.542 356.561C395.013 349.665 392.491 343.111 395.625 336.221C396.744 333.758 401.451 331.899 403.532 330.28C407.88 326.898 411.294 323.004 416.916 322.266C426.251 321.043 435.303 332.733 436.044 341.172C407.182 341.238 425.748 379.246 442.924 363.705C448.809 358.381 444.049 353.04 444.803 346.942C445.109 344.462 447.371 342.692 448.441 340.533C457.308 322.632 442.726 310.731 443.227 297.59C443.691 285.455 459.33 274.292 464.534 263.615C471.792 248.743 472.931 229.27 466.861 213.65ZM235.206 240.136C227.412 242.519 222.313 230.301 230.131 228.02C239.054 225.416 243.887 237.482 235.206 240.136ZM261.899 258.976C252.439 261.053 250.25 248.331 259.456 246C268.858 243.623 269.223 257.367 261.899 258.976ZM293.187 267.551C284.546 271.19 279.648 258.142 287.505 255.05C295.922 251.74 300.409 264.511 293.187 267.551ZM184.869 151.329C176.439 152.523 174.672 139.349 182.957 138.265C190.712 137.249 192.76 150.212 184.869 151.329ZM312.93 138.225C314.645 135.614 322.282 132.004 324.336 135.495C331.091 146.974 316.762 161.2 306.627 162.449C303.444 162.841 297.706 165.462 296.432 161.084C302.729 160.445 310.264 152.955 312.005 146.984C312.756 144.413 311.39 140.566 312.93 138.225ZM295.155 151.887C294.928 152.117 293.931 152.655 293.516 152.496C293.101 152.338 292.528 147.832 292.528 147.832C292.528 147.832 295.386 151.652 295.155 151.887ZM291.969 148.903C291.755 150.858 292.614 154.765 295.445 152.473C296.613 151.527 290.866 145.679 294.266 142.24C296.179 140.309 299.24 142.069 301.535 141.743C303.733 141.426 305.998 138.802 308.342 139.718C315.291 142.435 302.377 162.152 291.969 160.26C284.79 158.958 287.476 151.613 291.969 148.903ZM268.384 166.217C269.137 161.974 274.427 166.204 275.978 163.474C277.426 160.916 272.37 155.691 277.307 154.511C284.76 152.73 291.264 168.185 288.947 173.902C286.988 178.731 283.802 174.845 280.497 175.662C278.581 176.137 277.946 178.412 275.997 178.791C274.76 179.031 273.364 178.435 273.324 177.109C273.249 174.406 277.489 173.572 276.373 170.72C275.194 167.717 267.745 169.807 268.384 166.217ZM199.531 186.574C191.696 187.834 188.859 176.272 196.983 174.762C205.173 173.239 208.57 185.124 199.531 186.574ZM235.229 196.81C238.419 195.861 239.417 201.488 236.414 202.263C233.021 203.143 231.994 197.776 235.229 196.81ZM131.692 489.912C131.007 494.053 127.636 492.025 125.273 493.585C123.969 494.445 123.449 496.166 122.057 496.96C113.818 501.668 110.118 481.647 116.221 478.763C121.073 476.472 132.584 484.535 131.692 489.912ZM216.743 210.752C222.869 209.592 221.73 217.082 216.105 217.939C209.942 218.875 212.25 211.603 216.743 210.752ZM201.443 228.389C200.969 231.037 199.485 231.36 196.983 231.594C197.447 228.798 198.784 228.475 201.443 228.389ZM186.97 224.354C192.457 222.37 194.557 239.278 190.495 239.974C186.976 240.581 182.95 225.805 186.97 224.354ZM177.052 228.564C179.701 223.059 183.375 231.564 183.566 238.642C183.635 241.207 183.592 243.778 183.592 246.333C178.49 245.476 174.892 233.051 177.052 228.564ZM169.171 233.354C171.202 232.751 172.272 235.217 172.73 236.72C178.576 255.851 171.594 256.757 169.191 250.82C167.986 247.846 164.392 234.775 169.171 233.354ZM159.369 240.745C161.916 236.72 164.467 241.992 164.915 244.411C165.847 252.61 165.603 253.902 165.109 256.589C160.642 255.116 156.636 245.051 159.369 240.745ZM113.466 297.247C109.884 297.587 110.835 292.451 114.101 292.24C118.294 291.973 116.866 296.927 113.466 297.247ZM138.328 279.389C132.103 284.529 130.454 285.221 126.856 287.997C119.582 283.345 132.949 272.901 138.328 271.639C145.237 270.017 140.346 277.721 138.328 279.389ZM152.469 268.128C150.448 268.128 147.927 265.256 148.904 263.328C149.948 261.267 156.692 255.017 158.855 254.667C161.12 254.301 162.548 257.377 161.923 259.177C161.067 262.121 155.659 267.884 152.469 268.128ZM162.901 270.692C162.17 268.784 160.669 266.529 160.962 264.393C161.261 262.204 166.054 257.034 168.292 256.978C170.192 256.932 171.354 258.643 173.362 257.924C176.726 256.721 175.949 252.815 178.003 250.573C181.255 247.019 185.11 250.049 186.143 243.126C197.276 244.464 199.952 228.389 211.644 227.107C209.919 232.876 202.74 235.279 199.073 239.4C194.827 244.167 193.52 251.763 189.333 257.047C186.989 260.008 181.39 261.491 179.718 263.984C178.507 265.787 182.312 266.591 183.214 267.488C185.153 269.423 184.254 273.712 182.595 275.456C180.274 277.896 170.205 282.231 167.209 279.91C164.671 277.942 163.987 273.528 162.901 270.692ZM146.373 388.865C148.305 387.006 152.759 387.613 153.239 390.593C154.365 397.602 148.354 391.846 136.34 439.911C135.457 443.432 132.32 447.454 128.765 446.32C125.474 445.272 138.377 396.573 146.373 388.865ZM159.658 454.38C152.173 460.806 144.296 463.631 134.5 463.631C132.482 463.631 126.886 464.59 125.997 462.151C124.927 459.21 146.541 441.362 153.249 434.145C178.888 406.559 193.102 365.802 193.151 348.254C195.663 348.26 208.139 355.219 207.145 368.073C197.905 404.871 182.193 435.032 159.658 454.38ZM204.633 348.893C208.451 349.935 211.526 354.224 215.469 354.662C221.842 355.371 228.238 347.634 234.871 354.501C236.757 356.456 236.033 359.571 234.877 361.714C229.838 371.05 223.123 364.47 216.746 368.888C213.142 371.386 211.891 377.096 207.819 378.379L211.009 359.149L204.633 348.893ZM294.444 436.71C292.123 419.666 317.72 421.944 311.732 435.425C310.027 439.265 303.049 443.172 298.983 443.97C295.488 444.655 294.793 439.272 294.444 436.71ZM290.695 520.68C287.732 518.211 287.564 518.396 290.06 519.398C303.546 490.169 299.915 497.531 306.633 485.422L290.695 520.68ZM311.732 484.143C308.994 497.02 300.139 510.681 294.52 522.602C293.615 522.602 292.364 526.021 306.387 494.399L311.732 484.143ZM291.969 504.543C301.844 481.703 300.382 484.783 302.173 484.783C289.783 511.766 280.092 532.011 291.969 504.543ZM284.957 498.882C299.401 470.05 295.241 471.962 298.345 471.962C284.427 504.592 289.25 493.792 279.217 514.908C278.581 509.989 282.791 503.204 284.957 498.882ZM274.121 513.629C292.986 469.631 287.617 482.135 298.345 457.222C298.345 457.222 282.811 507.905 274.121 513.629ZM298.983 479.013C298.509 488.119 291.07 499.004 287.222 507.22C274.658 534.028 287.127 494.778 298.983 479.013ZM298.345 448.888C287.354 476.33 293.48 461.963 270.296 514.268C266.59 514.268 289.635 459.724 298.345 448.888ZM247.978 571.96H247.343C247.037 573.124 245.608 575.863 244.506 578.583C247.155 571.06 246.309 571.96 247.343 571.96C253.248 560.082 253.12 559.901 247.978 571.96ZM267.106 561.701C266.264 561.701 266.237 562.614 267.702 556.736C268.077 556.673 268.463 556.614 268.825 556.551C269.16 556.693 268.647 557.573 267.106 561.701ZM286.235 552.727C283.568 556.301 283.786 556.185 286.235 552.088V552.727ZM290.06 553.37C289.22 553.37 289.069 554.046 291.156 549.872L291.215 549.869L290.06 553.37ZM298.345 530.933C295.685 533.992 296.788 540.958 294.138 543.111C285.919 549.78 271.106 549.48 261.369 553.067C250.796 556.96 242.188 566.329 230.769 568.11C234.459 561.058 248.785 561.163 250.691 552.754C252.659 544.057 226.046 555.414 211.644 552.727C211.644 551.811 207.645 552.965 246.708 544.396C244.469 537.342 238.824 539.758 233.294 539.91C219.459 540.286 209.732 538.792 209.732 537.345C221.967 532.123 241.207 537.071 244.157 533.128C246.527 529.96 238.61 529.097 237.145 528.638C228.778 526.001 219.166 524.527 210.367 524.527C211.611 520.97 215.591 522.355 218.659 522.124C231.846 521.145 254.206 529.011 254.97 521.323C255.454 516.47 241.573 513.305 240.97 505.298L263.281 516.197C289.293 522.352 281.485 518.999 298.345 530.297V530.933ZM297.706 525.167C313.898 488.201 329.517 455.429 312.924 493.113C297.189 528.853 298.631 525.167 297.706 525.167ZM303.444 523.242C302.808 518.517 307.249 512.086 309.342 507.859C317.167 492.062 326.413 468.843 330.222 465.553C302.088 527.646 304.435 523.242 303.444 523.242ZM309.181 521.959C307.706 516.774 326.858 485.373 336.407 459.141C338.273 454.011 332.806 448.308 334.547 442.473C336.124 437.178 342.763 433.473 347.885 436.249C353.165 439.114 352.164 445.694 348.573 449.518C346.058 452.195 341.963 453.029 339.781 456.045C334.662 463.127 321.143 500.142 309.181 521.959ZM314.919 520.68H314.283C316.515 508.074 325.357 494.511 330.663 482.861C333.823 475.921 336.19 466.984 341.058 461.066C332.566 482.861 338.191 469.911 314.919 520.68ZM319.382 519.398C336.384 480.935 331.436 491.673 341.693 470.683C340.42 482.425 331.061 496.479 326.196 507.22C324.458 511.06 322.96 517.044 319.382 519.398ZM325.166 519.028C325.64 510.629 331.957 505.766 342.335 475.812C344.149 485.821 328.974 504.174 326.397 518.758L326.466 518.752C325.923 518.89 325.498 518.982 325.166 519.028ZM330.222 517.472C331.779 506.897 339.534 493.36 344.883 484.143C344.883 484.143 345.462 484.611 346.236 485.185C346.2 485.27 346.17 485.34 346.141 485.422H345.522C329.406 520.65 331.144 517.472 330.222 517.472ZM352.533 647.006C354.943 647.431 365.397 656.25 363.893 658.716C362.461 661.056 357.339 659.105 350.621 666.825C346.796 663.384 342.967 645.318 352.533 647.006ZM362.04 605.29C370.009 584.797 376.464 562.614 377.978 540.549C380.47 504.259 366.312 503.119 365.042 489.283C364.617 484.654 376.503 482.254 379.947 482.557C384.255 482.933 385.21 488.462 386.25 491.831C389.315 501.754 391.161 511.7 392.235 521.959C394.848 546.958 379.377 593.128 377.629 597.595C375.881 602.062 362.902 622.66 349.34 629.003C350.812 620.883 358.929 613.287 362.04 605.29ZM441.347 295.062C439.099 309.656 454.557 321.857 446.709 339.929C445.787 342.056 443.605 343.299 443.22 345.712C442.206 352.107 446.739 358.239 439.79 363.263C432.703 368.39 421.59 360.438 423.565 352.107C424.296 349.035 426.613 345.564 429.671 344.565C432.453 343.658 443.003 344.443 435.333 331.595C430.886 324.145 424.065 318.666 415.007 319.909C410.971 320.463 407.91 323.608 404.806 325.981C401.629 328.414 396.826 330.692 394.358 333.775C389.657 339.646 392.017 348.91 392.044 355.318C392.057 358.335 389.72 362.037 390.599 364.932C391.872 369.125 399.447 371.775 402.9 373.908C427.617 389.182 420.142 414.339 425.794 434.159C432.153 456.477 446.726 481.707 448.158 486.701C436.044 484.351 422.551 474.279 419.335 461.706C417.531 454.651 427.367 445.473 416.281 440.894C410.862 438.652 406.445 446.333 406.451 450.81C406.458 455.495 410.326 457.572 411.452 461.709C413.216 468.194 407.406 477.985 404.546 483.5C403.545 485.432 402.215 488.959 399.707 489.322C394.361 490.087 384.726 465.833 385.24 460.423C385.513 457.559 387.804 455.442 388.548 452.732C390.375 446.063 387.929 439.275 381.214 436.803C376.503 435.072 370.427 439.315 368.969 443.765C366.628 450.926 373.06 455.66 372.168 461.712C370.845 470.686 356.223 479.32 349.979 484.786H349.34C343.764 479.778 344.297 472.601 343.336 465.556C342.987 462.991 342.088 458.64 343.603 456.319C347.214 450.78 355.081 449.973 353.504 441.197C351.825 431.884 340.423 430.674 334.932 437.379C329.59 443.907 335.265 450.602 332.319 457.226C327.552 467.943 316.199 476.076 307.907 483.507C307.907 483.507 304.678 483.48 304.046 482.841C299.793 478.535 299.214 468.563 299.806 462.995C300.307 458.284 298.687 450.81 300.649 446.508C302.315 442.859 309.813 441.86 312.684 438.823C319.162 431.97 311.064 420.847 302.808 422.113C296.571 423.069 291.584 429.856 292.091 436.077C292.328 439.001 294.632 442.608 292.973 445.364C285.935 457.028 267.567 463.829 254.996 466.202C254.996 454.664 258.65 434.947 267.439 426.669C272.113 422.264 279.329 426.042 283.684 418.77C292.104 404.709 267.584 391.687 262.014 412.361C261.497 414.273 262.044 416.868 260.938 418.364C256.194 424.78 245.447 427.394 238.429 430.038C235.753 431.047 225.265 434.65 223.129 431.844C221.019 429.075 224.982 422.106 226.023 419.416C238.567 387 248.791 404.024 255.816 393.135C261.415 384.458 254.242 371.522 243.531 375.224C235.246 378.089 237.165 385.898 232.418 390.909C224.739 399.016 210.551 400.183 200.179 400.183C201.377 390.567 211.216 375.514 219.416 370.444C222.069 368.805 224.808 370.388 227.593 369.751C233.333 368.439 238.403 361.279 236.888 355.338C235.447 349.678 227.366 347.594 222.494 349.549C220.552 350.327 218.87 352.569 216.756 352.796C214.58 353.031 212.945 350.37 211.598 349.084C208.037 345.685 202.253 342.567 201.456 337.361C210.709 337.361 219.317 337.388 228.149 334.154C242.481 328.909 256.757 318.9 272.222 316.968C282.703 315.659 288.572 325.18 298.358 325.18C298.312 323.001 297.476 320.238 298.216 318.155C300.794 310.909 311.699 314.532 315.185 309.794C316.989 307.348 315.705 304.095 316.755 301.464C318.135 298.002 321.97 296.852 323.582 293.773C326.012 289.144 325.781 283.207 327.904 278.387C331.183 270.95 337.898 263.651 340.107 255.953C341.578 250.827 336.229 244.81 334.692 239.928C331.529 229.883 332.385 219.686 337.674 210.446C342.372 202.243 348.932 202.797 355.713 198.432C360.993 195.037 364.179 184.497 372.932 188.945C379.677 192.37 379.818 203.595 372.932 207.037C366.977 210.01 363.383 204.347 358.271 205.319C349.143 207.063 354.452 225.267 358.04 229.477C363.672 236.087 375.358 227.872 390.783 226.58C398.433 225.94 404.18 230.911 411.182 232.573C425.975 236.087 449.932 229.688 453.898 213C454.543 210.284 455.824 205.936 453.618 203.661C451.64 201.617 448.74 202.385 446.248 201.881C441.12 200.846 437.259 195.795 438.17 190.56C439.737 181.583 451.722 178.649 456.838 186.073C460.482 191.364 455.705 196.171 456.986 201.455C458.029 205.771 464.333 206.925 467.631 225.815C470.459 242.024 466.249 257.865 457.029 271.325C451.871 278.885 442.825 285.468 441.347 295.062Z" fill="black"/>
<path d="M354.09 600.16C353.511 605.398 349.702 609.852 348.708 614.906C345.518 612.981 346.121 605.619 345.706 602.085C344.133 588.724 344.883 575.161 344.883 561.701C344.883 558.496 344.172 547.891 347.625 546.318C354.482 543.196 351.157 559.39 351.529 562.34C352.49 570.035 351.351 577.749 351.898 585.417C352.234 590.164 354.61 595.442 354.09 600.16ZM362.095 496.96C365.881 504.094 360.818 509.501 353.807 510.421C354.35 505.116 357.632 499.858 362.095 496.96Z" fill="white"/>
<path d="M146.528 357.227C149.079 339.408 154.447 321.979 159.27 304.668C161.929 295.124 164.434 282.445 175.939 280.523C185.896 278.858 182.276 294.442 181.568 300.821C180.449 310.902 179.757 320.832 179.069 330.949C178.832 334.444 177.239 338.419 177.532 341.848C178.026 347.611 182.648 347.195 184.474 351.019C186.808 355.899 181.268 386.043 172.687 388.433C169.737 389.254 166.591 387.787 163.819 386.99C156.794 384.979 145.359 383.584 144.263 374.538C143.614 369.178 145.764 362.564 146.528 357.227ZM157.93 545.633C151.775 559.159 164.211 576.767 164.296 589.752C174.145 581.356 195.495 579.345 201.72 565.851C204.656 559.492 202.082 552.031 196.055 549.266C189.995 546.486 182.717 549.364 179.823 555.744C182.73 549.338 180.182 541.937 174.158 539.158C168.108 536.362 160.83 539.257 157.93 545.633ZM211.513 629.514C203.774 631.561 196.038 633.605 188.299 635.652C190.913 634.831 192.724 632.477 194.485 630.463C198.329 625.498 201.842 620.111 204.024 614.174C205.097 611.26 206.075 607.976 205.337 604.844L211.513 629.514ZM188.303 635.655C191.683 634.877 195.126 636.249 198.161 637.66C203.715 640.247 208.728 643.969 213.287 648.12C215.018 649.877 216.997 651.703 217.691 654.186C215.631 645.964 213.573 637.742 211.516 629.517L188.303 635.655ZM217.691 654.186C216.885 650.484 218.201 646.699 219.607 643.343C221.993 637.64 225.397 632.385 229.304 627.651C230.865 625.97 232.481 624.031 234.723 623.375C226.984 625.422 219.251 627.47 211.513 629.514L217.691 654.186ZM234.723 623.375C231.342 624.153 227.899 622.785 224.867 621.374C219.314 618.789 214.301 615.061 209.742 610.914C208.01 609.156 206.032 607.327 205.337 604.844C207.395 613.07 209.455 621.288 211.513 629.514L234.723 623.375Z" fill="#E6180A"/>
<path d="M298.249 637.66C293.394 634.96 290.711 637.037 286.146 637.257C292.696 631.419 296.712 634.06 300.017 628.066C306.63 616.07 288.055 605.721 281.442 617.711C278.163 623.655 282.535 626.022 281.159 634.61C280.51 633.486 279.954 632.26 279.559 630.931C277.001 621.934 264.657 620.144 260.138 628.34C255.599 636.568 263.663 646.083 272.854 643.409C274.691 642.875 276.527 642.753 278.246 642.809C276.326 645.73 268.762 656.121 260.823 651.727L282.446 663.779C275.987 660.173 277.594 651.123 280.639 644.339C283.726 649.079 283.005 652.861 288.256 655.785C300.544 662.635 310.534 644.513 298.249 637.66ZM228.36 483.546C225.328 473.023 207.398 469.937 200.396 462.962C198.171 472.644 184.623 484.852 187.618 495.355C190.146 504.223 204.175 503.953 207.684 495.012C208.695 501.645 209.218 512.527 202.302 514.532L226.022 507.658C219.186 509.639 213.846 500.432 211.029 493.852C218.672 499.772 230.95 492.533 228.36 483.546Z" fill="black"/>
<path d="M367.777 518.758C368.146 522.918 369.9 533.811 366.286 536.794C363.129 539.399 356.345 538.199 352.477 538.706C340.65 540.259 328.141 540.885 316.199 541.199C312.565 541.291 307.088 543.144 303.651 541.442C298.875 539.079 304.721 530.181 307.907 529.063C319.573 524.969 332.928 524.6 344.883 520.752C354.054 517.802 366.842 508.169 367.777 518.758Z" fill="#E6180A"/>
</svg>
