<svg width="579" height="800" viewBox="0 0 579 800" fill="none" xmlns="http://www.w3.org/2000/svg">
<rect width="579" height="800" fill="#F5F5F5"/>
<path d="M554.723 0H30.5859C15.3453 0 3 12.3453 3 27.5859V772.414C3 787.655 15.3453 800 30.5859 800H554.723C569.964 800 582.309 787.655 582.309 772.414V27.5859C582.309 12.3453 569.966 0 554.723 0Z" fill="#E6EEF4"/>
<path d="M85.7594 151.723C116.233 151.723 140.931 127.023 140.931 96.5515C140.931 66.0796 116.231 41.3796 85.7594 41.3796C79.4187 41.3796 73.2219 42.4515 67.3562 44.5312C59.15 47.4203 52.0031 52.375 45.1656 59.2125C39.7797 64.5984 39.7797 73.3328 45.1656 78.7187C50.5516 84.1046 59.2859 84.1046 64.6719 78.7187C68.8156 74.575 72.6609 71.9093 76.5469 70.5406C79.4891 69.4968 82.5687 68.9656 85.7594 68.9656C100.997 68.9656 113.345 81.314 113.345 96.5515C113.345 111.789 100.997 124.137 85.7594 124.137H72.0078C64.3906 124.137 58.214 130.312 58.214 137.931C58.214 145.548 64.3891 151.725 72.0078 151.725L85.7594 151.723Z" fill="#D71E00"/>
<path d="M85.7625 234.48C116.236 234.48 140.934 209.78 140.934 179.308C140.934 148.836 116.234 124.136 85.7625 124.136H71.9688C64.3516 124.136 58.175 130.311 58.175 137.93C58.175 145.547 64.35 151.723 71.9688 151.723H85.7625C101 151.723 113.348 164.072 113.348 179.309C113.348 194.547 101 206.895 85.7625 206.895C78.25 206.895 71.0031 203.484 64.7156 197.197C59.3297 191.811 50.5953 191.811 45.2094 197.197C39.8234 202.583 39.8234 211.317 45.2094 216.703C56.3812 227.875 70.4172 234.48 85.7625 234.48Z" fill="#D71E00"/>
<path d="M293.437 371.967C308.292 334.133 339.726 303.002 379.188 303.002C412.403 303.002 442.002 318.616 461.948 344.381C486.968 376.713 504.651 448.684 449.893 503.444C422.113 531.222 293.437 661.622 293.437 661.622C293.437 661.622 164.76 531.222 136.982 503.442C82.2228 448.683 99.9056 376.711 124.928 344.38C144.873 318.614 174.473 303 207.687 303C247.148 303.002 278.582 334.133 293.437 371.967Z" fill="#D71E00"/>
</svg>
