<svg width="579" height="800" viewBox="0 0 579 800" fill="none" xmlns="http://www.w3.org/2000/svg">
<rect width="579" height="800" fill="#F5F5F5"/>
<path d="M550.723 0H26.5859C11.3453 0 -1 12.3453 -1 27.5859V772.414C-1 787.655 11.3453 800 26.5859 800H550.723C565.964 800 578.309 787.655 578.309 772.414V27.5859C578.309 12.3453 565.966 0 550.723 0Z" fill="#E6EEF4"/>
<path d="M16.6785 19.4996H27.7978V24.0686C24.8576 24.1881 22.6878 24.6929 21.3154 25.5961C19.9314 26.5059 19.2472 27.8805 19.2472 29.6935C19.2472 32.0045 20.4162 33.6181 22.7581 34.5345C25.0962 35.451 29.4867 35.896 35.9222 35.896H98.4154V28.0067H104.159V56.6489H98.4154V49.8022H35.5468C27.8954 49.8022 22.3124 48.348 18.7858 45.4326C15.267 42.5239 13.4999 37.855 13.4999 31.4532C13.4999 29.4676 13.7658 27.4953 14.2936 25.5229C14.8292 23.5373 15.6268 21.5384 16.6785 19.4996ZM32.3174 91.3213C32.3174 82.3296 35.5663 75.2835 42.0526 70.1766C48.539 65.0698 57.4842 62.5128 68.8852 62.5128C80.2861 62.5128 89.2353 65.0765 95.7412 70.1766C102.247 75.2768 105.5 82.3296 105.5 91.3213C105.5 100.359 102.255 107.432 95.7646 112.539C89.2822 117.653 80.3174 120.203 68.8852 120.203C57.4842 120.203 48.5351 117.633 42.0526 112.499C35.5624 107.366 32.3174 100.306 32.3174 91.3213ZM38.0609 91.3213C38.0609 95.9101 40.5942 99.3168 45.6574 101.528C50.7283 103.74 58.4695 104.849 68.8852 104.849C79.3321 104.849 87.0888 103.74 92.1598 101.528C97.223 99.3168 99.7565 95.9101 99.7565 91.3213C99.7565 86.7789 97.1996 83.412 92.0817 81.194C86.9716 78.9759 79.2383 77.8735 68.8813 77.8735C58.5556 77.8735 50.8379 78.9759 45.7278 81.194C40.6177 83.4054 38.0609 86.7789 38.0609 91.3213ZM33.6624 126.817H39.4057V133.664H98.4193V126.817H104.163V154.211H98.4193V147.364H72.709L98.4193 170.023V164.318H104.163V184.227H98.4193V177.082L76.6694 157.896L39.4057 184.055V189.281H33.6624L33.6624 171.158L67.8961 147.357H39.4057V154.204H33.6624V126.817ZM33.6624 190.569H39.4057V197.416H98.4193L98.4193 190.569H104.163L104.163 238.509H87.5464V233.529H97.6882V211.116H75.0861L75.0861 225.022H84.0042V230.003H59.6896V225.022H68.6076L68.6076 211.116H40.1407V234.153H50.2826V239.134H33.6663L33.6624 190.569ZM68.0408 282.126C67.6342 284.204 66.7114 285.971 65.2687 287.432C63.826 288.893 61.7422 290.155 59.0131 291.217L39.4019 298.96V304.499H33.6585V286.914L54.9548 278.327C59.3533 276.641 62.1526 275.22 63.3608 274.057C64.5689 272.895 65.1787 271.295 65.1787 269.243V267.012H39.3979V273.858H33.6546V246.465H39.3979V253.312H98.4116V246.465H104.155V276.999C104.155 283.228 102.505 288.03 99.213 291.41C95.921 294.79 91.2489 296.483 85.2005 296.483C80.282 296.483 76.3958 295.275 73.5495 292.891C70.6993 290.493 68.8658 286.914 68.0408 282.126ZM70.8049 267.018V271.713C70.8049 275.1 72.0051 277.716 74.4018 279.589C76.7907 281.442 80.2116 282.378 84.657 282.378C89.1024 282.378 92.5117 281.449 94.8732 279.589C97.2347 277.73 98.4154 275.1 98.4154 271.713V267.018H70.8049Z" fill="black"/>
<path d="M563.821 784L552.702 784V779.431C555.642 779.312 557.812 778.807 559.184 777.904C560.569 776.994 561.253 775.619 561.253 773.806C561.253 771.495 560.084 769.882 557.742 768.965C555.404 768.049 551.013 767.604 544.578 767.604L482.084 767.604V775.493H476.341V746.851H482.084V753.697L544.953 753.697C552.605 753.697 558.187 755.152 561.714 758.067C565.233 760.976 567 765.645 567 772.046C567 774.032 566.734 776.004 566.206 777.977C565.671 779.962 564.873 781.961 563.821 784ZM548.182 712.178C548.182 721.17 544.934 728.216 538.447 733.323C531.961 738.43 523.016 740.987 511.615 740.987C500.214 740.987 491.265 738.423 484.759 733.323C478.253 728.223 475 721.17 475 712.178C475 703.14 478.245 696.067 484.735 690.961C491.218 685.847 500.183 683.297 511.615 683.297C523.016 683.297 531.965 685.867 538.447 691C544.938 696.134 548.182 703.193 548.182 712.178ZM542.439 712.178C542.439 707.59 539.906 704.183 534.843 701.972C529.772 699.76 522.03 698.651 511.615 698.651C501.168 698.651 493.411 699.76 488.34 701.972C483.277 704.183 480.743 707.59 480.743 712.178C480.743 716.721 483.3 720.088 488.418 722.306C493.528 724.524 501.262 725.626 511.619 725.626C521.944 725.626 529.662 724.524 534.772 722.306C539.882 720.094 542.439 716.721 542.439 712.178ZM546.838 676.683H541.094V669.836L482.081 669.836V676.683L476.337 676.683V649.289H482.081V656.136L507.791 656.136L482.081 633.477V639.182H476.337V619.272H482.081V626.418L503.83 645.603L541.094 619.445V614.219H546.838V632.341L512.604 656.143H541.094V649.296H546.838V676.683ZM546.838 612.93H541.094V606.084H482.081V612.93H476.337L476.337 564.99H492.953L492.953 569.971H482.812V592.384H505.414V578.478H496.496V573.497H520.81V578.478H511.892V592.384H540.359V569.347H530.217V564.366H546.834L546.838 612.93ZM512.459 521.373C512.866 519.294 513.788 517.528 515.231 516.067C516.674 514.606 518.758 513.344 521.487 512.282L541.098 504.538V499H546.841V516.585L525.545 525.172C521.147 526.858 518.347 528.279 517.139 529.442C515.931 530.604 515.321 532.204 515.321 534.256V536.488H541.102V529.641H546.845V557.034H541.102V550.188H482.088V557.034H476.345V526.5C476.345 520.271 477.995 515.469 481.287 512.089C484.579 508.709 489.251 507.016 495.299 507.016C500.218 507.016 504.104 508.224 506.95 510.608C509.801 513.006 511.634 516.585 512.459 521.373ZM509.695 536.481V531.786C509.695 528.399 508.495 525.782 506.098 523.91C503.709 522.057 500.288 521.121 495.843 521.121C491.397 521.121 487.988 522.05 485.627 523.91C483.265 525.769 482.084 528.399 482.084 531.786V536.481H509.695Z" fill="black"/>
<g clip-path="url(#clip0_0_1)">
<path d="M346.925 647.576L344.571 652.149L347 668.042L353.33 666.941L365.878 658.403L351.931 645.054L346.925 647.576ZM465.947 216.587C459.811 206.724 456.763 200.783 457.405 196.893C457.99 193.352 462.21 188.839 453.392 181.821C448.161 177.657 425.876 183.897 441.167 202.415C455.403 204.202 453.504 201.136 450.416 216.367C429.037 238.346 417.019 231.35 397.173 226.293C372.761 222.169 367.432 237.218 356.688 227.77C347.293 195.792 362.514 208.089 367.373 210.053C378.354 205.369 375.655 208.728 378.499 195.657C372.814 186.551 375.675 188.737 366.603 186.248C359.117 189.736 361.803 187.286 354.93 197.651C338.662 204.752 329.666 207.485 331.361 236.628C339.518 253.945 338.333 249.66 338.188 256.454C325.226 276.669 328.794 268.316 321.996 292.447C313.059 300.185 314.936 296.423 314.396 308.387C311.746 315.04 295.896 305.097 296.551 324.56C271.304 309.382 264.836 315.999 229.917 332.199C211.54 337.114 218.067 336.379 201.283 335.964C198.949 337.134 194.778 335.881 212.962 353.571C219.756 353.153 216.283 353.858 228.709 350.143C230.941 351.597 242.627 354.587 229.371 367.859C222.672 368.017 215.378 365.357 201.628 389.746C199.647 393.257 199.123 397.819 197.54 402.853C227.801 397.279 220.042 399.989 233.229 391.335C245.145 365.021 253.134 377.983 255.8 387.131C249.467 398.063 253.562 395.479 238.288 397.648C224.976 410.904 229.328 403.486 219.68 431.538C226.049 437.581 246.626 429.586 260.873 419.683C262.515 411.013 264.036 398.917 280.916 406.506C283.809 414.398 284.185 410.976 279.043 420.903C261.528 426.128 263.647 422.538 253.437 454.901C253.437 470.402 251.225 467.867 261.975 466.196C282.921 456.204 282.512 457.763 294.02 444.936C287.335 416.103 309.327 425.564 309.659 425.666C313.909 432.5 318.218 434.485 297.878 445.269C298.392 481.031 297.523 473.426 300.742 483.134C305.597 484.45 308.267 489.609 332.681 458.112C332.477 439.763 330.95 435.135 345.565 434.304C359.341 442.595 347.083 450.853 340.387 456.115C341.075 466.631 340.479 481.143 349.199 486.236C371.537 467.234 366.53 472.73 372.775 461.432C368.95 448.895 364.032 442.074 378.831 437.294C389.569 446.017 389.121 443.254 382.242 459.662C388.328 480.527 384.937 473.656 396.452 490.117C397.594 490.09 406.317 493.595 412.087 461.323C404.76 449.264 405.504 450.382 410.438 442.496C417.861 442.364 415.583 440.976 419.912 448.588C415.62 462.622 413.236 472.862 446.453 488.458C450.245 485.336 450.568 495.141 424.316 429.547C421.67 405.085 422.825 413.406 419.356 392.779C408.407 375.069 414.49 381.263 391.498 365.98C391.755 342.6 391.142 349.506 393.917 334.859C419.514 317.417 416.153 317.552 431.914 329.212C437.644 344.06 437.921 342.234 429.708 342.392C421.867 346.82 423.961 343.79 421.123 355.355C429.685 370.332 433.461 366.55 441.272 363.214C447.223 347.835 438.609 351.929 446.891 340.183C454.646 315.57 435.123 308.878 443.514 288.699C451.565 278.328 456.062 272.862 460.219 267.983C472.76 239.341 468.218 228.976 465.947 216.587ZM399.832 305.832C373.838 322.464 383.292 318.788 358.4 323.179L342.593 319.909L335.16 309.28C335.753 285.63 333.583 294.178 343.64 271.797L354.268 256.016L371.501 246.389C371.501 246.389 376.751 245.806 378.841 245.489L388.976 244.817L396.175 250.583C394.362 260.835 394.513 258.205 395.254 262.688C405.837 263.677 401.689 262.517 413.493 268.253L414.958 277.566C409.734 295.157 413.006 288.669 399.832 305.832Z" fill="#070101"/>
<path d="M395.596 225.59L396.87 227.094L375.388 246.389L374.118 244.883L395.596 225.59ZM191.21 346.885L200.947 349.091L207.8 360.811L200.256 397.348L180.653 434.023L150.62 465.048H124.158L119.905 459.253L153.635 428.646L180.653 384.25L191.21 346.885ZM363.673 487.265L367.906 484.07L380.069 481.057L383.95 484.601L390.471 509.422L392.765 522.889L391.001 548.059L380.951 589.014L373.545 607.089L361.556 622.689L346.921 632.79L347.978 625.702L360.322 605.316L367.551 583.867L374.068 554.972L376.363 534.411L373.189 511.367L364.022 494.88L363.673 487.265ZM271.353 153.251L283.671 154.333L290.449 169.801L285.261 181.062L268.223 178.959L265.484 162.99L271.353 153.251ZM309.712 137.714L319.834 132.752L323.873 134.163L325.328 139.418V144.34L322.461 152.638L312.487 161.654L294.981 165.676L293.724 160.82L299.955 158.865L308.491 150.462L309.712 137.714Z" fill="black"/>
<path d="M189.166 144.673C189.166 148.58 186.2 151.745 182.54 151.745C178.879 151.745 175.917 148.58 175.917 144.673C175.917 140.767 178.879 137.602 182.54 137.602C186.2 137.602 189.166 140.767 189.166 144.673Z" fill="#FF009C"/>
<path d="M204.647 180.522C204.647 184.148 201.559 187.085 197.751 187.085C193.942 187.085 190.854 184.145 190.854 180.522C190.854 176.899 193.942 173.961 197.751 173.961C201.559 173.961 204.647 176.895 204.647 180.522Z" fill="#00FF0A"/>
<path d="M239.243 234.116C239.243 237.894 235.892 240.96 231.764 240.96C227.63 240.96 224.285 237.894 224.285 234.116C224.285 230.338 227.633 227.275 231.764 227.275C235.892 227.275 239.243 230.334 239.243 234.116Z" fill="#FF9E00"/>
<path d="M266.979 252.528C266.979 256.691 263.697 260.064 259.651 260.064C255.606 260.064 252.321 256.691 252.321 252.528C252.321 248.364 255.603 244.991 259.651 244.991C263.697 244.991 266.979 248.364 266.979 252.528Z" fill="black"/>
<path d="M296.239 261.811C296.239 266.403 292.911 270.122 288.813 270.122C284.711 270.122 281.387 266.4 281.387 261.811C281.387 257.222 284.711 253.5 288.813 253.5C292.914 253.504 296.239 257.222 296.239 261.811Z" fill="#FFFF00"/>
<path d="M219.512 211.477C220.585 213.248 219.594 215.809 217.297 217.207C215.003 218.605 212.267 218.301 211.194 216.534C210.121 214.764 211.112 212.203 213.406 210.805C215.704 209.407 218.436 209.71 219.512 211.477ZM237.307 199.583C237.307 201.235 236.152 202.57 234.73 202.57C233.308 202.57 232.149 201.235 232.149 199.583C232.149 197.931 233.308 196.593 234.73 196.593C236.152 196.593 237.307 197.931 237.307 199.583ZM200.71 228.211C201.019 228.564 200.776 229.279 200.081 230.071C199.387 230.862 198.35 231.6 197.382 231.996C196.418 232.391 195.68 232.375 195.466 231.953C195.157 231.6 195.397 230.885 196.095 230.094C196.789 229.302 197.826 228.561 198.791 228.168C199.755 227.776 200.493 227.793 200.71 228.211ZM145.909 264.287L158.053 252.943L163.721 258.683L151.581 270.023L145.909 264.287ZM120.968 282.969L138.664 268.615L143.711 274.47L126.014 288.827L120.968 282.969ZM115.389 292.632C115.981 293.298 116.024 294.353 115.504 295.378C114.984 296.403 113.986 297.227 112.903 297.521C111.824 297.817 110.836 297.541 110.336 296.796C109.747 296.13 109.704 295.075 110.224 294.049C110.741 293.024 111.741 292.2 112.821 291.907C113.901 291.613 114.888 291.887 115.389 292.632ZM113.575 478.618L118.249 476.93L125 480.546L131.103 486.269L131.169 492.342L118.131 499.159L111.597 494.801L112.245 481.756L113.575 478.618ZM184.001 283.289C178.955 350.317 176.736 337.503 188.465 351.181C177.372 393.992 182.174 386.192 168.3 392.508C136.604 380.505 142.209 385.344 140.6 371.719C152.977 310.912 147.631 330.873 162.937 287.268C166.259 281.858 179.041 275.753 184.001 283.289ZM306.186 527.976L347.461 518.468L358.163 513.859L365.948 513.114L367.982 516.886L368.166 535.518L364.878 538.64L306.601 543.246L300.63 542.178L300.215 534.21L306.186 527.976Z" fill="black"/>
<path d="M387.87 277.741L397.433 282.893L405.083 288.636C404.605 279.824 395.751 275.403 387.87 277.741ZM382.771 284.796H379.582C380.187 293.212 391.343 298.441 398.71 299.538C398.697 295.365 398.516 288.138 395.343 285.063C392.245 282.066 383.792 278.525 382.771 284.796ZM383.976 285.251C384.5 284.298 387.436 281.004 390.751 284.133C389.645 284.423 385.879 285.679 385.221 291.208C383.436 290.832 383.124 287.051 383.976 285.251ZM396.534 296.782C396.047 297.274 390.951 296.845 386.613 292.424C392.778 291.181 392.765 286.53 392.759 285.893C395.83 288.148 397.811 295.497 396.534 296.782Z" fill="black"/>
<path d="M395.52 262.358C395.994 258.627 398.15 253.909 396.798 250.181C392.11 237.248 369.131 245.681 361.734 250.045C343.791 260.634 331.753 283.233 334.696 304.032C335.101 306.903 334.317 309.501 335.423 312.363C340.377 325.19 357.751 323.931 368.749 322.727C393.17 320.054 421.426 292.609 414.01 266.849C406.288 261.702 401.149 262.358 395.52 262.358ZM361.481 257.674C362.705 256.438 363.396 256.424 366.754 258.399C365.339 258.195 361.757 260.321 361.602 262.774C361.602 262.774 360.822 261.076 360.71 260.193C360.556 258.976 360.128 259.032 361.481 257.674ZM367.86 259.731C372.008 264.485 374.019 281.756 362.142 264.429C363.953 265.035 367.725 263.15 367.86 259.731ZM405.254 296.331C384.391 324.461 336.25 334.632 336.23 301.46C336.22 289.029 339.374 280.497 345.98 270.053C363.196 242.829 353.732 269.229 369.381 273.9L362.366 280.952C369.006 279.805 377.613 275.862 380.494 269.413C383.446 262.797 377.35 251.466 370.016 250.823C371.688 256.87 383.818 268.131 372.564 271.975C372.564 264.05 371.29 255.544 361.728 255.31C364.522 245.977 388.496 242.634 394.408 250.401C397.403 254.334 391.462 260.15 395.162 263.235C400.471 267.666 410.814 262.078 413.641 271.975C416.094 280.536 410.017 289.909 405.254 296.331Z" fill="black"/>
<path d="M373.844 302.1C367.646 301.16 361.306 294.481 357.271 289.922C355.812 288.274 354.081 283.925 351.533 283.925C344.341 283.925 345.634 298.474 348.663 301.961C353.979 308.083 366.836 306.616 373.844 305.311L369.384 312.363C380.744 310.579 376.396 300.221 373.209 293.133C370.019 296.186 372.923 298.652 373.844 302.1ZM351.533 286.718L366.194 303.382C358.1 303.382 344.63 296.97 351.533 286.718ZM299.896 145.056L302.444 149.543C306.614 146.981 304.356 142.929 299.896 145.056ZM342.606 289.279L350.256 279.026C344.94 279.382 341.316 283.942 342.606 289.279ZM371.932 291.204C371.613 287.027 367.873 285.435 364.282 284.149C363.647 288.422 368.107 290.786 371.932 291.204ZM310.732 339.277C314.557 355.816 333.656 364.397 348.347 367.968C354.094 369.366 363.864 370.434 368.11 365.558C355.088 362.169 343.202 362.317 331.138 354.913C324.762 351 318.056 339.92 310.732 339.277ZM353.024 340.727C355.598 337.892 341.21 333.593 339.252 335.453C337.747 336.88 340.331 338.769 341.332 339.356C344.025 340.932 350.263 343.77 353.024 340.727Z" fill="black"/>
<path d="M465.861 213.65C464.041 208.972 459.959 205.296 458.244 200.862C457.375 198.62 459.696 196.088 459.837 193.781C460.338 185.615 455.443 177.864 446.519 178.646C437.279 179.457 430.959 190.758 436.147 198.907C439.527 204.225 445.742 205.758 451.618 204.676C451.466 222.683 431.377 232.431 415.281 230.038C406.041 228.663 398.921 223.5 389.144 223.929C378.871 224.381 364.572 231.231 360.75 229.032C352.136 224.071 355.858 213.795 356.629 206.595C379.526 222.765 387.423 189.861 370.658 185.743C365.78 184.543 360.029 186.498 357.043 190.6C355.664 192.495 355.585 195.528 353.748 197.021C350.121 199.969 344.186 200.321 340.183 203.513C331.671 210.297 328.866 223.906 329.959 234.159C331.552 249.119 338.718 250.51 336.73 255.844C334.202 262.616 328.373 268.625 325.268 275.291C322.869 280.437 323.224 286.906 320.647 291.725C318.069 296.552 310.663 295.038 313.273 309.152C304.346 307.042 293.108 313.467 295.422 323.255C291.565 320.568 286.64 316.787 282.035 315.643C257.95 309.676 231.632 336.356 209.996 335.426C206.806 335.288 202.165 333.6 199.337 335.446C194.475 338.614 201.694 343.015 202.981 345.405C206.177 351.329 185.357 340.853 183.218 336.508C181.016 332.04 187.642 280.939 186.983 272.601C186.796 270.261 185.41 267.946 186.529 265.658C188.149 262.352 191.375 259.78 193.188 256.467C195.687 251.915 196.539 246.729 200.229 242.872C204.275 238.639 212.126 234.808 214.897 229.487C216.138 227.1 213.864 224.905 214.831 222.736C215.895 220.362 215.592 222.943 238.038 205.135C239.927 203.635 242.781 199.108 245.375 201.686C250.412 206.684 247.248 225.287 240.408 227.733C236.774 229.036 233.209 223.856 228.485 225.811C225.138 227.196 223.416 230.651 223.387 234.145C223.284 246.561 243.469 244.497 239.96 232.22C255.076 228.066 251.936 208.524 255.392 196.969C255.497 196.616 265.303 177.591 270.076 184.293C272.499 187.698 269.727 198.891 269.922 203.377C270.405 214.448 273.783 224.542 269.54 235.428C268.588 237.864 267.716 241.837 265.326 243.188C263.631 245.001 258.252 243.956 254.865 245.542C248.545 250.052 249.99 264.488 262.558 260.028C269.332 257.624 265.685 253.019 268.924 248.74C272.298 244.279 277.687 241.523 280.761 236.717C287.717 225.841 284.175 213.007 282.038 201.462C281.413 198.076 279.912 184.929 285.837 184.929C288.082 184.929 289.043 188.256 289.655 189.924C296.374 208.204 302.503 234.221 291.374 250.177C288.688 254.028 282.812 252.132 280.758 257.242C278.539 262.757 281.179 268.995 287.137 270.353C293.517 271.803 298.224 266.532 297.947 260.443C297.845 258.185 296.051 255.475 297.164 253.391C298.955 250.042 302.361 247.893 304.106 244.415C309.768 233.156 310.666 217.148 306.453 205.316C303.115 195.95 287.749 184.804 290.896 174.548C293.503 166.049 303.431 167.556 310.077 164.038C325.134 156.07 328.666 145.109 323.484 130.432C323.122 127.867 326.259 125.365 324.722 122.727C323.346 120.36 320.272 120.706 318.85 122.727C315.986 126.795 321.197 129.657 316.032 133.649C312.809 136.142 308.626 135.222 304.988 136.54C303.296 137.154 302.095 139.023 300.36 139.366C297.625 139.91 295.202 137.846 292.575 139.939C288.454 143.226 289.698 152.622 282.038 153.4C264.461 155.187 275.643 134.19 246.336 127.264C235.915 124.801 224.17 127.656 217.629 136.834C213.834 142.165 212.086 155.177 203.623 154.887C200.318 154.771 191.97 152.134 190.644 148.771C189.001 144.614 191.753 140.546 186.983 137.375C182.513 134.404 175.785 136.435 174.547 141.868C173.382 146.981 175.578 152.635 181.312 153.265C183.626 153.518 186.078 152.081 188.218 153.182C193.995 156.159 198.33 161.516 205.542 160.148C214.933 158.368 217.646 145.695 224.667 140.124C236.099 131.048 265.32 144.255 266.534 151.474C267.245 155.697 258.45 152.988 256.544 152.76C245.915 151.488 233.594 154.494 228.008 164.308C223.966 171.403 226.971 179.048 217.017 182.054C202.102 186.561 208.699 174.874 201.065 172.412C193.537 169.982 187.26 175.85 189.502 182.892C192.816 193.313 200.97 185.608 207.448 186.442C213.712 187.25 219.555 189.106 225.273 184.547C232.465 178.817 231.027 170.055 241.237 166.445C245.457 164.951 258.647 161.368 260.586 167.516C262.117 172.375 258.236 171.897 234.223 192.258C232.215 193.962 222.646 201.452 219.989 203.513C212.372 209.424 204.087 220.108 195.098 223.583C191.533 224.961 185.262 214.936 181.967 223.256C176.67 221.73 172.658 224.123 172.404 229.665C166.469 229.685 158.984 234.218 155.663 239.305C152.331 244.405 158.013 250.042 153.912 254.71C138.967 271.714 106.712 286.84 108.348 296.321C110.428 308.354 132.9 282.659 148.816 272.875C150.472 271.856 154.425 267.455 156.384 267.874C158.563 268.342 162.98 279.389 163.411 281.585C164.162 285.425 159.642 291.415 158.382 295.045C154.102 307.352 149.405 319.668 146.002 332.222C142.417 345.445 142.315 360.451 137.469 373.246C135.017 379.724 129.81 384.926 126.738 391.19C113.627 417.929 110.8 441.342 112.472 460.417C112.65 462.428 115.026 463.779 114.99 465.546C114.951 467.468 111.402 467.956 110.846 470.073C110.125 472.809 112.245 475.163 112.199 477.724C112.028 487.575 107.712 499.206 113.746 508.492C118.084 515.175 135.962 506.353 138.612 501.114C140.037 498.299 138.016 495.526 136.907 493.107C133.519 485.722 127.657 481.756 121.396 476.936C119.609 475.558 118.312 469.156 119.951 467.221C121.376 465.536 124.125 466.819 125.863 467.181C130.402 468.128 160.64 468.899 185.789 459.349C190.176 457.684 198.047 455.709 200.45 451.45C186.812 452.089 174.643 461.429 160.288 459.141C160.508 459.18 170.538 448.994 170.538 448.994C175.051 443.277 189.824 425.805 193.162 419.399C195.506 414.903 197.81 407.258 201.572 403.76C203.778 401.709 209.64 402.553 212.563 401.963C245.56 395.317 231.349 380.782 244.44 377.518C253.368 375.293 259.454 389.67 247.63 395.053C244.098 396.662 240.461 394.806 236.79 397.015C223.568 404.97 216.635 431.419 219.578 435.032C221.991 437.993 233.762 434.116 236.79 433.077C244.549 430.417 254.888 427.176 260.652 420.975C262.63 418.846 262.288 415.615 263.21 412.994C269.016 396.507 289.287 407.482 278.803 418.763C269.902 428.33 261.988 409.865 252.518 457.222C252.038 459.619 250.82 466.347 253.117 468.121C256.537 470.765 274.132 462.273 279.135 459.21C284.902 455.679 289.201 451.453 294.172 446.966C286.522 461.511 280.136 476.861 273.332 491.834C270.916 497.148 268.812 506.824 264.526 510.803C258.822 516.101 242.301 495.922 237.436 503.58C233.607 509.603 246.975 517.934 250.184 521.323C239.397 520.855 212.738 515.788 207.471 521.194C204.94 523.789 207.125 526.271 210.019 526.911C217.84 528.645 226.912 530.138 234.881 530.936C234.881 533.504 221.491 531.335 214.482 532.598C204.15 534.454 205.7 540.764 213.205 541.713C221.695 542.781 230.816 542.468 239.345 542.468C239.345 545.653 241.261 541.495 214.479 548.089C211.931 548.715 206.095 550.578 209.13 554.29C214.101 560.376 234.052 552.955 245.079 552.724C240.981 558.147 232.689 559.535 227.867 564.902C219.647 574.053 234.364 570.427 238.703 568.106C234.996 579.078 226.398 593.385 226.909 596.952C227.218 599.118 229.14 598.235 230.079 596.952C232.126 593.639 233.439 589.581 234.878 586.05H235.516C236.313 580.7 240.375 568.419 245.076 565.535C235.161 588.328 236.435 586.05 235.516 586.05L234.239 592.462C237.781 591.882 240.655 586.165 242.748 580.66C242.07 582.777 241.853 584.606 242.883 585.295C244.454 586.343 245.724 583.208 246.168 582.206C248.315 577.353 250.813 572.474 252.726 567.457H253.364C257.614 558.048 257.4 558.051 254 567.457C253.107 567.457 254.019 565.386 248.897 581.56C256.235 579.371 256.847 565.113 261.649 559.762L262.285 557.84C262.285 560.145 262.499 559.762 261.649 559.762L255.273 577.077C260.372 576.658 262.739 567.457 264.197 562.977C265.102 562.977 265.303 561.368 261.649 573.872C266.264 573.117 268.147 566.389 269.299 562.334H269.935C274.191 553.766 273.97 553.792 270.57 562.327C269.665 562.337 270.211 561.127 268.022 570.668C272.166 570.028 273.23 565.261 274.398 561.688H275.034C277.134 557.465 278.329 554.982 278.714 554.244L278.78 554.227C278.506 554.929 277.46 557.376 275.675 561.688H275.034C272.657 569.382 277.588 566.415 279.5 561.051C280.392 561.051 279.751 561.829 282.687 555.915C280.485 561.819 281.028 561.041 280.139 561.051V564.899C284.162 564.259 285.241 560.046 286.515 556.565C287.368 556.565 286.946 556.983 288.428 553.996C287.667 557.076 288.006 556.565 287.154 556.565L286.515 562.334C290.034 561.724 290.87 558.49 291.617 555.282C292.49 555.282 291.923 556.067 294.659 549.856C292.608 556.073 293.128 555.276 292.256 555.282L291.621 559.769C295.712 559.439 296.97 555.668 297.997 552.074C298.846 552.074 298.322 552.701 300.544 548.224C299.057 552.727 299.481 552.074 298.632 552.074L297.997 557.847C301.101 557.29 301.986 554.148 303.099 551.438C303.889 551.438 303.596 551.847 304.748 548.896L304.866 548.966C304.31 551.88 304.524 551.425 303.734 551.435V555.279C307.559 554.646 308.649 551.082 309.472 547.588H310.107C308.622 556.133 313.181 549.131 315.966 547.973C318.514 546.915 322.596 547.301 325.407 546.945C325.407 573.599 323.28 598.551 331.658 624.503C332.714 627.78 334.653 630.776 335.483 634.119C336.668 638.886 333.61 645.75 340.697 646.297C340.246 656.968 339.848 667.294 346.809 676.422C351.721 682.857 365.546 675.334 368.525 670.013C374.002 660.225 363.558 651.394 355.997 646.079C353.317 644.197 346.273 639.957 347.919 635.537C349.634 630.915 356.359 631.864 373.179 615.991C397.295 593.227 421.666 543.684 421.666 502.08C421.666 485.195 422.061 479.745 419.237 480.286C416.232 480.859 419.408 485.228 416.492 505.927C409.178 557.88 398.318 561.714 390.435 582.846C387.831 582.846 404.234 550.044 394.135 500.158C391.83 488.775 384.793 474.876 382.014 473.874C380.168 473.208 377.949 474.032 354.091 484.123C354.091 484.97 354.473 484.756 352.178 484.756L354.091 484.123C359.805 479.188 373.973 469.674 373.795 461.06C373.69 455.927 368.775 452.083 369.519 446.31C370.016 442.463 374.269 438.596 378.308 438.945C379.865 439.077 381.103 439.967 382.314 440.884C390.902 447.398 381.698 452.749 381.682 459.767C381.665 466.202 385.369 475.163 388.479 480.728C390.451 484.252 395.027 494.257 400.336 492.091C403.18 490.928 404.711 486.711 405.935 484.15C409.316 477.081 413.865 468.556 412.545 460.407C411.65 454.868 402.499 448.291 411.857 443.742C414.991 442.219 418.181 445.196 418.684 448.226C419.905 455.554 405.84 462.527 431.492 482.673C433.78 484.473 447.454 493.436 449.192 487.179C450.525 482.392 428.773 448.565 423.862 420.662C420.995 404.363 425.6 385.73 403.792 371.419C400.478 369.244 395.81 367.783 393.229 364.651C391.323 362.337 393.364 359.162 393.542 356.561C394.013 349.665 391.491 343.111 394.625 336.221C395.744 333.758 400.451 331.899 402.532 330.28C406.88 326.898 410.294 323.004 415.916 322.266C425.251 321.043 434.303 332.733 435.044 341.172C406.182 341.238 424.748 379.246 441.924 363.705C447.809 358.381 443.049 353.04 443.803 346.942C444.109 344.462 446.371 342.692 447.441 340.533C456.308 322.632 441.726 310.731 442.227 297.59C442.691 285.455 458.33 274.292 463.534 263.615C470.792 248.743 471.931 229.27 465.861 213.65ZM234.206 240.136C226.412 242.519 221.313 230.301 229.131 228.02C238.054 225.416 242.887 237.482 234.206 240.136ZM260.899 258.976C251.439 261.053 249.25 248.331 258.456 246C267.858 243.623 268.223 257.367 260.899 258.976ZM292.187 267.551C283.546 271.19 278.648 258.142 286.505 255.05C294.922 251.74 299.409 264.511 292.187 267.551ZM183.869 151.329C175.439 152.523 173.672 139.349 181.957 138.265C189.712 137.249 191.76 150.212 183.869 151.329ZM311.93 138.225C313.645 135.614 321.282 132.004 323.336 135.495C330.091 146.974 315.762 161.2 305.627 162.449C302.444 162.841 296.706 165.462 295.432 161.084C301.729 160.445 309.264 152.955 311.005 146.984C311.756 144.413 310.39 140.566 311.93 138.225ZM294.155 151.887C293.928 152.117 292.931 152.655 292.516 152.496C292.101 152.338 291.528 147.832 291.528 147.832C291.528 147.832 294.386 151.652 294.155 151.887ZM290.969 148.903C290.755 150.858 291.614 154.765 294.445 152.473C295.613 151.527 289.866 145.679 293.266 142.24C295.179 140.309 298.24 142.069 300.535 141.743C302.733 141.426 304.998 138.802 307.342 139.718C314.291 142.435 301.377 162.152 290.969 160.26C283.79 158.958 286.476 151.613 290.969 148.903ZM267.384 166.217C268.137 161.974 273.427 166.204 274.978 163.474C276.426 160.916 271.37 155.691 276.307 154.511C283.76 152.73 290.264 168.185 287.947 173.902C285.988 178.731 282.802 174.845 279.497 175.662C277.581 176.137 276.946 178.412 274.997 178.791C273.76 179.031 272.364 178.435 272.324 177.109C272.249 174.406 276.489 173.572 275.373 170.72C274.194 167.717 266.745 169.807 267.384 166.217ZM198.531 186.574C190.696 187.834 187.859 176.272 195.983 174.762C204.173 173.239 207.57 185.124 198.531 186.574ZM234.229 196.81C237.419 195.861 238.417 201.488 235.414 202.263C232.021 203.143 230.994 197.776 234.229 196.81ZM130.692 489.912C130.007 494.053 126.636 492.025 124.273 493.585C122.969 494.445 122.449 496.166 121.057 496.96C112.818 501.668 109.118 481.647 115.221 478.763C120.073 476.472 131.584 484.535 130.692 489.912ZM215.743 210.752C221.869 209.592 220.73 217.082 215.105 217.939C208.942 218.875 211.25 211.603 215.743 210.752ZM200.443 228.389C199.969 231.037 198.485 231.36 195.983 231.594C196.447 228.798 197.784 228.475 200.443 228.389ZM185.97 224.354C191.457 222.37 193.557 239.278 189.495 239.974C185.976 240.581 181.95 225.805 185.97 224.354ZM176.052 228.564C178.701 223.059 182.375 231.564 182.566 238.642C182.635 241.207 182.592 243.778 182.592 246.333C177.49 245.476 173.892 233.051 176.052 228.564ZM168.171 233.354C170.202 232.751 171.272 235.217 171.73 236.72C177.576 255.851 170.594 256.757 168.191 250.82C166.986 247.846 163.392 234.775 168.171 233.354ZM158.369 240.745C160.916 236.72 163.467 241.992 163.915 244.411C164.847 252.61 164.603 253.902 164.109 256.589C159.642 255.116 155.636 245.051 158.369 240.745ZM112.466 297.247C108.884 297.587 109.835 292.451 113.101 292.24C117.294 291.973 115.866 296.927 112.466 297.247ZM137.328 279.389C131.103 284.529 129.454 285.221 125.856 287.997C118.582 283.345 131.949 272.901 137.328 271.639C144.237 270.017 139.346 277.721 137.328 279.389ZM151.469 268.128C149.448 268.128 146.927 265.256 147.904 263.328C148.948 261.267 155.692 255.017 157.855 254.667C160.12 254.301 161.548 257.377 160.923 259.177C160.067 262.121 154.659 267.884 151.469 268.128ZM161.901 270.692C161.17 268.784 159.669 266.529 159.962 264.393C160.261 262.204 165.054 257.034 167.292 256.978C169.192 256.932 170.354 258.643 172.362 257.924C175.726 256.721 174.949 252.815 177.003 250.573C180.255 247.019 184.11 250.049 185.143 243.126C196.276 244.464 198.952 228.389 210.644 227.107C208.919 232.876 201.74 235.279 198.073 239.4C193.827 244.167 192.52 251.763 188.333 257.047C185.989 260.008 180.39 261.491 178.718 263.984C177.507 265.787 181.312 266.591 182.214 267.488C184.153 269.423 183.254 273.712 181.595 275.456C179.274 277.896 169.205 282.231 166.209 279.91C163.671 277.942 162.987 273.528 161.901 270.692ZM145.373 388.865C147.305 387.006 151.759 387.613 152.239 390.593C153.365 397.602 147.354 391.846 135.34 439.911C134.457 443.432 131.32 447.454 127.765 446.32C124.474 445.272 137.377 396.573 145.373 388.865ZM158.658 454.38C151.173 460.806 143.296 463.631 133.5 463.631C131.482 463.631 125.886 464.59 124.997 462.151C123.927 459.21 145.541 441.362 152.249 434.145C177.888 406.559 192.102 365.802 192.151 348.254C194.663 348.26 207.139 355.219 206.145 368.073C196.905 404.871 181.193 435.032 158.658 454.38ZM203.633 348.893C207.451 349.935 210.526 354.224 214.469 354.662C220.842 355.371 227.238 347.634 233.871 354.501C235.757 356.456 235.033 359.571 233.877 361.714C228.838 371.05 222.123 364.47 215.746 368.888C212.142 371.386 210.891 377.096 206.819 378.379L210.009 359.149L203.633 348.893ZM293.444 436.71C291.123 419.666 316.72 421.944 310.732 435.425C309.027 439.265 302.049 443.172 297.983 443.97C294.488 444.655 293.793 439.272 293.444 436.71ZM289.695 520.68C286.732 518.211 286.564 518.396 289.06 519.398C302.546 490.169 298.915 497.531 305.633 485.422L289.695 520.68ZM310.732 484.143C307.994 497.02 299.139 510.681 293.52 522.602C292.615 522.602 291.364 526.021 305.387 494.399L310.732 484.143ZM290.969 504.543C300.844 481.703 299.382 484.783 301.173 484.783C288.783 511.766 279.092 532.011 290.969 504.543ZM283.957 498.882C298.401 470.05 294.241 471.962 297.345 471.962C283.427 504.592 288.25 493.792 278.217 514.908C277.581 509.989 281.791 503.204 283.957 498.882ZM273.121 513.629C291.986 469.631 286.617 482.135 297.345 457.222C297.345 457.222 281.811 507.905 273.121 513.629ZM297.983 479.013C297.509 488.119 290.07 499.004 286.222 507.22C273.658 534.028 286.127 494.778 297.983 479.013ZM297.345 448.888C286.354 476.33 292.48 461.963 269.296 514.268C265.59 514.268 288.635 459.724 297.345 448.888ZM246.978 571.96H246.343C246.037 573.124 244.608 575.863 243.506 578.583C246.155 571.06 245.309 571.96 246.343 571.96C252.248 560.082 252.12 559.901 246.978 571.96ZM266.106 561.701C265.264 561.701 265.237 562.614 266.702 556.736C267.077 556.673 267.463 556.614 267.825 556.551C268.16 556.693 267.647 557.573 266.106 561.701ZM285.235 552.727C282.568 556.301 282.786 556.185 285.235 552.088V552.727ZM289.06 553.37C288.22 553.37 288.069 554.046 290.156 549.872L290.215 549.869L289.06 553.37ZM297.345 530.933C294.685 533.992 295.788 540.958 293.138 543.111C284.919 549.78 270.106 549.48 260.369 553.067C249.796 556.96 241.188 566.329 229.769 568.11C233.459 561.058 247.785 561.163 249.691 552.754C251.659 544.057 225.046 555.414 210.644 552.727C210.644 551.811 206.645 552.965 245.708 544.396C243.469 537.342 237.824 539.758 232.294 539.91C218.459 540.286 208.732 538.792 208.732 537.345C220.967 532.123 240.207 537.071 243.157 533.128C245.527 529.96 237.61 529.097 236.145 528.638C227.778 526.001 218.166 524.527 209.367 524.527C210.611 520.97 214.591 522.355 217.659 522.124C230.846 521.145 253.206 529.011 253.97 521.323C254.454 516.47 240.573 513.305 239.97 505.298L262.281 516.197C288.293 522.352 280.485 518.999 297.345 530.297V530.933ZM296.706 525.167C312.898 488.201 328.517 455.429 311.924 493.113C296.189 528.853 297.631 525.167 296.706 525.167ZM302.444 523.242C301.808 518.517 306.249 512.086 308.342 507.859C316.167 492.062 325.413 468.843 329.222 465.553C301.088 527.646 303.435 523.242 302.444 523.242ZM308.181 521.959C306.706 516.774 325.858 485.373 335.407 459.141C337.273 454.011 331.806 448.308 333.547 442.473C335.124 437.178 341.763 433.473 346.885 436.249C352.165 439.114 351.164 445.694 347.573 449.518C345.058 452.195 340.963 453.029 338.781 456.045C333.662 463.127 320.143 500.142 308.181 521.959ZM313.919 520.68H313.283C315.515 508.074 324.357 494.511 329.663 482.861C332.823 475.921 335.19 466.984 340.058 461.066C331.566 482.861 337.191 469.911 313.919 520.68ZM318.382 519.398C335.384 480.935 330.436 491.673 340.693 470.683C339.42 482.425 330.061 496.479 325.196 507.22C323.458 511.06 321.96 517.044 318.382 519.398ZM324.166 519.028C324.64 510.629 330.957 505.766 341.335 475.812C343.149 485.821 327.974 504.174 325.397 518.758L325.466 518.752C324.923 518.89 324.498 518.982 324.166 519.028ZM329.222 517.472C330.779 506.897 338.534 493.36 343.883 484.143C343.883 484.143 344.462 484.611 345.236 485.185C345.2 485.27 345.17 485.34 345.141 485.422H344.522C328.406 520.65 330.144 517.472 329.222 517.472ZM351.533 647.006C353.943 647.431 364.397 656.25 362.893 658.716C361.461 661.056 356.339 659.105 349.621 666.825C345.796 663.384 341.967 645.318 351.533 647.006ZM361.04 605.29C369.009 584.797 375.464 562.614 376.978 540.549C379.47 504.259 365.312 503.119 364.042 489.283C363.617 484.654 375.503 482.254 378.947 482.557C383.255 482.933 384.21 488.462 385.25 491.831C388.315 501.754 390.161 511.7 391.235 521.959C393.848 546.958 378.377 593.128 376.629 597.595C374.881 602.062 361.902 622.66 348.34 629.003C349.812 620.883 357.929 613.287 361.04 605.29ZM440.347 295.062C438.099 309.656 453.557 321.857 445.709 339.929C444.787 342.056 442.605 343.299 442.22 345.712C441.206 352.107 445.739 358.239 438.79 363.263C431.703 368.39 420.59 360.438 422.565 352.107C423.296 349.035 425.613 345.564 428.671 344.565C431.453 343.658 442.003 344.443 434.333 331.595C429.886 324.145 423.065 318.666 414.007 319.909C409.971 320.463 406.91 323.608 403.806 325.981C400.629 328.414 395.826 330.692 393.358 333.775C388.657 339.646 391.017 348.91 391.044 355.318C391.057 358.335 388.72 362.037 389.599 364.932C390.872 369.125 398.447 371.775 401.9 373.908C426.617 389.182 419.142 414.339 424.794 434.159C431.153 456.477 445.726 481.707 447.158 486.701C435.044 484.351 421.551 474.279 418.335 461.706C416.531 454.651 426.367 445.473 415.281 440.894C409.862 438.652 405.445 446.333 405.451 450.81C405.458 455.495 409.326 457.572 410.452 461.709C412.216 468.194 406.406 477.985 403.546 483.5C402.545 485.432 401.215 488.959 398.707 489.322C393.361 490.087 383.726 465.833 384.24 460.423C384.513 457.559 386.804 455.442 387.548 452.732C389.375 446.063 386.929 439.275 380.214 436.803C375.503 435.072 369.427 439.315 367.969 443.765C365.628 450.926 372.06 455.66 371.168 461.712C369.845 470.686 355.223 479.32 348.979 484.786H348.34C342.764 479.778 343.297 472.601 342.336 465.556C341.987 462.991 341.088 458.64 342.603 456.319C346.214 450.78 354.081 449.973 352.504 441.197C350.825 431.884 339.423 430.674 333.932 437.379C328.59 443.907 334.265 450.602 331.319 457.226C326.552 467.943 315.199 476.076 306.907 483.507C306.907 483.507 303.678 483.48 303.046 482.841C298.793 478.535 298.214 468.563 298.806 462.995C299.307 458.284 297.687 450.81 299.649 446.508C301.315 442.859 308.813 441.86 311.684 438.823C318.162 431.97 310.064 420.847 301.808 422.113C295.571 423.069 290.584 429.856 291.091 436.077C291.328 439.001 293.632 442.608 291.973 445.364C284.935 457.028 266.567 463.829 253.996 466.202C253.996 454.664 257.65 434.947 266.439 426.669C271.113 422.264 278.329 426.042 282.684 418.77C291.104 404.709 266.584 391.687 261.014 412.361C260.497 414.273 261.044 416.868 259.938 418.364C255.194 424.78 244.447 427.394 237.429 430.038C234.753 431.047 224.265 434.65 222.129 431.844C220.019 429.075 223.982 422.106 225.023 419.416C237.567 387 247.791 404.024 254.816 393.135C260.415 384.458 253.242 371.522 242.531 375.224C234.246 378.089 236.165 385.898 231.418 390.909C223.739 399.016 209.551 400.183 199.179 400.183C200.377 390.567 210.216 375.514 218.416 370.444C221.069 368.805 223.808 370.388 226.593 369.751C232.333 368.439 237.403 361.279 235.888 355.338C234.447 349.678 226.366 347.594 221.494 349.549C219.552 350.327 217.87 352.569 215.756 352.796C213.58 353.031 211.945 350.37 210.598 349.084C207.037 345.685 201.253 342.567 200.456 337.361C209.709 337.361 218.317 337.388 227.149 334.154C241.481 328.909 255.757 318.9 271.222 316.968C281.703 315.659 287.572 325.18 297.358 325.18C297.312 323.001 296.476 320.238 297.216 318.155C299.794 310.909 310.699 314.532 314.185 309.794C315.989 307.348 314.705 304.095 315.755 301.464C317.135 298.002 320.97 296.852 322.582 293.773C325.012 289.144 324.781 283.207 326.904 278.387C330.183 270.95 336.898 263.651 339.107 255.953C340.578 250.827 335.229 244.81 333.692 239.928C330.529 229.883 331.385 219.686 336.674 210.446C341.372 202.243 347.932 202.797 354.713 198.432C359.993 195.037 363.179 184.497 371.932 188.945C378.677 192.37 378.818 203.595 371.932 207.037C365.977 210.01 362.383 204.347 357.271 205.319C348.143 207.063 353.452 225.267 357.04 229.477C362.672 236.087 374.358 227.872 389.783 226.58C397.433 225.94 403.18 230.911 410.182 232.573C424.975 236.087 448.932 229.688 452.898 213C453.543 210.284 454.824 205.936 452.618 203.661C450.64 201.617 447.74 202.385 445.248 201.881C440.12 200.846 436.259 195.795 437.17 190.56C438.737 181.583 450.722 178.649 455.838 186.073C459.482 191.364 454.705 196.171 455.986 201.455C457.029 205.771 463.333 206.925 466.631 225.815C469.459 242.024 465.249 257.865 456.029 271.325C450.871 278.885 441.825 285.468 440.347 295.062Z" fill="black"/>
<path d="M366.777 518.758C367.146 522.918 368.9 533.811 365.286 536.794C362.129 539.399 355.345 538.199 351.477 538.706C339.65 540.259 327.141 540.885 315.199 541.199C311.565 541.291 306.088 543.144 302.651 541.442C297.875 539.079 303.721 530.181 306.907 529.063C318.573 524.969 331.928 524.6 343.883 520.752C353.054 517.802 365.842 508.169 366.777 518.758Z" fill="black"/>
<path d="M353.09 600.16C352.511 605.398 348.702 609.852 347.708 614.906C344.519 612.981 345.121 605.619 344.706 602.085C343.133 588.724 343.883 575.161 343.883 561.701C343.883 558.496 343.172 547.891 346.625 546.318C353.482 543.196 350.157 559.39 350.529 562.34C351.49 570.035 350.351 577.749 350.898 585.417C351.234 590.164 353.61 595.442 353.09 600.16ZM361.096 496.96C364.881 504.094 359.818 509.501 352.807 510.421C353.35 505.116 356.632 499.858 361.096 496.96Z" fill="white"/>
<path d="M145.528 357.227C148.079 339.408 153.447 321.979 158.27 304.668C160.929 295.124 163.434 282.445 174.939 280.523C184.896 278.858 181.276 294.442 180.568 300.821C179.449 310.902 178.757 320.832 178.069 330.949C177.832 334.444 176.239 338.419 176.532 341.848C177.026 347.611 181.648 347.195 183.474 351.019C185.808 355.899 180.268 386.043 171.687 388.433C168.737 389.254 165.591 387.787 162.819 386.99C155.794 384.979 144.359 383.584 143.263 374.538C142.614 369.178 144.764 362.564 145.528 357.227ZM156.93 545.633C150.775 559.159 163.211 576.767 163.296 589.752C173.145 581.356 194.495 579.345 200.72 565.851C203.656 559.492 201.082 552.031 195.055 549.266C188.995 546.486 181.717 549.364 178.823 555.744C181.73 549.338 179.182 541.937 173.158 539.158C167.108 536.362 159.83 539.257 156.93 545.633ZM210.513 629.514C202.774 631.561 195.038 633.605 187.299 635.652C189.913 634.831 191.724 632.477 193.485 630.463C197.329 625.498 200.842 620.111 203.024 614.174C204.097 611.26 205.075 607.976 204.337 604.844L210.513 629.514ZM187.303 635.655C190.683 634.877 194.126 636.249 197.161 637.66C202.715 640.247 207.728 643.969 212.287 648.12C214.018 649.877 215.997 651.703 216.691 654.186C214.631 645.964 212.573 637.742 210.516 629.517L187.303 635.655ZM216.691 654.186C215.885 650.484 217.201 646.699 218.607 643.343C220.993 637.64 224.397 632.385 228.304 627.651C229.865 625.97 231.481 624.031 233.723 623.375C225.984 625.422 218.251 627.47 210.513 629.514L216.691 654.186ZM233.723 623.375C230.342 624.153 226.899 622.785 223.867 621.374C218.314 618.789 213.301 615.061 208.742 610.914C207.01 609.156 205.032 607.327 204.337 604.844C206.395 613.07 208.455 621.288 210.513 629.514L233.723 623.375Z" fill="black"/>
<path d="M297.249 637.66C292.394 634.96 289.711 637.037 285.146 637.257C291.696 631.419 295.712 634.06 299.017 628.066C305.63 616.07 287.055 605.721 280.442 617.711C277.163 623.655 281.535 626.022 280.159 634.61C279.51 633.486 278.954 632.26 278.559 630.931C276.001 621.934 263.657 620.144 259.138 628.34C254.599 636.568 262.663 646.083 271.854 643.409C273.691 642.875 275.527 642.753 277.246 642.809C275.326 645.73 267.762 656.121 259.823 651.727L281.446 663.779C274.987 660.173 276.594 651.123 279.639 644.339C282.726 649.079 282.005 652.861 287.256 655.785C299.544 662.635 309.534 644.513 297.249 637.66ZM227.36 483.546C224.328 473.023 206.398 469.937 199.396 462.962C197.171 472.644 183.623 484.852 186.618 495.355C189.146 504.223 203.175 503.953 206.684 495.012C207.695 501.645 208.218 512.527 201.302 514.532L225.022 507.658C218.186 509.639 212.846 500.432 210.029 493.852C217.672 499.772 229.95 492.533 227.36 483.546Z" fill="black"/>
</g>
<defs>
<clipPath id="clip0_0_1">
<rect width="550" height="800" fill="white" transform="translate(14)"/>
</clipPath>
</defs>
</svg>
