<svg width="550" height="800" viewBox="0 0 550 800" fill="none" xmlns="http://www.w3.org/2000/svg">
<g clip-path="url(#clip0_10_47)">
<path d="M332.925 647.576L330.571 652.149L333 668.042L339.33 666.941L351.878 658.403L337.931 645.054L332.925 647.576ZM451.947 216.587C445.811 206.724 442.763 200.783 443.405 196.893C443.99 193.352 448.21 188.839 439.392 181.821C434.161 177.657 411.876 183.897 427.167 202.415C441.403 204.202 439.504 201.136 436.416 216.367C415.037 238.346 403.019 231.35 383.173 226.293C358.761 222.169 353.432 237.218 342.688 227.77C333.293 195.792 348.514 208.089 353.373 210.053C364.354 205.369 361.655 208.728 364.499 195.657C358.814 186.551 361.675 188.737 352.603 186.248C345.117 189.736 347.803 187.286 340.93 197.651C324.662 204.752 315.666 207.485 317.361 236.628C325.518 253.945 324.333 249.66 324.188 256.454C311.226 276.669 314.794 268.316 307.996 292.447C299.059 300.185 300.936 296.423 300.396 308.387C297.746 315.04 281.896 305.097 282.551 324.56C257.304 309.382 250.836 315.999 215.917 332.199C197.54 337.114 204.067 336.379 187.283 335.964C184.949 337.134 180.778 335.881 198.962 353.571C205.756 353.153 202.283 353.858 214.709 350.143C216.941 351.597 228.627 354.587 215.371 367.859C208.672 368.017 201.378 365.357 187.628 389.746C185.647 393.257 185.123 397.819 183.54 402.853C213.801 397.279 206.042 399.989 219.229 391.335C231.145 365.021 239.134 377.983 241.8 387.131C235.467 398.063 239.562 395.479 224.288 397.648C210.976 410.904 215.328 403.486 205.68 431.538C212.049 437.581 232.626 429.586 246.873 419.683C248.515 411.013 250.036 398.917 266.916 406.506C269.809 414.398 270.185 410.976 265.043 420.903C247.528 426.128 249.647 422.538 239.437 454.901C239.437 470.402 237.225 467.867 247.975 466.196C268.921 456.204 268.512 457.763 280.02 444.936C273.335 416.103 295.327 425.564 295.659 425.666C299.909 432.5 304.218 434.485 283.878 445.269C284.392 481.031 283.523 473.426 286.742 483.134C291.597 484.45 294.267 489.609 318.681 458.112C318.477 439.763 316.95 435.135 331.565 434.304C345.341 442.595 333.083 450.853 326.387 456.115C327.075 466.631 326.479 481.143 335.199 486.236C357.537 467.234 352.53 472.73 358.775 461.432C354.95 448.895 350.032 442.074 364.831 437.294C375.569 446.017 375.121 443.254 368.242 459.662C374.328 480.527 370.937 473.656 382.452 490.117C383.594 490.09 392.317 493.595 398.087 461.323C390.76 449.264 391.504 450.382 396.438 442.496C403.861 442.364 401.583 440.976 405.912 448.588C401.62 462.622 399.236 472.862 432.453 488.458C436.245 485.336 436.568 495.141 410.316 429.547C407.67 405.085 408.825 413.406 405.356 392.779C394.407 375.069 400.49 381.263 377.498 365.98C377.755 342.6 377.142 349.506 379.917 334.859C405.514 317.417 402.153 317.552 417.914 329.212C423.644 344.06 423.921 342.234 415.708 342.392C407.867 346.82 409.961 343.79 407.123 355.355C415.685 370.332 419.461 366.55 427.272 363.214C433.223 347.835 424.609 351.929 432.891 340.183C440.646 315.57 421.123 308.878 429.514 288.699C437.565 278.328 442.062 272.862 446.219 267.983C458.76 239.341 454.218 228.976 451.947 216.587ZM385.832 305.832C359.838 322.464 369.292 318.788 344.4 323.179L328.593 319.909L321.16 309.28C321.753 285.63 319.583 294.178 329.64 271.797L340.268 256.016L357.501 246.389C357.501 246.389 362.751 245.806 364.841 245.489L374.976 244.817L382.175 250.583C380.362 260.835 380.513 258.205 381.254 262.688C391.837 263.677 387.689 262.517 399.493 268.253L400.958 277.566C395.734 295.157 399.006 288.669 385.832 305.832Z" fill="#070101"/>
<path d="M381.596 225.59L382.87 227.094L361.388 246.389L360.118 244.883L381.596 225.59ZM177.21 346.885L186.947 349.091L193.8 360.811L186.256 397.348L166.653 434.023L136.62 465.048H110.158L105.905 459.253L139.635 428.646L166.653 384.25L177.21 346.885ZM349.673 487.265L353.906 484.07L366.069 481.057L369.95 484.601L376.471 509.422L378.765 522.889L377.001 548.059L366.951 589.014L359.545 607.089L347.556 622.689L332.921 632.79L333.978 625.702L346.322 605.316L353.551 583.867L360.068 554.972L362.363 534.411L359.189 511.367L350.022 494.88L349.673 487.265ZM257.353 153.251L269.671 154.333L276.449 169.801L271.261 181.062L254.223 178.959L251.484 162.99L257.353 153.251ZM295.712 137.714L305.834 132.752L309.873 134.163L311.328 139.418V144.34L308.461 152.638L298.487 161.654L280.981 165.676L279.724 160.82L285.955 158.865L294.491 150.462L295.712 137.714Z" fill="black"/>
<path d="M175.166 144.673C175.166 148.58 172.2 151.745 168.54 151.745C164.879 151.745 161.917 148.58 161.917 144.673C161.917 140.767 164.879 137.602 168.54 137.602C172.2 137.602 175.166 140.767 175.166 144.673Z" fill="#FF009C"/>
<path d="M190.647 180.522C190.647 184.148 187.559 187.085 183.751 187.085C179.942 187.085 176.854 184.145 176.854 180.522C176.854 176.899 179.942 173.961 183.751 173.961C187.559 173.961 190.647 176.895 190.647 180.522Z" fill="#00FF0A"/>
<path d="M225.243 234.116C225.243 237.894 221.892 240.96 217.764 240.96C213.63 240.96 210.285 237.894 210.285 234.116C210.285 230.338 213.633 227.275 217.764 227.275C221.892 227.275 225.243 230.334 225.243 234.116Z" fill="#FF9E00"/>
<path d="M252.979 252.528C252.979 256.691 249.697 260.064 245.651 260.064C241.606 260.064 238.321 256.691 238.321 252.528C238.321 248.364 241.603 244.991 245.651 244.991C249.697 244.991 252.979 248.364 252.979 252.528Z" fill="black"/>
<path d="M282.239 261.811C282.239 266.403 278.911 270.122 274.813 270.122C270.711 270.122 267.387 266.4 267.387 261.811C267.387 257.222 270.711 253.5 274.813 253.5C278.914 253.504 282.239 257.222 282.239 261.811Z" fill="#FFFF00"/>
<path d="M205.512 211.477C206.585 213.248 205.594 215.809 203.297 217.207C201.003 218.605 198.267 218.301 197.194 216.534C196.121 214.764 197.112 212.203 199.406 210.805C201.704 209.407 204.436 209.71 205.512 211.477ZM223.307 199.583C223.307 201.235 222.152 202.57 220.73 202.57C219.308 202.57 218.149 201.235 218.149 199.583C218.149 197.931 219.308 196.593 220.73 196.593C222.152 196.593 223.307 197.931 223.307 199.583ZM186.71 228.211C187.019 228.564 186.776 229.279 186.081 230.071C185.387 230.862 184.35 231.6 183.382 231.996C182.418 232.391 181.68 232.375 181.466 231.953C181.157 231.6 181.397 230.885 182.095 230.094C182.789 229.302 183.826 228.561 184.791 228.168C185.755 227.776 186.493 227.793 186.71 228.211ZM131.909 264.287L144.053 252.943L149.721 258.683L137.581 270.023L131.909 264.287ZM106.968 282.969L124.664 268.615L129.711 274.47L112.014 288.827L106.968 282.969ZM101.389 292.632C101.981 293.298 102.024 294.353 101.504 295.378C100.984 296.403 99.9863 297.227 98.9033 297.521C97.8236 297.817 96.8361 297.541 96.3358 296.796C95.7466 296.13 95.7038 295.075 96.2239 294.049C96.7407 293.024 97.7414 292.2 98.821 291.907C99.9007 291.613 100.888 291.887 101.389 292.632ZM99.5748 478.618L104.249 476.93L111 480.546L117.103 486.269L117.169 492.342L104.131 499.159L97.5965 494.801L98.245 481.756L99.5748 478.618ZM170.001 283.289C164.955 350.317 162.736 337.503 174.465 351.181C163.372 393.992 168.174 386.192 154.3 392.508C122.604 380.505 128.209 385.344 126.6 371.719C138.977 310.912 133.631 330.873 148.937 287.268C152.259 281.858 165.041 275.753 170.001 283.289ZM292.186 527.976L333.461 518.468L344.163 513.859L351.948 513.114L353.982 516.886L354.166 535.518L350.878 538.64L292.601 543.246L286.63 542.178L286.215 534.21L292.186 527.976Z" fill="black"/>
<path d="M373.87 277.741L383.433 282.893L391.083 288.636C390.605 279.824 381.751 275.403 373.87 277.741ZM368.771 284.796H365.582C366.187 293.212 377.343 298.441 384.71 299.538C384.697 295.365 384.516 288.138 381.343 285.063C378.245 282.066 369.792 278.525 368.771 284.796ZM369.976 285.251C370.5 284.298 373.436 281.004 376.751 284.133C375.645 284.423 371.879 285.679 371.221 291.208C369.436 290.832 369.124 287.051 369.976 285.251ZM382.534 296.782C382.047 297.274 376.951 296.845 372.613 292.424C378.778 291.181 378.765 286.53 378.759 285.893C381.83 288.148 383.811 295.497 382.534 296.782Z" fill="black"/>
<path d="M381.52 262.358C381.994 258.627 384.15 253.909 382.798 250.181C378.11 237.248 355.131 245.681 347.734 250.045C329.791 260.634 317.753 283.233 320.696 304.032C321.101 306.903 320.317 309.501 321.423 312.363C326.377 325.19 343.751 323.931 354.749 322.727C379.17 320.054 407.426 292.609 400.01 266.849C392.288 261.702 387.149 262.358 381.52 262.358ZM347.481 257.674C348.705 256.438 349.396 256.424 352.754 258.399C351.339 258.195 347.757 260.321 347.602 262.774C347.602 262.774 346.822 261.076 346.71 260.193C346.556 258.976 346.128 259.032 347.481 257.674ZM353.86 259.731C358.008 264.485 360.019 281.756 348.142 264.429C349.953 265.035 353.725 263.15 353.86 259.731ZM391.254 296.331C370.391 324.461 322.25 334.632 322.23 301.46C322.22 289.029 325.374 280.497 331.98 270.053C349.196 242.829 339.732 269.229 355.381 273.9L348.366 280.952C355.006 279.805 363.613 275.862 366.494 269.413C369.446 262.797 363.35 251.466 356.016 250.823C357.688 256.87 369.818 268.131 358.564 271.975C358.564 264.05 357.29 255.544 347.728 255.31C350.522 245.977 374.496 242.634 380.408 250.401C383.403 254.334 377.462 260.15 381.162 263.235C386.471 267.666 396.814 262.078 399.641 271.975C402.094 280.536 396.017 289.909 391.254 296.331Z" fill="black"/>
<path d="M359.844 302.1C353.646 301.16 347.306 294.481 343.271 289.922C341.812 288.274 340.081 283.925 337.533 283.925C330.341 283.925 331.634 298.474 334.663 301.961C339.979 308.083 352.836 306.616 359.844 305.311L355.384 312.363C366.744 310.579 362.396 300.221 359.209 293.133C356.019 296.186 358.923 298.652 359.844 302.1ZM337.533 286.718L352.194 303.382C344.1 303.382 330.63 296.97 337.533 286.718ZM285.896 145.056L288.444 149.543C292.614 146.981 290.356 142.929 285.896 145.056ZM328.606 289.279L336.256 279.026C330.94 279.382 327.316 283.942 328.606 289.279ZM357.932 291.204C357.613 287.027 353.873 285.435 350.282 284.149C349.647 288.422 354.107 290.786 357.932 291.204ZM296.732 339.277C300.557 355.816 319.656 364.397 334.347 367.968C340.094 369.366 349.864 370.434 354.11 365.558C341.088 362.169 329.202 362.317 317.138 354.913C310.762 351 304.056 339.92 296.732 339.277ZM339.024 340.727C341.598 337.892 327.21 333.593 325.252 335.453C323.747 336.88 326.331 338.769 327.332 339.356C330.025 340.932 336.263 343.77 339.024 340.727Z" fill="black"/>
<path d="M451.861 213.65C450.041 208.972 445.959 205.296 444.244 200.862C443.375 198.62 445.696 196.088 445.837 193.781C446.338 185.615 441.443 177.864 432.519 178.646C423.279 179.457 416.959 190.758 422.147 198.907C425.527 204.225 431.742 205.758 437.618 204.676C437.466 222.683 417.377 232.431 401.281 230.038C392.041 228.663 384.921 223.5 375.144 223.929C364.871 224.381 350.572 231.231 346.75 229.032C338.136 224.071 341.858 213.795 342.629 206.595C365.526 222.765 373.423 189.861 356.658 185.743C351.78 184.543 346.029 186.498 343.043 190.6C341.664 192.495 341.585 195.528 339.748 197.021C336.121 199.969 330.186 200.321 326.183 203.513C317.671 210.297 314.866 223.906 315.959 234.159C317.552 249.119 324.718 250.51 322.73 255.844C320.202 262.616 314.373 268.625 311.268 275.291C308.869 280.437 309.224 286.906 306.647 291.725C304.069 296.552 296.663 295.038 299.273 309.152C290.346 307.042 279.108 313.467 281.422 323.255C277.565 320.568 272.64 316.787 268.035 315.643C243.95 309.676 217.632 336.356 195.996 335.426C192.806 335.288 188.165 333.6 185.337 335.446C180.475 338.614 187.694 343.015 188.981 345.405C192.177 351.329 171.357 340.853 169.218 336.508C167.016 332.04 173.642 280.939 172.983 272.601C172.796 270.261 171.41 267.946 172.529 265.658C174.149 262.352 177.375 259.78 179.188 256.467C181.687 251.915 182.539 246.729 186.229 242.872C190.275 238.639 198.126 234.808 200.897 229.487C202.138 227.1 199.864 224.905 200.831 222.736C201.895 220.362 201.592 222.943 224.038 205.135C225.927 203.635 228.781 199.108 231.375 201.686C236.412 206.684 233.248 225.287 226.408 227.733C222.774 229.036 219.209 223.856 214.485 225.811C211.138 227.196 209.416 230.651 209.387 234.145C209.284 246.561 229.469 244.497 225.96 232.22C241.076 228.066 237.936 208.524 241.392 196.969C241.497 196.616 251.303 177.591 256.076 184.293C258.499 187.698 255.727 198.891 255.922 203.377C256.405 214.448 259.783 224.542 255.54 235.428C254.588 237.864 253.716 241.837 251.326 243.188C249.631 245.001 244.252 243.956 240.865 245.542C234.545 250.052 235.99 264.488 248.558 260.028C255.332 257.624 251.685 253.019 254.924 248.74C258.298 244.279 263.687 241.523 266.761 236.717C273.717 225.841 270.175 213.007 268.038 201.462C267.413 198.076 265.912 184.929 271.837 184.929C274.082 184.929 275.043 188.256 275.655 189.924C282.374 208.204 288.503 234.221 277.374 250.177C274.688 254.028 268.812 252.132 266.758 257.242C264.539 262.757 267.179 268.995 273.137 270.353C279.517 271.803 284.224 266.532 283.947 260.443C283.845 258.185 282.051 255.475 283.164 253.391C284.955 250.042 288.361 247.893 290.106 244.415C295.768 233.156 296.666 217.148 292.453 205.316C289.115 195.95 273.749 184.804 276.896 174.548C279.503 166.049 289.431 167.556 296.077 164.038C311.134 156.07 314.666 145.109 309.484 130.432C309.122 127.867 312.259 125.365 310.722 122.727C309.346 120.36 306.272 120.706 304.85 122.727C301.986 126.795 307.197 129.657 302.032 133.649C298.809 136.142 294.626 135.222 290.988 136.54C289.296 137.154 288.095 139.023 286.36 139.366C283.625 139.91 281.202 137.846 278.575 139.939C274.454 143.226 275.698 152.622 268.038 153.4C250.461 155.187 261.643 134.19 232.336 127.264C221.915 124.801 210.17 127.656 203.629 136.834C199.834 142.165 198.086 155.177 189.623 154.887C186.318 154.771 177.97 152.134 176.644 148.771C175.001 144.614 177.753 140.546 172.983 137.375C168.513 134.404 161.785 136.435 160.547 141.868C159.382 146.981 161.578 152.635 167.312 153.265C169.626 153.518 172.078 152.081 174.218 153.182C179.995 156.159 184.33 161.516 191.542 160.148C200.933 158.368 203.646 145.695 210.667 140.124C222.099 131.048 251.32 144.255 252.534 151.474C253.245 155.697 244.45 152.988 242.544 152.76C231.915 151.488 219.594 154.494 214.008 164.308C209.966 171.403 212.971 179.048 203.017 182.054C188.102 186.561 194.699 174.874 187.065 172.412C179.537 169.982 173.26 175.85 175.502 182.892C178.816 193.313 186.97 185.608 193.448 186.442C199.712 187.25 205.555 189.106 211.273 184.547C218.465 178.817 217.027 170.055 227.237 166.445C231.457 164.951 244.647 161.368 246.586 167.516C248.117 172.375 244.236 171.897 220.223 192.258C218.215 193.962 208.646 201.452 205.989 203.513C198.372 209.424 190.087 220.108 181.098 223.583C177.533 224.961 171.262 214.936 167.967 223.256C162.67 221.73 158.658 224.123 158.404 229.665C152.469 229.685 144.984 234.218 141.663 239.305C138.331 244.405 144.013 250.042 139.912 254.71C124.967 271.714 92.7116 286.84 94.3476 296.321C96.4279 308.354 118.9 282.659 134.816 272.875C136.472 271.856 140.425 267.455 142.384 267.874C144.563 268.342 148.98 279.389 149.411 281.585C150.162 285.425 145.642 291.415 144.382 295.045C140.102 307.352 135.405 319.668 132.002 332.222C128.417 345.445 128.315 360.451 123.469 373.246C121.017 379.724 115.81 384.926 112.738 391.19C99.6275 417.929 96.7999 441.342 98.4721 460.417C98.6498 462.428 101.026 463.779 100.99 465.546C100.951 467.468 97.4023 467.956 96.846 470.073C96.1251 472.809 98.245 475.163 98.1989 477.724C98.0277 487.575 93.7123 499.206 99.746 508.492C104.084 515.175 121.962 506.353 124.612 501.114C126.037 498.299 124.016 495.526 122.907 493.107C119.519 485.722 113.657 481.756 107.396 476.936C105.609 475.558 104.312 469.156 105.951 467.221C107.376 465.536 110.125 466.819 111.863 467.181C116.402 468.128 146.64 468.899 171.789 459.349C176.176 457.684 184.047 455.709 186.45 451.45C172.812 452.089 160.643 461.429 146.288 459.141C146.508 459.18 156.538 448.994 156.538 448.994C161.051 443.277 175.824 425.805 179.162 419.399C181.506 414.903 183.81 407.258 187.572 403.76C189.778 401.709 195.64 402.553 198.563 401.963C231.56 395.317 217.349 380.782 230.44 377.518C239.368 375.293 245.454 389.67 233.63 395.053C230.098 396.662 226.461 394.806 222.79 397.015C209.568 404.97 202.635 431.419 205.578 435.032C207.991 437.993 219.762 434.116 222.79 433.077C230.549 430.417 240.888 427.176 246.652 420.975C248.63 418.846 248.288 415.615 249.21 412.994C255.016 396.507 275.287 407.482 264.803 418.763C255.902 428.33 247.988 409.865 238.518 457.222C238.038 459.619 236.82 466.347 239.117 468.121C242.537 470.765 260.132 462.273 265.135 459.21C270.902 455.679 275.201 451.453 280.172 446.966C272.522 461.511 266.136 476.861 259.332 491.834C256.916 497.148 254.812 506.824 250.526 510.803C244.822 516.101 228.301 495.922 223.436 503.58C219.607 509.603 232.975 517.934 236.184 521.323C225.397 520.855 198.738 515.788 193.471 521.194C190.94 523.789 193.125 526.271 196.019 526.911C203.84 528.645 212.912 530.138 220.881 530.936C220.881 533.504 207.491 531.335 200.482 532.598C190.15 534.454 191.7 540.764 199.205 541.713C207.695 542.781 216.816 542.468 225.345 542.468C225.345 545.653 227.261 541.495 200.479 548.089C197.931 548.715 192.095 550.578 195.13 554.29C200.101 560.376 220.052 552.955 231.079 552.724C226.981 558.147 218.689 559.535 213.867 564.902C205.647 574.053 220.364 570.427 224.703 568.106C220.996 579.078 212.398 593.385 212.909 596.952C213.218 599.118 215.14 598.235 216.079 596.952C218.126 593.639 219.439 589.581 220.878 586.05H221.516C222.313 580.7 226.375 568.419 231.076 565.535C221.161 588.328 222.435 586.05 221.516 586.05L220.239 592.462C223.781 591.882 226.655 586.165 228.748 580.66C228.07 582.777 227.853 584.606 228.883 585.295C230.454 586.343 231.724 583.208 232.168 582.206C234.315 577.353 236.813 572.474 238.726 567.457H239.364C243.614 558.048 243.4 558.051 240 567.457C239.107 567.457 240.019 565.386 234.897 581.56C242.235 579.371 242.847 565.113 247.649 559.762L248.285 557.84C248.285 560.145 248.499 559.762 247.649 559.762L241.273 577.077C246.372 576.658 248.739 567.457 250.197 562.977C251.102 562.977 251.303 561.368 247.649 573.872C252.264 573.117 254.147 566.389 255.299 562.334H255.935C260.191 553.766 259.97 553.792 256.57 562.327C255.665 562.337 256.211 561.127 254.022 570.668C258.166 570.028 259.23 565.261 260.398 561.688H261.034C263.134 557.465 264.329 554.982 264.714 554.244L264.78 554.227C264.506 554.929 263.46 557.376 261.675 561.688H261.034C258.657 569.382 263.588 566.415 265.5 561.051C266.392 561.051 265.751 561.829 268.687 555.915C266.485 561.819 267.028 561.041 266.139 561.051V564.899C270.162 564.259 271.241 560.046 272.515 556.565C273.368 556.565 272.946 556.983 274.428 553.996C273.667 557.076 274.006 556.565 273.154 556.565L272.515 562.334C276.034 561.724 276.87 558.49 277.617 555.282C278.49 555.282 277.923 556.067 280.659 549.856C278.608 556.073 279.128 555.276 278.256 555.282L277.621 559.769C281.712 559.439 282.97 555.668 283.997 552.074C284.846 552.074 284.322 552.701 286.544 548.224C285.057 552.727 285.481 552.074 284.632 552.074L283.997 557.847C287.101 557.29 287.986 554.148 289.099 551.438C289.889 551.438 289.596 551.847 290.748 548.896L290.866 548.966C290.31 551.88 290.524 551.425 289.734 551.435V555.279C293.559 554.646 294.649 551.082 295.472 547.588H296.107C294.622 556.133 299.181 549.131 301.966 547.973C304.514 546.915 308.596 547.301 311.407 546.945C311.407 573.599 309.28 598.551 317.658 624.503C318.714 627.78 320.653 630.776 321.483 634.119C322.668 638.886 319.61 645.75 326.697 646.297C326.246 656.968 325.848 667.294 332.809 676.422C337.721 682.857 351.546 675.334 354.525 670.013C360.002 660.225 349.558 651.394 341.997 646.079C339.317 644.197 332.273 639.957 333.919 635.537C335.634 630.915 342.359 631.864 359.179 615.991C383.295 593.227 407.666 543.684 407.666 502.08C407.666 485.195 408.061 479.745 405.237 480.286C402.232 480.859 405.408 485.228 402.492 505.927C395.178 557.88 384.318 561.714 376.435 582.846C373.831 582.846 390.234 550.044 380.135 500.158C377.83 488.775 370.793 474.876 368.014 473.874C366.168 473.208 363.949 474.032 340.091 484.123C340.091 484.97 340.473 484.756 338.178 484.756L340.091 484.123C345.805 479.188 359.973 469.674 359.795 461.06C359.69 455.927 354.775 452.083 355.519 446.31C356.016 442.463 360.269 438.596 364.308 438.945C365.865 439.077 367.103 439.967 368.314 440.884C376.902 447.398 367.698 452.749 367.682 459.767C367.665 466.202 371.369 475.163 374.479 480.728C376.451 484.252 381.027 494.257 386.336 492.091C389.18 490.928 390.711 486.711 391.935 484.15C395.316 477.081 399.865 468.556 398.545 460.407C397.65 454.868 388.499 448.291 397.857 443.742C400.991 442.219 404.181 445.196 404.684 448.226C405.905 455.554 391.84 462.527 417.492 482.673C419.78 484.473 433.454 493.436 435.192 487.179C436.525 482.392 414.773 448.565 409.862 420.662C406.995 404.363 411.6 385.73 389.792 371.419C386.478 369.244 381.81 367.783 379.229 364.651C377.323 362.337 379.364 359.162 379.542 356.561C380.013 349.665 377.491 343.111 380.625 336.221C381.744 333.758 386.451 331.899 388.532 330.28C392.88 326.898 396.294 323.004 401.916 322.266C411.251 321.043 420.303 332.733 421.044 341.172C392.182 341.238 410.748 379.246 427.924 363.705C433.809 358.381 429.049 353.04 429.803 346.942C430.109 344.462 432.371 342.692 433.441 340.533C442.308 322.632 427.726 310.731 428.227 297.59C428.691 285.455 444.33 274.292 449.534 263.615C456.792 248.743 457.931 229.27 451.861 213.65ZM220.206 240.136C212.412 242.519 207.313 230.301 215.131 228.02C224.054 225.416 228.887 237.482 220.206 240.136ZM246.899 258.976C237.439 261.053 235.25 248.331 244.456 246C253.858 243.623 254.223 257.367 246.899 258.976ZM278.187 267.551C269.546 271.19 264.648 258.142 272.505 255.05C280.922 251.74 285.409 264.511 278.187 267.551ZM169.869 151.329C161.439 152.523 159.672 139.349 167.957 138.265C175.712 137.249 177.76 150.212 169.869 151.329ZM297.93 138.225C299.645 135.614 307.282 132.004 309.336 135.495C316.091 146.974 301.762 161.2 291.627 162.449C288.444 162.841 282.706 165.462 281.432 161.084C287.729 160.445 295.264 152.955 297.005 146.984C297.756 144.413 296.39 140.566 297.93 138.225ZM280.155 151.887C279.928 152.117 278.931 152.655 278.516 152.496C278.101 152.338 277.528 147.832 277.528 147.832C277.528 147.832 280.386 151.652 280.155 151.887ZM276.969 148.903C276.755 150.858 277.614 154.765 280.445 152.473C281.613 151.527 275.866 145.679 279.266 142.24C281.179 140.309 284.24 142.069 286.535 141.743C288.733 141.426 290.998 138.802 293.342 139.718C300.291 142.435 287.377 162.152 276.969 160.26C269.79 158.958 272.476 151.613 276.969 148.903ZM253.384 166.217C254.137 161.974 259.427 166.204 260.978 163.474C262.426 160.916 257.37 155.691 262.307 154.511C269.76 152.73 276.264 168.185 273.947 173.902C271.988 178.731 268.802 174.845 265.497 175.662C263.581 176.137 262.946 178.412 260.997 178.791C259.76 179.031 258.364 178.435 258.324 177.109C258.249 174.406 262.489 173.572 261.373 170.72C260.194 167.717 252.745 169.807 253.384 166.217ZM184.531 186.574C176.696 187.834 173.859 176.272 181.983 174.762C190.173 173.239 193.57 185.124 184.531 186.574ZM220.229 196.81C223.419 195.861 224.417 201.488 221.414 202.263C218.021 203.143 216.994 197.776 220.229 196.81ZM116.692 489.912C116.007 494.053 112.636 492.025 110.273 493.585C108.969 494.445 108.449 496.166 107.057 496.96C98.8177 501.668 95.1178 481.647 101.221 478.763C106.073 476.472 117.584 484.535 116.692 489.912ZM201.743 210.752C207.869 209.592 206.73 217.082 201.105 217.939C194.942 218.875 197.25 211.603 201.743 210.752ZM186.443 228.389C185.969 231.037 184.485 231.36 181.983 231.594C182.447 228.798 183.784 228.475 186.443 228.389ZM171.97 224.354C177.457 222.37 179.557 239.278 175.495 239.974C171.976 240.581 167.95 225.805 171.97 224.354ZM162.052 228.564C164.701 223.059 168.375 231.564 168.566 238.642C168.635 241.207 168.592 243.778 168.592 246.333C163.49 245.476 159.892 233.051 162.052 228.564ZM154.171 233.354C156.202 232.751 157.272 235.217 157.73 236.72C163.576 255.851 156.594 256.757 154.191 250.82C152.986 247.846 149.392 234.775 154.171 233.354ZM144.369 240.745C146.916 236.72 149.467 241.992 149.915 244.411C150.847 252.61 150.603 253.902 150.109 256.589C145.642 255.116 141.636 245.051 144.369 240.745ZM98.4655 297.247C94.8841 297.587 95.8354 292.451 99.1008 292.24C103.294 291.973 101.866 296.927 98.4655 297.247ZM123.328 279.389C117.103 284.529 115.454 285.221 111.856 287.997C104.582 283.345 117.949 272.901 123.328 271.639C130.237 270.017 125.346 277.721 123.328 279.389ZM137.469 268.128C135.448 268.128 132.927 265.256 133.904 263.328C134.948 261.267 141.692 255.017 143.855 254.667C146.12 254.301 147.548 257.377 146.923 259.177C146.067 262.121 140.659 267.884 137.469 268.128ZM147.901 270.692C147.17 268.784 145.669 266.529 145.962 264.393C146.261 262.204 151.054 257.034 153.292 256.978C155.192 256.932 156.354 258.643 158.362 257.924C161.726 256.721 160.949 252.815 163.003 250.573C166.255 247.019 170.11 250.049 171.143 243.126C182.276 244.464 184.952 228.389 196.644 227.107C194.919 232.876 187.74 235.279 184.073 239.4C179.827 244.167 178.52 251.763 174.333 257.047C171.989 260.008 166.39 261.491 164.718 263.984C163.507 265.787 167.312 266.591 168.214 267.488C170.153 269.423 169.254 273.712 167.595 275.456C165.274 277.896 155.205 282.231 152.209 279.91C149.671 277.942 148.987 273.528 147.901 270.692ZM131.373 388.865C133.305 387.006 137.759 387.613 138.239 390.593C139.365 397.602 133.354 391.846 121.34 439.911C120.457 443.432 117.32 447.454 113.765 446.32C110.474 445.272 123.377 396.573 131.373 388.865ZM144.658 454.38C137.173 460.806 129.296 463.631 119.5 463.631C117.482 463.631 111.886 464.59 110.997 462.151C109.927 459.21 131.541 441.362 138.249 434.145C163.888 406.559 178.102 365.802 178.151 348.254C180.663 348.26 193.139 355.219 192.145 368.073C182.905 404.871 167.193 435.032 144.658 454.38ZM189.633 348.893C193.451 349.935 196.526 354.224 200.469 354.662C206.842 355.371 213.238 347.634 219.871 354.501C221.757 356.456 221.033 359.571 219.877 361.714C214.838 371.05 208.123 364.47 201.746 368.888C198.142 371.386 196.891 377.096 192.819 378.379L196.009 359.149L189.633 348.893ZM279.444 436.71C277.123 419.666 302.72 421.944 296.732 435.425C295.027 439.265 288.049 443.172 283.983 443.97C280.488 444.655 279.793 439.272 279.444 436.71ZM275.695 520.68C272.732 518.211 272.564 518.396 275.06 519.398C288.546 490.169 284.915 497.531 291.633 485.422L275.695 520.68ZM296.732 484.143C293.994 497.02 285.139 510.681 279.52 522.602C278.615 522.602 277.364 526.021 291.387 494.399L296.732 484.143ZM276.969 504.543C286.844 481.703 285.382 484.783 287.173 484.783C274.783 511.766 265.092 532.011 276.969 504.543ZM269.957 498.882C284.401 470.05 280.241 471.962 283.345 471.962C269.427 504.592 274.25 493.792 264.217 514.908C263.581 509.989 267.791 503.204 269.957 498.882ZM259.121 513.629C277.986 469.631 272.617 482.135 283.345 457.222C283.345 457.222 267.811 507.905 259.121 513.629ZM283.983 479.013C283.509 488.119 276.07 499.004 272.222 507.22C259.658 534.028 272.127 494.778 283.983 479.013ZM283.345 448.888C272.354 476.33 278.48 461.963 255.296 514.268C251.59 514.268 274.635 459.724 283.345 448.888ZM232.978 571.96H232.343C232.037 573.124 230.608 575.863 229.506 578.583C232.155 571.06 231.309 571.96 232.343 571.96C238.248 560.082 238.12 559.901 232.978 571.96ZM252.106 561.701C251.264 561.701 251.237 562.614 252.702 556.736C253.077 556.673 253.463 556.614 253.825 556.551C254.16 556.693 253.647 557.573 252.106 561.701ZM271.235 552.727C268.568 556.301 268.786 556.185 271.235 552.088V552.727ZM275.06 553.37C274.22 553.37 274.069 554.046 276.156 549.872L276.215 549.869L275.06 553.37ZM283.345 530.933C280.685 533.992 281.788 540.958 279.138 543.111C270.919 549.78 256.106 549.48 246.369 553.067C235.796 556.96 227.188 566.329 215.769 568.11C219.459 561.058 233.785 561.163 235.691 552.754C237.659 544.057 211.046 555.414 196.644 552.727C196.644 551.811 192.645 552.965 231.708 544.396C229.469 537.342 223.824 539.758 218.294 539.91C204.459 540.286 194.732 538.792 194.732 537.345C206.967 532.123 226.207 537.071 229.157 533.128C231.527 529.96 223.61 529.097 222.145 528.638C213.778 526.001 204.166 524.527 195.367 524.527C196.611 520.97 200.591 522.355 203.659 522.124C216.846 521.145 239.206 529.011 239.97 521.323C240.454 516.47 226.573 513.305 225.97 505.298L248.281 516.197C274.293 522.352 266.485 518.999 283.345 530.297V530.933ZM282.706 525.167C298.898 488.201 314.517 455.429 297.924 493.113C282.189 528.853 283.631 525.167 282.706 525.167ZM288.444 523.242C287.808 518.517 292.249 512.086 294.342 507.859C302.167 492.062 311.413 468.843 315.222 465.553C287.088 527.646 289.435 523.242 288.444 523.242ZM294.181 521.959C292.706 516.774 311.858 485.373 321.407 459.141C323.273 454.011 317.806 448.308 319.547 442.473C321.124 437.178 327.763 433.473 332.885 436.249C338.165 439.114 337.164 445.694 333.573 449.518C331.058 452.195 326.963 453.029 324.781 456.045C319.662 463.127 306.143 500.142 294.181 521.959ZM299.919 520.68H299.283C301.515 508.074 310.357 494.511 315.663 482.861C318.823 475.921 321.19 466.984 326.058 461.066C317.566 482.861 323.191 469.911 299.919 520.68ZM304.382 519.398C321.384 480.935 316.436 491.673 326.693 470.683C325.42 482.425 316.061 496.479 311.196 507.22C309.458 511.06 307.96 517.044 304.382 519.398ZM310.166 519.028C310.64 510.629 316.957 505.766 327.335 475.812C329.149 485.821 313.974 504.174 311.397 518.758L311.466 518.752C310.923 518.89 310.498 518.982 310.166 519.028ZM315.222 517.472C316.779 506.897 324.534 493.36 329.883 484.143C329.883 484.143 330.462 484.611 331.236 485.185C331.2 485.27 331.17 485.34 331.141 485.422H330.522C314.406 520.65 316.144 517.472 315.222 517.472ZM337.533 647.006C339.943 647.431 350.397 656.25 348.893 658.716C347.461 661.056 342.339 659.105 335.621 666.825C331.796 663.384 327.967 645.318 337.533 647.006ZM347.04 605.29C355.009 584.797 361.464 562.614 362.978 540.549C365.47 504.259 351.312 503.119 350.042 489.283C349.617 484.654 361.503 482.254 364.947 482.557C369.255 482.933 370.21 488.462 371.25 491.831C374.315 501.754 376.161 511.7 377.235 521.959C379.848 546.958 364.377 593.128 362.629 597.595C360.881 602.062 347.902 622.66 334.34 629.003C335.812 620.883 343.929 613.287 347.04 605.29ZM426.347 295.062C424.099 309.656 439.557 321.857 431.709 339.929C430.787 342.056 428.605 343.299 428.22 345.712C427.206 352.107 431.739 358.239 424.79 363.263C417.703 368.39 406.59 360.438 408.565 352.107C409.296 349.035 411.613 345.564 414.671 344.565C417.453 343.658 428.003 344.443 420.333 331.595C415.886 324.145 409.065 318.666 400.007 319.909C395.971 320.463 392.91 323.608 389.806 325.981C386.629 328.414 381.826 330.692 379.358 333.775C374.657 339.646 377.017 348.91 377.044 355.318C377.057 358.335 374.72 362.037 375.599 364.932C376.872 369.125 384.447 371.775 387.9 373.908C412.617 389.182 405.142 414.339 410.794 434.159C417.153 456.477 431.726 481.707 433.158 486.701C421.044 484.351 407.551 474.279 404.335 461.706C402.531 454.651 412.367 445.473 401.281 440.894C395.862 438.652 391.445 446.333 391.451 450.81C391.458 455.495 395.326 457.572 396.452 461.709C398.216 468.194 392.406 477.985 389.546 483.5C388.545 485.432 387.215 488.959 384.707 489.322C379.361 490.087 369.726 465.833 370.24 460.423C370.513 457.559 372.804 455.442 373.548 452.732C375.375 446.063 372.929 439.275 366.214 436.803C361.503 435.072 355.427 439.315 353.969 443.765C351.628 450.926 358.06 455.66 357.168 461.712C355.845 470.686 341.223 479.32 334.979 484.786H334.34C328.764 479.778 329.297 472.601 328.336 465.556C327.987 462.991 327.088 458.64 328.603 456.319C332.214 450.78 340.081 449.973 338.504 441.197C336.825 431.884 325.423 430.674 319.932 437.379C314.59 443.907 320.265 450.602 317.319 457.226C312.552 467.943 301.199 476.076 292.907 483.507C292.907 483.507 289.678 483.48 289.046 482.841C284.793 478.535 284.214 468.563 284.806 462.995C285.307 458.284 283.687 450.81 285.649 446.508C287.315 442.859 294.813 441.86 297.684 438.823C304.162 431.97 296.064 420.847 287.808 422.113C281.571 423.069 276.584 429.856 277.091 436.077C277.328 439.001 279.632 442.608 277.973 445.364C270.935 457.028 252.567 463.829 239.996 466.202C239.996 454.664 243.65 434.947 252.439 426.669C257.113 422.264 264.329 426.042 268.684 418.77C277.104 404.709 252.584 391.687 247.014 412.361C246.497 414.273 247.044 416.868 245.938 418.364C241.194 424.78 230.447 427.394 223.429 430.038C220.753 431.047 210.265 434.65 208.129 431.844C206.019 429.075 209.982 422.106 211.023 419.416C223.567 387 233.791 404.024 240.816 393.135C246.415 384.458 239.242 371.522 228.531 375.224C220.246 378.089 222.165 385.898 217.418 390.909C209.739 399.016 195.551 400.183 185.179 400.183C186.377 390.567 196.216 375.514 204.416 370.444C207.069 368.805 209.808 370.388 212.593 369.751C218.333 368.439 223.403 361.279 221.888 355.338C220.447 349.678 212.366 347.594 207.494 349.549C205.552 350.327 203.87 352.569 201.756 352.796C199.58 353.031 197.945 350.37 196.598 349.084C193.037 345.685 187.253 342.567 186.456 337.361C195.709 337.361 204.317 337.388 213.149 334.154C227.481 328.909 241.757 318.9 257.222 316.968C267.703 315.659 273.572 325.18 283.358 325.18C283.312 323.001 282.476 320.238 283.216 318.155C285.794 310.909 296.699 314.532 300.185 309.794C301.989 307.348 300.705 304.095 301.755 301.464C303.135 298.002 306.97 296.852 308.582 293.773C311.012 289.144 310.781 283.207 312.904 278.387C316.183 270.95 322.898 263.651 325.107 255.953C326.578 250.827 321.229 244.81 319.692 239.928C316.529 229.883 317.385 219.686 322.674 210.446C327.372 202.243 333.932 202.797 340.713 198.432C345.993 195.037 349.179 184.497 357.932 188.945C364.677 192.37 364.818 203.595 357.932 207.037C351.977 210.01 348.383 204.347 343.271 205.319C334.143 207.063 339.452 225.267 343.04 229.477C348.672 236.087 360.358 227.872 375.783 226.58C383.433 225.94 389.18 230.911 396.182 232.573C410.975 236.087 434.932 229.688 438.898 213C439.543 210.284 440.824 205.936 438.618 203.661C436.64 201.617 433.74 202.385 431.248 201.881C426.12 200.846 422.259 195.795 423.17 190.56C424.737 181.583 436.722 178.649 441.838 186.073C445.482 191.364 440.705 196.171 441.986 201.455C443.029 205.771 449.333 206.925 452.631 225.815C455.459 242.024 451.249 257.865 442.029 271.325C436.871 278.885 427.825 285.468 426.347 295.062Z" fill="black"/>
<path d="M352.777 518.758C353.146 522.918 354.9 533.811 351.286 536.794C348.129 539.399 341.345 538.199 337.477 538.706C325.65 540.259 313.141 540.885 301.199 541.199C297.565 541.291 292.088 543.144 288.651 541.442C283.875 539.079 289.721 530.181 292.907 529.063C304.573 524.969 317.928 524.6 329.883 520.752C339.054 517.802 351.842 508.169 352.777 518.758Z" fill="black"/>
<path d="M339.09 600.16C338.511 605.398 334.702 609.852 333.708 614.906C330.519 612.981 331.121 605.619 330.706 602.085C329.133 588.724 329.883 575.161 329.883 561.701C329.883 558.496 329.172 547.891 332.625 546.318C339.482 543.196 336.157 559.39 336.529 562.34C337.49 570.035 336.351 577.749 336.898 585.417C337.234 590.164 339.61 595.442 339.09 600.16ZM347.096 496.96C350.881 504.094 345.818 509.501 338.807 510.421C339.35 505.116 342.632 499.858 347.096 496.96Z" fill="white"/>
<path d="M131.528 357.227C134.079 339.408 139.447 321.979 144.27 304.668C146.929 295.124 149.434 282.445 160.939 280.523C170.896 278.858 167.276 294.442 166.568 300.821C165.449 310.902 164.757 320.832 164.069 330.949C163.832 334.444 162.239 338.419 162.532 341.848C163.026 347.611 167.648 347.195 169.474 351.019C171.808 355.899 166.268 386.043 157.687 388.433C154.737 389.254 151.591 387.787 148.819 386.99C141.794 384.979 130.359 383.584 129.263 374.538C128.614 369.178 130.764 362.564 131.528 357.227ZM142.93 545.633C136.775 559.159 149.211 576.767 149.296 589.752C159.145 581.356 180.495 579.345 186.72 565.851C189.656 559.492 187.082 552.031 181.055 549.266C174.995 546.486 167.717 549.364 164.823 555.744C167.73 549.338 165.182 541.937 159.158 539.158C153.108 536.362 145.83 539.257 142.93 545.633ZM196.513 629.514C188.774 631.561 181.038 633.605 173.299 635.652C175.913 634.831 177.724 632.477 179.485 630.463C183.329 625.498 186.842 620.111 189.024 614.174C190.097 611.26 191.075 607.976 190.337 604.844L196.513 629.514ZM173.303 635.655C176.683 634.877 180.126 636.249 183.161 637.66C188.715 640.247 193.728 643.969 198.287 648.12C200.018 649.877 201.997 651.703 202.691 654.186C200.631 645.964 198.573 637.742 196.516 629.517L173.303 635.655ZM202.691 654.186C201.885 650.484 203.201 646.699 204.607 643.343C206.993 637.64 210.397 632.385 214.304 627.651C215.865 625.97 217.481 624.031 219.723 623.375C211.984 625.422 204.251 627.47 196.513 629.514L202.691 654.186ZM219.723 623.375C216.342 624.153 212.899 622.785 209.867 621.374C204.314 618.789 199.301 615.061 194.742 610.914C193.01 609.156 191.032 607.327 190.337 604.844C192.395 613.07 194.455 621.288 196.513 629.514L219.723 623.375Z" fill="black"/>
<path d="M283.249 637.66C278.394 634.96 275.711 637.037 271.146 637.257C277.696 631.419 281.712 634.06 285.017 628.066C291.63 616.07 273.055 605.721 266.442 617.711C263.163 623.655 267.535 626.022 266.159 634.61C265.51 633.486 264.954 632.26 264.559 630.931C262.001 621.934 249.657 620.144 245.138 628.34C240.599 636.568 248.663 646.083 257.854 643.409C259.691 642.875 261.527 642.753 263.246 642.809C261.326 645.73 253.762 656.121 245.823 651.727L267.446 663.779C260.987 660.173 262.594 651.123 265.639 644.339C268.726 649.079 268.005 652.861 273.256 655.785C285.544 662.635 295.534 644.513 283.249 637.66ZM213.36 483.546C210.328 473.023 192.398 469.937 185.396 462.962C183.171 472.644 169.623 484.852 172.618 495.355C175.146 504.223 189.175 503.953 192.684 495.012C193.695 501.645 194.218 512.527 187.302 514.532L211.022 507.658C204.186 509.639 198.846 500.432 196.029 493.852C203.672 499.772 215.95 492.533 213.36 483.546Z" fill="black"/>
</g>
<defs>
<clipPath id="clip0_10_47">
<rect width="550" height="800" fill="white"/>
</clipPath>
</defs>
</svg>
