<svg width="64" height="64" viewBox="0 0 64 64" xmlns="http://www.w3.org/2000/svg">
  <rect width="64" height="64" rx="16" fill="#E5EBF0"/>
  <path d="M15 21L23 8L28 24Z" fill="#7B8FA0"/>
  <path d="M49 21L41 8L36 24Z" fill="#7B8FA0"/>
  <path d="M18 24C18 15.5 24.6 10 32 10C39.4 10 46 15.5 46 24V37C46 47.1 39.3 54 32 54C24.7 54 18 47.1 18 37V24Z" fill="#93A8B6"/>
  <path d="M23 39C25.8 31.9 29.6 29 32 29C34.4 29 38.2 31.9 41 39C38.7 45.2 35.7 48 32 48C28.3 48 25.3 45.2 23 39Z" fill="#F3F7FA"/>
  <circle cx="26" cy="30" r="3" fill="#24313A"/>
  <circle cx="38" cy="30" r="3" fill="#24313A"/>
  <path d="M32 33L36 38H28L32 33Z" fill="#24313A"/>
  <path d="M27 42C28.8 44 30.5 45 32 45C33.5 45 35.2 44 37 42" stroke="#24313A" stroke-width="2" stroke-linecap="round"/>
</svg>
