<svg width="900" height="720" viewBox="0 0 900 720" fill="none" xmlns="http://www.w3.org/2000/svg">
  <defs>
    <linearGradient id="bg" x1="450" y1="0" x2="450" y2="720" gradientUnits="userSpaceOnUse">
      <stop stop-color="#F7F1E8"/>
      <stop offset="1" stop-color="#E3D7C8"/>
    </linearGradient>
    <linearGradient id="topbar" x1="0" y1="0" x2="0" y2="122" gradientUnits="userSpaceOnUse">
      <stop stop-color="rgba(255,250,244,0.96)"/>
      <stop offset="1" stop-color="rgba(247,239,230,0.94)"/>
    </linearGradient>
    <filter id="shadow" x="-20%" y="-20%" width="140%" height="160%" color-interpolation-filters="sRGB">
      <feDropShadow dx="0" dy="18" stdDeviation="18" flood-color="#3F2E1D" flood-opacity="0.12"/>
    </filter>
  </defs>
  <rect width="900" height="720" fill="url(#bg)"/>
  <text x="48" y="68" fill="#17303D" font-family="'PingFang SC','Microsoft YaHei',sans-serif" font-size="34" font-weight="700">Mobile 托管三态预览</text>
  <text x="48" y="102" fill="rgba(23,48,61,0.72)" font-family="'PingFang SC','Microsoft YaHei',sans-serif" font-size="18">顶部机器人按钮现在按 关闭 / 本局托管 / 跨局托管 三态循环。</text>

  <g filter="url(#shadow)">
    <rect x="48" y="146" width="804" height="164" rx="28" fill="#FFF8F0"/>
    <text x="76" y="184" fill="#17303D" font-family="'PingFang SC','Microsoft YaHei',sans-serif" font-size="24" font-weight="700">关闭</text>
    <rect x="664" y="163" width="124" height="26" rx="13" fill="#EEF1F2"/>
    <text x="690" y="181" fill="#506169" font-family="'PingFang SC','Microsoft YaHei',sans-serif" font-size="14" font-weight="700">托管：关闭</text>
    <rect x="76" y="204" width="748" height="82" rx="22" fill="#FFF9F2" stroke="#D8D6D2"/>
    <text x="102" y="235" fill="#6D7A82" font-family="'PingFang SC','Microsoft YaHei',sans-serif" font-size="14">总分</text>
    <text x="108" y="263" fill="#17303D" font-family="'PingFang SC','Microsoft YaHei',sans-serif" font-size="24" font-weight="700">0</text>
    <text x="208" y="235" fill="#6D7A82" font-family="'PingFang SC','Microsoft YaHei',sans-serif" font-size="14">计秒</text>
    <text x="208" y="263" fill="#17303D" font-family="'PingFang SC','Microsoft YaHei',sans-serif" font-size="24" font-weight="700">--</text>
    <text x="308" y="235" fill="#6D7A82" font-family="'PingFang SC','Microsoft YaHei',sans-serif" font-size="14">难度</text>
    <text x="308" y="263" fill="#17303D" font-family="'PingFang SC','Microsoft YaHei',sans-serif" font-size="24" font-weight="700">初</text>
    <rect x="722" y="216" width="60" height="60" rx="18" fill="#E7EAEB" stroke="#D0D7D9"/>
    <circle cx="752" cy="246" r="15" fill="#17303D"/>
    <circle cx="708" cy="246" r="7" fill="#E7EAEB"/>
    <circle cx="796" cy="246" r="7" fill="#E7EAEB"/>
    <text x="692" y="292" fill="#5E6E75" font-family="'PingFang SC','Microsoft YaHei',sans-serif" font-size="15">按钮空闲，title / aria 为“托管：关闭”</text>
  </g>

  <g filter="url(#shadow)">
    <rect x="48" y="336" width="804" height="164" rx="28" fill="#FFF8F0"/>
    <text x="76" y="374" fill="#17303D" font-family="'PingFang SC','Microsoft YaHei',sans-serif" font-size="24" font-weight="700">本局托管</text>
    <rect x="640" y="353" width="148" height="26" rx="13" fill="#F5E1DE"/>
    <text x="660" y="371" fill="#9C4F45" font-family="'PingFang SC','Microsoft YaHei',sans-serif" font-size="14" font-weight="700">托管：本局托管</text>
    <rect x="76" y="394" width="748" height="82" rx="22" fill="#FFF9F2" stroke="#D8D6D2"/>
    <text x="102" y="425" fill="#6D7A82" font-family="'PingFang SC','Microsoft YaHei',sans-serif" font-size="14">总分</text>
    <text x="108" y="453" fill="#17303D" font-family="'PingFang SC','Microsoft YaHei',sans-serif" font-size="24" font-weight="700">0</text>
    <text x="208" y="425" fill="#6D7A82" font-family="'PingFang SC','Microsoft YaHei',sans-serif" font-size="14">计秒</text>
    <text x="208" y="453" fill="#17303D" font-family="'PingFang SC','Microsoft YaHei',sans-serif" font-size="24" font-weight="700">--</text>
    <text x="308" y="425" fill="#6D7A82" font-family="'PingFang SC','Microsoft YaHei',sans-serif" font-size="14">难度</text>
    <text x="308" y="453" fill="#17303D" font-family="'PingFang SC','Microsoft YaHei',sans-serif" font-size="24" font-weight="700">初</text>
    <rect x="722" y="406" width="60" height="60" rx="18" fill="#F1D7D3" stroke="#D89A93"/>
    <circle cx="752" cy="436" r="15" fill="#B34E43"/>
    <circle cx="708" cy="436" r="7" fill="#E7EAEB"/>
    <circle cx="796" cy="436" r="7" fill="#E7EAEB"/>
    <text x="692" y="482" fill="#5E6E75" font-family="'PingFang SC','Microsoft YaHei',sans-serif" font-size="15">第一次点击进入本局托管，本局结束后自动恢复关闭</text>
  </g>

  <g filter="url(#shadow)">
    <rect x="48" y="526" width="804" height="164" rx="28" fill="#FFF8F0"/>
    <text x="76" y="564" fill="#17303D" font-family="'PingFang SC','Microsoft YaHei',sans-serif" font-size="24" font-weight="700">跨局托管</text>
    <rect x="614" y="543" width="174" height="26" rx="13" fill="#E0E8F7"/>
    <text x="648" y="561" fill="#4469B3" font-family="'PingFang SC','Microsoft YaHei',sans-serif" font-size="14" font-weight="700">托管：跨局托管</text>
    <rect x="76" y="584" width="748" height="82" rx="22" fill="#FFF9F2" stroke="#D8D6D2"/>
    <text x="102" y="615" fill="#6D7A82" font-family="'PingFang SC','Microsoft YaHei',sans-serif" font-size="14">总分</text>
    <text x="108" y="643" fill="#17303D" font-family="'PingFang SC','Microsoft YaHei',sans-serif" font-size="24" font-weight="700">0</text>
    <text x="208" y="615" fill="#6D7A82" font-family="'PingFang SC','Microsoft YaHei',sans-serif" font-size="14">计秒</text>
    <text x="208" y="643" fill="#17303D" font-family="'PingFang SC','Microsoft YaHei',sans-serif" font-size="24" font-weight="700">--</text>
    <text x="308" y="615" fill="#6D7A82" font-family="'PingFang SC','Microsoft YaHei',sans-serif" font-size="14">难度</text>
    <text x="308" y="643" fill="#17303D" font-family="'PingFang SC','Microsoft YaHei',sans-serif" font-size="24" font-weight="700">初</text>
    <rect x="722" y="596" width="60" height="60" rx="18" fill="#D8E2F6" stroke="#8EA8DB"/>
    <circle cx="752" cy="626" r="15" fill="#4469B3"/>
    <circle cx="708" cy="626" r="7" fill="#E7EAEB"/>
    <circle cx="796" cy="626" r="7" fill="#E7EAEB"/>
    <text x="692" y="672" fill="#5E6E75" font-family="'PingFang SC','Microsoft YaHei',sans-serif" font-size="15">第二次点击进入跨局托管，并用蓝色高亮区分跨局保留状态</text>
  </g>
</svg>
