<?xml version="1.0" encoding="UTF-8"?>
<svg width="960" height="540" viewBox="0 0 960 540" fill="none" xmlns="http://www.w3.org/2000/svg">
  <!--
    作用：
    提供一张适合在对话窗口中完整查看的 PC 小尺寸 mockup。
    
    为什么这样写：
    原始宽屏设计稿在当前预览器里会被裁切；
    单独输出缩小版静态稿，能更稳定地展示完整构图关系。
    
    输入：
    @param {void} xxx - 静态设计稿，无运行时输入。
    
    输出：
    @returns {SVGDocument} 一张 960x540 的完整 PC 布局 mockup。
    
    注意：
    - 这张图用于沟通布局，不代表最终视觉定稿。
    - 仅覆盖 PC 方案，不涉及 mobile 与 AI 逻辑。
  -->
  <defs>
    <linearGradient id="bg" x1="480" y1="0" x2="480" y2="540" gradientUnits="userSpaceOnUse">
      <stop stop-color="#173E4B"/>
      <stop offset="1" stop-color="#0D2833"/>
    </linearGradient>
    <linearGradient id="warm" x1="0" y1="0" x2="1" y2="1">
      <stop stop-color="#F5EFE3"/>
      <stop offset="1" stop-color="#E6D6B4"/>
    </linearGradient>
    <linearGradient id="soft" x1="0" y1="0" x2="1" y2="1">
      <stop stop-color="#F3EFE7"/>
      <stop offset="1" stop-color="#E3DBCB"/>
    </linearGradient>
    <style>
      .t1 { font: 700 18px "PingFang SC", "Microsoft YaHei", sans-serif; fill: #1C262C; }
      .t2 { font: 700 12px "PingFang SC", "Microsoft YaHei", sans-serif; fill: #26343C; }
      .t3 { font: 600 10px "PingFang SC", "Microsoft YaHei", sans-serif; fill: #5E6E76; }
      .t4 { font: 700 10px "PingFang SC", "Microsoft YaHei", sans-serif; fill: #F8F2E7; }
      .t5 { font: 700 9px "PingFang SC", "Microsoft YaHei", sans-serif; fill: #846331; }
      .dashed { fill: rgba(255,255,255,.02); stroke: rgba(243,233,211,.28); stroke-width: 1.5; stroke-dasharray: 6 4; }
    </style>
  </defs>

  <rect width="960" height="540" fill="url(#bg)"/>
  <rect x="8" y="8" width="944" height="524" rx="16" stroke="rgba(255,255,255,.08)"/>

  <!-- 顶部 -->
  <rect x="12" y="14" width="150" height="108" rx="14" fill="url(#warm)"/>
  <rect x="160" y="14" width="404" height="108" rx="14" fill="url(#warm)"/>
  <rect x="566" y="14" width="382" height="162" rx="14" fill="url(#soft)"/>

  <text x="24" y="40" class="t2">朋友牌</text>
  <text x="24" y="58" class="t3">第一张梅花 A 已出现</text>
  <rect x="22" y="70" width="38" height="54" rx="4" fill="#FFFDF7" stroke="#D6A663"/>
  <text x="31" y="103" style="font:700 26px serif; fill:#1E1E1E;">♣</text>
  <text x="70" y="88" class="t2">第一张梅花 A</text>
  <text x="70" y="106" class="t3">朋友已揭晓：玩家5</text>

  <text x="176" y="42" class="t1">五人找朋友升级</text>
  <rect x="176" y="58" width="118" height="56" rx="10" fill="rgba(255,255,255,.66)"/>
  <rect x="304" y="58" width="118" height="56" rx="10" fill="rgba(255,255,255,.66)"/>
  <rect x="432" y="58" width="118" height="56" rx="10" fill="rgba(255,255,255,.66)"/>
  <text x="188" y="78" class="t3">主牌 / 级牌</text>
  <text x="188" y="96" class="t2">无主 · 2 张亮</text>
  <text x="316" y="78" class="t3">打家</text>
  <text x="316" y="96" class="t2">玩家2</text>
  <text x="444" y="78" class="t3">轮次</text>
  <text x="444" y="96" class="t2">第 14 轮</text>

  <text x="580" y="40" style="font:800 28px 'PingFang SC', sans-serif; fill:#C9524B;">7</text>
  <text x="604" y="40" class="t3" style="fill:#C9524B;">秒</text>
  <text x="884" y="36" class="t2" style="font-size:11px;">非打家总分</text>
  <text x="906" y="62" style="font:800 30px 'PingFang SC', sans-serif; fill:#9A6127;">60</text>
  <text x="580" y="78" class="t3">当前轮到玩家1出牌</text>

  <g>
    <rect x="578" y="92" width="44" height="22" rx="7" fill="#FFFDF8"/><text x="588" y="107" class="t5">上一轮</text>
    <rect x="626" y="92" width="34" height="22" rx="7" fill="#FFFDF8"/><text x="636" y="107" class="t5">播报</text>
    <rect x="664" y="92" width="40" height="22" rx="7" fill="#FFFDF8"/><text x="673" y="107" class="t5">Debug</text>
    <rect x="708" y="92" width="50" height="22" rx="7" fill="#FFFDF8"/><text x="717" y="107" class="t5">规则帮助</text>
    <rect x="762" y="92" width="48" height="22" rx="7" fill="#FFFDF8"/><text x="771" y="107" class="t5">本局托管</text>
    <rect x="814" y="92" width="52" height="22" rx="7" fill="#FFFDF8"/><text x="823" y="107" class="t5">牌面经典</text>
    <rect x="870" y="92" width="50" height="22" rx="7" fill="#EDF4FF" stroke="#376DCA"/><text x="879" y="107" class="t5">布局编辑</text>
    <rect x="924" y="92" width="20" height="22" rx="7" fill="#FFFDF8"/><text x="928" y="107" class="t5">新</text>
  </g>
  <rect x="578" y="124" width="94" height="26" rx="8" fill="#FFFDF8"/>
  <text x="588" y="141" class="t5">AI难度：初级</text>

  <!-- 左侧玩家列 -->
  <rect x="12" y="122" width="126" height="108" rx="14" fill="#DADFDB"/>
  <rect x="12" y="232" width="126" height="98" rx="14" fill="#D5E3D7"/>
  <rect x="12" y="332" width="126" height="106" rx="14" fill="#DDD8D4" stroke="#988B61"/>

  <text x="26" y="144" class="t2">玩家4</text>
  <text x="26" y="160" class="t3">电脑操控</text>
  <rect x="26" y="170" width="92" height="16" rx="8" fill="#E7D4CF"/><text x="30" y="181" class="t5" style="fill:#B14E35;">非打家</text>
  <rect x="26" y="194" width="42" height="26" rx="8" fill="#FFFDF8"/><text x="32" y="210" class="t5">手牌 9</text>
  <rect x="74" y="194" width="44" height="26" rx="8" fill="#FFFDF8"/><text x="80" y="210" class="t5">得分 0</text>

  <text x="26" y="254" class="t2">玩家5</text>
  <text x="26" y="270" class="t3">电脑操控</text>
  <rect x="26" y="280" width="92" height="16" rx="8" fill="#C3D8CD"/><text x="30" y="291" class="t5" style="fill:#22795F;">朋友</text>
  <rect x="26" y="304" width="42" height="22" rx="8" fill="#FFFDF8"/><text x="32" y="318" class="t5">手牌 9</text>
  <rect x="74" y="304" width="44" height="22" rx="8" fill="#FFFDF8"/><text x="80" y="318" class="t5">得分 0</text>

  <text x="26" y="356" class="t2">玩家1</text>
  <text x="26" y="372" class="t3">本人操控</text>
  <rect x="26" y="382" width="102" height="16" rx="8" fill="#E6D1CC"/><text x="30" y="393" class="t5" style="fill:#B14E35;">非打家</text>
  <rect x="26" y="406" width="50" height="26" rx="8" fill="#FFFDF8"/><text x="30" y="422" class="t5">原型版</text>
  <rect x="82" y="406" width="36" height="26" rx="8" fill="#FFFDF8"/><text x="88" y="422" class="t5">0 分</text>

  <!-- 中央战场 -->
  <rect x="170" y="132" width="240" height="86" rx="14" class="dashed"/>
  <rect x="422" y="132" width="240" height="86" rx="14" class="dashed"/>
  <rect x="170" y="230" width="246" height="96" rx="14" class="dashed"/>
  <rect x="428" y="230" width="234" height="96" rx="14" class="dashed"/>
  <rect x="160" y="338" width="520" height="102" rx="14" fill="rgba(17,42,52,.42)" stroke="#C8A85A" stroke-width="2" stroke-dasharray="6 4"/>

  <text x="182" y="152" class="t4">玩家4出牌区</text>
  <text x="434" y="152" class="t4">玩家3出牌区</text>
  <text x="182" y="250" class="t4">玩家5出牌区 朋友</text>
  <text x="440" y="250" class="t4">玩家2出牌区 打家</text>
  <text x="174" y="360" class="t4">我的本轮出牌区</text>

  <rect x="184" y="164" width="34" height="48" rx="3" fill="#FFFDF7"/>
  <text x="190" y="194" style="font:700 26px serif; fill:#1E1E1E;">♠</text>
  <rect x="184" y="254" width="34" height="48" rx="3" fill="#FFFDF7"/>
  <text x="190" y="284" style="font:700 26px serif; fill:#1E1E1E;">♠</text>
  <text x="448" y="198" class="t3" style="fill:#C7D2D5;">本轮尚未出牌</text>
  <text x="446" y="286" class="t3" style="fill:#C7D2D5;">本轮尚未出牌</text>
  <text x="178" y="402" class="t3" style="fill:#C7D2D5;">本轮尚未出牌</text>

  <!-- 右侧信息列 -->
  <rect x="688" y="134" width="144" height="92" rx="14" fill="#DADFDB"/>
  <rect x="688" y="228" width="144" height="100" rx="14" fill="#EADCB0"/>
  <rect x="686" y="332" width="262" height="94" rx="14" fill="#D4DBD8"/>

  <text x="702" y="154" class="t2">玩家3</text>
  <text x="702" y="170" class="t3">电脑操控</text>
  <rect x="702" y="180" width="110" height="16" rx="8" fill="#E7D4CF"/><text x="708" y="191" class="t5" style="fill:#B14E35;">非打家</text>
  <rect x="702" y="202" width="42" height="20" rx="7" fill="#FFFDF8"/><text x="708" y="215" class="t5">10 张</text>
  <rect x="748" y="202" width="42" height="20" rx="7" fill="#FFFDF8"/><text x="754" y="215" class="t5">0 分</text>

  <text x="702" y="248" class="t2">玩家2</text>
  <text x="702" y="264" class="t3">电脑操控</text>
  <rect x="702" y="274" width="110" height="16" rx="8" fill="#F2E1AF"/><text x="708" y="285" class="t5">打家</text>
  <rect x="702" y="296" width="42" height="22" rx="7" fill="#FFFDF8"/><text x="708" y="310" class="t5">10 张</text>
  <rect x="748" y="296" width="42" height="22" rx="7" fill="#FFFDF8"/><text x="754" y="310" class="t5">0 分</text>

  <text x="700" y="354" class="t2">牌局播报</text>
  <text x="700" y="376" class="t3">• 玩家5 出牌：♠8</text>
  <text x="700" y="392" class="t3">• 玩家4 出牌：♠A</text>
  <text x="700" y="408" class="t3">• 玩家4 赢下第13轮，得20分</text>

  <!-- 底部手牌与行动 -->
  <rect x="12" y="444" width="694" height="84" rx="16" fill="url(#soft)"/>
  <rect x="714" y="434" width="234" height="96" rx="16" fill="url(#warm)"/>

  <rect x="24" y="456" width="34" height="16" rx="8" fill="#F4D7CF"/><text x="30" y="467" class="t5" style="fill:#B14E35;">主牌</text>
  <rect x="66" y="456" width="34" height="16" rx="8" fill="#D7DDD9"/><text x="72" y="467" class="t5">梅花</text>
  <rect x="176" y="456" width="34" height="16" rx="8" fill="#F4D7CF"/><text x="182" y="467" class="t5" style="fill:#B14E35;">方块</text>
  <rect x="260" y="456" width="34" height="16" rx="8" fill="#D7DDD9"/><text x="266" y="467" class="t5">黑桃</text>
  <rect x="314" y="456" width="34" height="16" rx="8" fill="#F4D7CF"/><text x="320" y="467" class="t5" style="fill:#B14E35;">红桃</text>

  <g>
    <rect x="24" y="482" width="30" height="42" rx="2" fill="#FFFDF8"/><text x="33" y="510" style="font:700 20px serif; fill:#D02E2E;">♦</text>
    <rect x="62" y="482" width="30" height="42" rx="2" fill="#FFFDF8"/><text x="71" y="510" style="font:700 20px serif; fill:#1E1E1E;">♣</text>
    <rect x="96" y="482" width="30" height="42" rx="2" fill="#FFFDF8"/><text x="105" y="510" style="font:700 20px serif; fill:#1E1E1E;">♣</text>
    <rect x="130" y="482" width="30" height="42" rx="2" fill="#FFFDF8"/><text x="139" y="510" style="font:700 20px serif; fill:#1E1E1E;">♣</text>
    <rect x="184" y="482" width="30" height="42" rx="2" fill="#FFFDF8"/><text x="193" y="510" style="font:700 20px serif; fill:#D02E2E;">♦</text>
    <rect x="218" y="482" width="30" height="42" rx="2" fill="#FFFDF8"/><text x="227" y="510" style="font:700 20px serif; fill:#D02E2E;">♦</text>
    <rect x="268" y="482" width="30" height="42" rx="2" fill="#FFFDF8"/><text x="277" y="510" style="font:700 20px serif; fill:#1E1E1E;">♠</text>
    <rect x="322" y="482" width="30" height="42" rx="2" fill="#FFFDF8"/><text x="331" y="510" style="font:700 20px serif; fill:#D02E2E;">♥</text>
    <rect x="356" y="482" width="30" height="42" rx="2" fill="#FFFDF8"/><text x="365" y="510" style="font:700 20px serif; fill:#D02E2E;">♥</text>
  </g>

  <text x="728" y="456" class="t3">选择要出的牌，出牌直接落入中部虚线区。</text>
  <text x="728" y="474" class="t3">轮到你时有 15 秒，超时自动选择一手合法牌。</text>
  <circle cx="902" cy="464" r="20" fill="#F2E0B7"/>
  <text x="889" y="460" class="t5">玩家1</text>
  <text x="887" y="472" class="t5">行动中</text>
  <rect x="728" y="486" width="46" height="28" rx="10" fill="#FFFDF8"/><text x="744" y="504" class="t5">选择</text>
  <rect x="782" y="486" width="46" height="28" rx="10" fill="#F0AA9B"/><text x="798" y="504" class="t5" style="fill:#FFF9F4;">出牌</text>
</svg>
