<?xml version="1.0" encoding="UTF-8"?>
<svg width="1560" height="878" viewBox="0 0 1560 878" fill="none" xmlns="http://www.w3.org/2000/svg">
  <!--
    作用：
    输出一版新的 PC 界面原型图，重点展示“轻顶部信息 + 规整出牌区 + 简化玩家面板”的桌面端方向。
    
    为什么这样写：
    本轮需求先看原型，不直接改正式实现；
    SVG 适合在仓库里做版本化迭代，也方便后续继续拿这份设计稿对实现做切图和拆区。
    
    输入：
    @param {void} xxx - 静态设计稿，无运行时输入。
    
    输出：
    @returns {SVGDocument} 一张 1560x878 的 PC v2 原型图。
    
    注意：
    - 这是设计稿，不代表运行态页面已经同步。
    - 本稿重点验证信息层级和区域编排，不做像素级 UI 定稿。
  -->
  <defs>
    <linearGradient id="bg" x1="780" y1="0" x2="780" y2="878" gradientUnits="userSpaceOnUse">
      <stop stop-color="#163845"/>
      <stop offset="1" stop-color="#08141B"/>
    </linearGradient>
    <linearGradient id="surface" x1="780" y1="18" x2="780" y2="860" gradientUnits="userSpaceOnUse">
      <stop stop-color="#1F4D5C"/>
      <stop offset="1" stop-color="#143542"/>
    </linearGradient>
    <linearGradient id="panelLight" x1="0" y1="0" x2="1" y2="1">
      <stop stop-color="#F8F2E6"/>
      <stop offset="1" stop-color="#E6D7B7"/>
    </linearGradient>
    <linearGradient id="panelSoft" x1="0" y1="0" x2="1" y2="1">
      <stop stop-color="#FBF7F1"/>
      <stop offset="1" stop-color="#E8DFC8"/>
    </linearGradient>
    <linearGradient id="panelDark" x1="0" y1="0" x2="1" y2="1">
      <stop stop-color="rgba(12, 26, 34, 0.84)"/>
      <stop offset="1" stop-color="rgba(10, 22, 29, 0.92)"/>
    </linearGradient>
    <linearGradient id="slotStroke" x1="0" y1="0" x2="1" y2="1">
      <stop stop-color="rgba(244, 225, 174, 0.48)"/>
      <stop offset="1" stop-color="rgba(223, 187, 95, 0.22)"/>
    </linearGradient>
    <radialGradient id="battleGlow" cx="0" cy="0" r="1" gradientUnits="userSpaceOnUse" gradientTransform="translate(780 406) rotate(90) scale(288 490)">
      <stop stop-color="rgba(255,255,255,0.12)"/>
      <stop offset="1" stop-color="rgba(255,255,255,0)"/>
    </radialGradient>
    <filter id="shadowLg" x="-48" y="-48" width="1656" height="974" filterUnits="userSpaceOnUse" color-interpolation-filters="sRGB">
      <feDropShadow dx="0" dy="26" stdDeviation="22" flood-color="#06131A" flood-opacity="0.34"/>
    </filter>
    <filter id="shadowMd" x="-20" y="-20" width="520" height="280" filterUnits="userSpaceOnUse" color-interpolation-filters="sRGB">
      <feDropShadow dx="0" dy="12" stdDeviation="12" flood-color="#08161C" flood-opacity="0.24"/>
    </filter>
    <style>
      .title { font: 700 25px "PingFang SC", "Microsoft YaHei", sans-serif; fill: #162127; }
      .heading { font: 700 18px "PingFang SC", "Microsoft YaHei", sans-serif; fill: #1E2B31; }
      .label { font: 700 12px "PingFang SC", "Microsoft YaHei", sans-serif; fill: #7A6B53; letter-spacing: .24px; }
      .copy { font: 600 12px "PingFang SC", "Microsoft YaHei", sans-serif; fill: #53626A; }
      .small { font: 600 11px "PingFang SC", "Microsoft YaHei", sans-serif; fill: #809098; }
      .battleLabel { font: 700 12px "PingFang SC", "Microsoft YaHei", sans-serif; fill: rgba(244, 237, 223, .92); letter-spacing: .16px; }
      .battleCopy { font: 600 11px "PingFang SC", "Microsoft YaHei", sans-serif; fill: rgba(223, 233, 236, .74); }
      .chipText { font: 700 11px "PingFang SC", "Microsoft YaHei", sans-serif; }
      .score { font: 800 34px "PingFang SC", "Microsoft YaHei", sans-serif; fill: #96591F; }
      .timer { font: 800 42px "PingFang SC", "Microsoft YaHei", sans-serif; fill: #C6544D; }
      .menuText { font: 700 12px "PingFang SC", "Microsoft YaHei", sans-serif; fill: #243038; }
      .menuSub { font: 600 11px "PingFang SC", "Microsoft YaHei", sans-serif; fill: #75838A; }
    </style>
  </defs>

  <rect width="1560" height="878" fill="url(#bg)"/>
  <rect x="12" y="18" width="1536" height="842" rx="26" fill="url(#surface)" filter="url(#shadowLg)"/>
  <rect x="22" y="28" width="1516" height="822" rx="22" fill="none" stroke="rgba(255,255,255,.08)"/>
  <rect x="36" y="42" width="1488" height="794" rx="18" fill="none" stroke="rgba(255,255,255,.05)" stroke-dasharray="8 8"/>

  <!-- 顶部轻信息带 -->
  <g filter="url(#shadowMd)">
    <rect x="32" y="30" width="1496" height="126" rx="22" fill="url(#panelLight)"/>
  </g>

  <text x="58" y="68" class="title">五人找朋友升级</text>
  <rect x="232" y="44" width="62" height="28" rx="14" fill="#DED1B8"/>
  <text x="248" y="63" class="chipText" fill="#675B45">出牌中</text>
  <rect x="304" y="44" width="82" height="28" rx="14" fill="#EFE7D7"/>
  <text x="320" y="63" class="chipText" fill="#7B6F5B">玩家1回合</text>

  <!-- 朋友牌压缩到顶部左侧 -->
  <rect x="56" y="84" width="54" height="74" rx="6" fill="#FFFDF7" stroke="#D6A665" stroke-width="2"/>
  <text x="66" y="106" class="small" fill="#202328">A</text>
  <text x="68" y="146" style="font:700 40px serif; fill:#1C1C1C;">♣</text>
  <text x="124" y="108" class="label">朋友牌</text>
  <text x="124" y="130" class="heading" style="font-size:16px;">第一张梅花 A</text>
  <text x="124" y="149" class="copy">已揭晓 · 玩家5</text>

  <!-- 顶部关键状态三联卡 -->
  <rect x="388" y="52" width="184" height="82" rx="16" fill="rgba(255,255,255,.66)"/>
  <rect x="584" y="52" width="184" height="82" rx="16" fill="rgba(255,255,255,.66)"/>
  <rect x="780" y="52" width="184" height="82" rx="16" fill="rgba(255,255,255,.66)"/>
  <text x="406" y="78" class="label">主牌 / 级牌</text>
  <text x="406" y="105" class="heading" style="font-size:17px;">无主 · 2 级</text>
  <text x="406" y="123" class="copy">由翻底定主</text>
  <text x="602" y="78" class="label">打家 / 轮次</text>
  <text x="602" y="105" class="heading" style="font-size:17px;">玩家2 · 第14轮</text>
  <text x="602" y="123" class="copy">当前最大：玩家4</text>
  <text x="798" y="78" class="label">局面提示</text>
  <text x="798" y="105" class="heading" style="font-size:17px;">优先看桌面，不靠长文案</text>
  <text x="798" y="123" class="copy">关键状态进出牌卡，次要功能进菜单</text>

  <!-- 右上计分与按钮 -->
  <rect x="994" y="44" width="92" height="46" rx="16" fill="rgba(255,255,255,.64)"/>
  <text x="1016" y="77" class="timer">7</text>
  <text x="1050" y="76" class="label" fill="#C6544D">秒</text>

  <text x="1108" y="63" class="label">非打家总分</text>
  <text x="1164" y="100" class="score">60</text>
  <text x="1108" y="122" class="copy">玩家1准备出牌</text>

  <rect x="1264" y="48" width="72" height="32" rx="12" fill="#FFFDF8"/>
  <rect x="1346" y="48" width="72" height="32" rx="12" fill="#FFFDF8"/>
  <rect x="1428" y="48" width="72" height="32" rx="12" fill="#F1F6FF" stroke="#356CC8" stroke-width="2"/>
  <text x="1286" y="69" class="menuText">托管</text>
  <text x="1368" y="69" class="menuText">新局</text>
  <text x="1450" y="69" class="menuText">更多</text>

  <!-- 顶部右侧更多菜单，表示次要功能收纳 -->
  <g filter="url(#shadowMd)">
    <rect x="1306" y="88" width="194" height="164" rx="18" fill="url(#panelSoft)"/>
  </g>
  <text x="1328" y="116" class="heading" style="font-size:15px;">更多功能</text>
  <rect x="1324" y="130" width="158" height="28" rx="10" fill="rgba(255,255,255,.7)"/>
  <rect x="1324" y="164" width="158" height="28" rx="10" fill="rgba(255,255,255,.7)"/>
  <rect x="1324" y="198" width="158" height="28" rx="10" fill="rgba(255,255,255,.7)"/>
  <text x="1342" y="149" class="menuText">播报 / 上一轮 / 底牌</text>
  <text x="1342" y="183" class="menuText">规则帮助 / 布局编辑</text>
  <text x="1342" y="217" class="menuText">Debug / AI难度 / 牌面</text>
  <text x="1328" y="244" class="menuSub">桌面只保留高频动作，低频操作不占战场面积。</text>

  <!-- 战场主区域 -->
  <g>
    <rect x="118" y="176" width="1324" height="510" rx="32" fill="rgba(10,24,31,.18)" stroke="rgba(239,224,181,.18)"/>
    <rect x="138" y="196" width="1284" height="470" rx="28" fill="url(#battleGlow)"/>
    <path d="M780 220L1180 380L1028 630H532L380 380L780 220Z" fill="rgba(255,255,255,.02)" stroke="rgba(244,232,198,.09)" stroke-dasharray="8 10"/>
  </g>

  <!-- 中央焦点提示 -->
  <g filter="url(#shadowMd)">
    <rect x="600" y="360" width="360" height="88" rx="22" fill="url(#panelLight)"/>
  </g>
  <text x="628" y="392" class="label">中央提示</text>
  <text x="628" y="420" class="heading" style="font-size:18px;">选择要出的牌，行动文案缩成一条焦点提示</text>
  <text x="628" y="439" class="copy">毙牌、找朋友、甩牌失败等关键反馈继续放中央播报</text>

  <!-- 玩家出牌区：统一规格卡片，把关键玩家信息并进卡片头部 -->
  <g filter="url(#shadowMd)">
    <rect x="278" y="214" width="308" height="156" rx="22" fill="url(#panelDark)" stroke="url(#slotStroke)" stroke-width="2"/>
    <rect x="974" y="214" width="308" height="156" rx="22" fill="url(#panelDark)" stroke="url(#slotStroke)" stroke-width="2"/>
    <rect x="152" y="410" width="308" height="156" rx="22" fill="url(#panelDark)" stroke="url(#slotStroke)" stroke-width="2"/>
    <rect x="1100" y="410" width="308" height="156" rx="22" fill="url(#panelDark)" stroke="url(#slotStroke)" stroke-width="2"/>
    <rect x="626" y="514" width="308" height="156" rx="22" fill="url(#panelDark)" stroke="#E7BD6D" stroke-width="2.4"/>
  </g>

  <!-- 玩家4 -->
  <circle cx="314" cy="246" r="18" fill="#FFE5C5"/>
  <text x="305" y="253" style="font:700 18px sans-serif; fill:#A06A26;">狐</text>
  <text x="342" y="240" class="battleLabel">玩家4</text>
  <text x="342" y="258" class="battleCopy">非打家 · AI</text>
  <rect x="470" y="230" width="38" height="20" rx="10" fill="rgba(255,255,255,.14)"/>
  <rect x="514" y="230" width="38" height="20" rx="10" fill="rgba(255,255,255,.14)"/>
  <rect x="558" y="230" width="18" height="20" rx="10" fill="#DDAF56"/>
  <text x="479" y="244" class="chipText" fill="#F4EAD3">Lv2</text>
  <text x="523" y="244" class="chipText" fill="#F4EAD3">分0</text>
  <text x="563" y="244" class="chipText" fill="#182229">大</text>
  <rect x="294" y="274" width="64" height="92" rx="6" fill="#FFFDF8"/>
  <rect x="344" y="286" width="64" height="92" rx="6" fill="#FFFDF8"/>
  <text x="304" y="298" class="small" fill="#101317">A</text>
  <text x="352" y="310" class="small" fill="#101317">10</text>
  <text x="312" y="349" style="font:700 44px serif; fill:#1A1A1A;">♠</text>
  <text x="362" y="361" style="font:700 44px serif; fill:#D23A35;">♦</text>
  <text x="442" y="322" class="battleCopy">出牌头部直接带身份、等级和本轮状态</text>

  <!-- 玩家3 -->
  <circle cx="1010" cy="246" r="18" fill="#D9E6EE"/>
  <text x="1001" y="253" style="font:700 18px sans-serif; fill:#617584;">狼</text>
  <text x="1038" y="240" class="battleLabel">玩家3</text>
  <text x="1038" y="258" class="battleCopy">未知身份 · AI</text>
  <rect x="1166" y="230" width="38" height="20" rx="10" fill="rgba(255,255,255,.14)"/>
  <rect x="1210" y="230" width="38" height="20" rx="10" fill="rgba(255,255,255,.14)"/>
  <text x="1175" y="244" class="chipText" fill="#F4EAD3">Lv2</text>
  <text x="1219" y="244" class="chipText" fill="#F4EAD3">剩10</text>
  <text x="1038" y="325" class="battleCopy">未出牌时保留清晰空态，不再写长句说明。</text>
  <rect x="1030" y="284" width="196" height="56" rx="16" fill="rgba(255,255,255,.05)" stroke="rgba(255,255,255,.09)" stroke-dasharray="6 6"/>
  <text x="1091" y="318" class="battleLabel" fill="rgba(244,237,223,.66)">待出</text>

  <!-- 玩家5 -->
  <circle cx="188" cy="442" r="18" fill="#E0F0E6"/>
  <text x="179" y="449" style="font:700 18px sans-serif; fill:#2A7A5E;">熊</text>
  <text x="216" y="436" class="battleLabel">玩家5</text>
  <text x="216" y="454" class="battleCopy">朋友 · AI</text>
  <rect x="338" y="426" width="38" height="20" rx="10" fill="#2A7A5E"/>
  <rect x="382" y="426" width="38" height="20" rx="10" fill="rgba(255,255,255,.14)"/>
  <text x="347" y="440" class="chipText" fill="#F7FFF9">友</text>
  <text x="391" y="440" class="chipText" fill="#F4EAD3">分0</text>
  <rect x="180" y="470" width="64" height="92" rx="6" fill="#FFFDF8"/>
  <text x="190" y="494" class="small" fill="#101317">8</text>
  <text x="196" y="544" style="font:700 44px serif; fill:#1A1A1A;">♠</text>
  <text x="278" y="515" class="battleCopy">朋友身份不再放独立大面板，直接挂在出牌区头部。</text>

  <!-- 玩家2 -->
  <circle cx="1136" cy="442" r="18" fill="#F4E6C6"/>
  <text x="1127" y="449" style="font:700 18px sans-serif; fill:#A47623;">猫</text>
  <text x="1164" y="436" class="battleLabel">玩家2</text>
  <text x="1164" y="454" class="battleCopy">打家 · AI</text>
  <rect x="1278" y="426" width="38" height="20" rx="10" fill="#DDB05C"/>
  <rect x="1322" y="426" width="44" height="20" rx="10" fill="rgba(255,255,255,.14)"/>
  <text x="1287" y="440" class="chipText" fill="#20262B">庄</text>
  <text x="1331" y="440" class="chipText" fill="#F4EAD3">剩10</text>
  <rect x="1156" y="480" width="196" height="56" rx="16" fill="rgba(255,255,255,.05)" stroke="rgba(255,255,255,.09)" stroke-dasharray="6 6"/>
  <text x="1217" y="514" class="battleLabel" fill="rgba(244,237,223,.66)">待出</text>
  <text x="1164" y="550" class="battleCopy">打家状态、剩余张数等信息并入战场，不再依赖边栏。</text>

  <!-- 玩家1 -->
  <circle cx="662" cy="546" r="18" fill="#F8E2D4"/>
  <text x="653" y="553" style="font:700 18px sans-serif; fill:#AF6A31;">我</text>
  <text x="690" y="540" class="battleLabel">玩家1</text>
  <text x="690" y="558" class="battleCopy">本人 · 非打家</text>
  <rect x="810" y="530" width="38" height="20" rx="10" fill="rgba(255,255,255,.14)"/>
  <rect x="854" y="530" width="44" height="20" rx="10" fill="rgba(255,255,255,.14)"/>
  <text x="819" y="544" class="chipText" fill="#F4EAD3">Lv2</text>
  <text x="863" y="544" class="chipText" fill="#F4EAD3">剩9</text>
  <text x="690" y="610" class="battleCopy">我的信息也放进出牌头部，玩家面板退化为轻状态条。</text>
  <rect x="690" y="578" width="176" height="56" rx="16" fill="rgba(255,255,255,.05)" stroke="rgba(231,189,109,.32)" stroke-dasharray="6 6"/>
  <text x="742" y="612" class="battleLabel" fill="rgba(244,237,223,.72)">准备出牌</text>

  <!-- 左侧简化玩家面板 -->
  <g filter="url(#shadowMd)">
    <rect x="34" y="212" width="86" height="368" rx="24" fill="url(#panelSoft)"/>
  </g>
  <text x="52" y="238" class="label">玩家列</text>
  <text x="52" y="256" class="copy">只保留头像与身份</text>
  <rect x="48" y="278" width="58" height="52" rx="16" fill="#FFFDF8"/>
  <rect x="48" y="340" width="58" height="52" rx="16" fill="#FFFDF8"/>
  <rect x="48" y="402" width="58" height="52" rx="16" fill="#FFFDF8"/>
  <rect x="48" y="464" width="58" height="52" rx="16" fill="#FFF3D8" stroke="#DEB05C" stroke-width="2"/>
  <text x="65" y="308" class="menuText">4</text>
  <text x="65" y="370" class="menuText">5</text>
  <text x="65" y="432" class="menuText">3</text>
  <text x="65" y="494" class="menuText">2</text>
  <text x="52" y="540" class="menuSub">不再展示手牌数和个人大卡片。</text>

  <!-- 底部手牌与操作 -->
  <g filter="url(#shadowMd)">
    <rect x="32" y="704" width="1496" height="142" rx="24" fill="url(#panelSoft)"/>
  </g>
  <rect x="50" y="722" width="208" height="106" rx="18" fill="rgba(255,255,255,.62)"/>
  <circle cx="84" cy="754" r="20" fill="#F8E2D4"/>
  <text x="74" y="761" style="font:700 18px sans-serif; fill:#AF6A31;">我</text>
  <text x="112" y="748" class="heading" style="font-size:16px;">玩家1</text>
  <text x="112" y="768" class="copy">非打家 · Lv2 · 当前回合</text>
  <text x="112" y="792" class="small">自己的出牌状态优先放在手牌区起点，阅读路径更顺。</text>

  <rect x="286" y="722" width="54" height="24" rx="12" fill="#F2D7D0"/>
  <rect x="352" y="722" width="48" height="24" rx="12" fill="#D7DEDA"/>
  <rect x="472" y="722" width="48" height="24" rx="12" fill="#F2D7D0"/>
  <rect x="580" y="722" width="48" height="24" rx="12" fill="#D7DEDA"/>
  <rect x="688" y="722" width="48" height="24" rx="12" fill="#F2D7D0"/>
  <text x="302" y="738" class="chipText" fill="#A24437">主牌</text>
  <text x="365" y="738" class="chipText" fill="#68757D">梅花</text>
  <text x="485" y="738" class="chipText" fill="#A24437">方块</text>
  <text x="593" y="738" class="chipText" fill="#68757D">黑桃</text>
  <text x="701" y="738" class="chipText" fill="#A24437">红桃</text>

  <g>
    <rect x="288" y="756" width="56" height="82" rx="4" fill="#FFFDF8"/>
    <rect x="332" y="756" width="56" height="82" rx="4" fill="#FFFDF8"/>
    <rect x="376" y="756" width="56" height="82" rx="4" fill="#FFFDF8"/>
    <rect x="454" y="756" width="56" height="82" rx="4" fill="#FFFDF8"/>
    <rect x="498" y="756" width="56" height="82" rx="4" fill="#FFFDF8"/>
    <rect x="576" y="756" width="56" height="82" rx="4" fill="#FFFDF8"/>
    <rect x="620" y="756" width="56" height="82" rx="4" fill="#FFFDF8"/>
    <rect x="698" y="756" width="56" height="82" rx="4" fill="#FFFDF8"/>
    <rect x="742" y="756" width="56" height="82" rx="4" fill="#FFFDF8"/>
    <text x="296" y="778" class="small" fill="#C83D34">2</text>
    <text x="340" y="778" class="small">A</text>
    <text x="384" y="778" class="small">Q</text>
    <text x="462" y="778" class="small" fill="#C83D34">K</text>
    <text x="506" y="778" class="small" fill="#C83D34">5</text>
    <text x="584" y="778" class="small">A</text>
    <text x="628" y="778" class="small">10</text>
    <text x="706" y="778" class="small" fill="#C83D34">Q</text>
    <text x="750" y="778" class="small" fill="#C83D34">8</text>
    <text x="302" y="826" style="font:700 42px serif; fill:#D2302F;">♦</text>
    <text x="346" y="826" style="font:700 42px serif; fill:#1A1A1A;">♣</text>
    <text x="390" y="826" style="font:700 42px serif; fill:#1A1A1A;">♣</text>
    <text x="468" y="826" style="font:700 42px serif; fill:#D2302F;">♦</text>
    <text x="512" y="826" style="font:700 42px serif; fill:#D2302F;">♦</text>
    <text x="590" y="826" style="font:700 42px serif; fill:#1A1A1A;">♠</text>
    <text x="632" y="826" style="font:700 42px serif; fill:#1A1A1A;">♠</text>
    <text x="714" y="826" style="font:700 42px serif; fill:#D2302F;">♥</text>
    <text x="756" y="826" style="font:700 42px serif; fill:#D2302F;">♥</text>
  </g>

  <rect x="1100" y="724" width="406" height="104" rx="18" fill="rgba(255,255,255,.56)"/>
  <text x="1124" y="750" class="label">底部操作条</text>
  <text x="1124" y="775" class="heading" style="font-size:16px;">出牌 / 毙牌 / 亮主 / 找朋友</text>
  <text x="1124" y="797" class="copy">高频动作保留在桌面底部；低频功能继续收纳到右上更多菜单。</text>
  <rect x="1124" y="808" width="68" height="30" rx="12" fill="#FFFDF8"/>
  <rect x="1200" y="808" width="68" height="30" rx="12" fill="#FFFDF8"/>
  <rect x="1276" y="808" width="76" height="30" rx="12" fill="#C9524B"/>
  <text x="1148" y="828" class="menuText">毙牌</text>
  <text x="1222" y="828" class="menuText">提示</text>
  <text x="1302" y="828" class="chipText" fill="#FFF8F1">出牌</text>
</svg>
